<mxfile host="app.diagrams.net" modified="2021-04-23T10:15:46.757Z" agent="5.0 (Windows)" etag="R-v6oIVUHrKU97eExANd" version="14.6.6" type="github">
  <diagram id="nnUYVyBrkdpLFbI5bxDf" name="Page-1">
    <mxGraphModel dx="7246" dy="9463" grid="1" gridSize="10" guides="1" tooltips="1" connect="1" arrows="1" fold="1" page="1" pageScale="1" pageWidth="3300" pageHeight="2339" math="0" shadow="0">
      <root>
        <mxCell id="0" />
        <mxCell id="1" parent="0" />
        <mxCell id="zqYOxgQ22PQ1kl50evgv-73" style="edgeStyle=orthogonalEdgeStyle;rounded=0;orthogonalLoop=1;jettySize=auto;html=1;entryX=0.25;entryY=0;entryDx=0;entryDy=0;" edge="1" parent="1" source="zqYOxgQ22PQ1kl50evgv-53" target="6_qTBxh7tRdVixuZlOHr-1">
          <mxGeometry relative="1" as="geometry" />
        </mxCell>
        <mxCell id="zqYOxgQ22PQ1kl50evgv-53" value="" style="rounded=1;whiteSpace=wrap;html=1;rotation=90;fillColor=#d5e8d4;strokeColor=#82b366;" vertex="1" parent="1">
          <mxGeometry x="-480" y="-3987" width="3790" height="2440" as="geometry" />
        </mxCell>
        <mxCell id="6_qTBxh7tRdVixuZlOHr-1" value="" style="rounded=1;whiteSpace=wrap;html=1;fillColor=#dae8fc;strokeColor=#6c8ebf;strokeWidth=9;" parent="1" vertex="1">
          <mxGeometry x="1710" y="250" width="3130" height="1770" as="geometry" />
        </mxCell>
        <mxCell id="6_qTBxh7tRdVixuZlOHr-3" value="" style="strokeColor=#666666;html=1;verticalLabelPosition=bottom;labelBackgroundColor=#ffffff;verticalAlign=top;outlineConnect=0;shadow=0;dashed=0;shape=mxgraph.rackGeneral.container;fillColor2=#f4f4f4;container=1;collapsible=0;childLayout=rack;allowGaps=1;marginLeft=33;marginRight=9;marginTop=21;marginBottom=22;textColor=#666666;numDisp=ascend;" parent="1" vertex="1">
          <mxGeometry x="1870" y="570" width="690" height="1290" as="geometry" />
        </mxCell>
        <mxCell id="6_qTBxh7tRdVixuZlOHr-5" value="" style="strokeColor=#666666;html=1;verticalLabelPosition=bottom;labelBackgroundColor=#ffffff;verticalAlign=top;outlineConnect=0;shadow=0;dashed=0;shape=mxgraph.rackGeneral.container;fillColor2=#f4f4f4;container=1;collapsible=0;childLayout=rack;allowGaps=1;marginLeft=33;marginRight=9;marginTop=21;marginBottom=22;textColor=#666666;numDisp=ascend;" parent="1" vertex="1">
          <mxGeometry x="2550" y="570" width="690" height="1290" as="geometry" />
        </mxCell>
        <mxCell id="6_qTBxh7tRdVixuZlOHr-62" value="" style="strokeColor=#666666;html=1;labelPosition=right;align=left;spacingLeft=15;shadow=0;dashed=0;outlineConnect=0;shape=mxgraph.rackGeneral.horCableDuct;fontSize=67;" parent="6_qTBxh7tRdVixuZlOHr-5" vertex="1">
          <mxGeometry x="33" y="21" width="648" height="20" as="geometry" />
        </mxCell>
        <mxCell id="6_qTBxh7tRdVixuZlOHr-63" value="" style="strokeColor=#666666;html=1;labelPosition=right;align=left;spacingLeft=15;shadow=0;dashed=0;outlineConnect=0;shape=mxgraph.rackGeneral.horRoutingBank;fontSize=67;" parent="6_qTBxh7tRdVixuZlOHr-5" vertex="1">
          <mxGeometry x="33" y="41" width="648" height="20" as="geometry" />
        </mxCell>
        <mxCell id="6_qTBxh7tRdVixuZlOHr-64" value="" style="strokeColor=#666666;html=1;labelPosition=right;align=left;spacingLeft=15;shadow=0;dashed=0;outlineConnect=0;shape=mxgraph.rackGeneral.horCableDuct;fontSize=67;" parent="6_qTBxh7tRdVixuZlOHr-5" vertex="1">
          <mxGeometry x="33" y="61" width="648" height="20" as="geometry" />
        </mxCell>
        <mxCell id="6_qTBxh7tRdVixuZlOHr-65" value="" style="strokeColor=#666666;html=1;labelPosition=right;align=left;spacingLeft=15;shadow=0;dashed=0;outlineConnect=0;shape=mxgraph.rackGeneral.horRoutingBank;fontSize=67;" parent="6_qTBxh7tRdVixuZlOHr-5" vertex="1">
          <mxGeometry x="33" y="81" width="648" height="20" as="geometry" />
        </mxCell>
        <mxCell id="6_qTBxh7tRdVixuZlOHr-60" value="" style="strokeColor=#666666;html=1;labelPosition=right;align=left;spacingLeft=15;shadow=0;dashed=0;outlineConnect=0;shape=mxgraph.rack.general.cat5e_enhanced_patch_panel_48_ports;fontSize=67;" parent="6_qTBxh7tRdVixuZlOHr-5" vertex="1">
          <mxGeometry x="33" y="661" width="648" height="120" as="geometry" />
        </mxCell>
        <mxCell id="6_qTBxh7tRdVixuZlOHr-58" value="" style="strokeColor=#666666;html=1;labelPosition=right;align=left;spacingLeft=15;shadow=0;dashed=0;outlineConnect=0;shape=mxgraph.rack.general.cat5e_enhanced_patch_panel_48_ports;fontSize=67;" parent="6_qTBxh7tRdVixuZlOHr-5" vertex="1">
          <mxGeometry x="33" y="781" width="648" height="120" as="geometry" />
        </mxCell>
        <mxCell id="6_qTBxh7tRdVixuZlOHr-57" value="" style="strokeColor=#666666;html=1;labelPosition=right;align=left;spacingLeft=15;shadow=0;dashed=0;outlineConnect=0;shape=mxgraph.rack.general.cat5e_enhanced_patch_panel_48_ports;fontSize=67;" parent="6_qTBxh7tRdVixuZlOHr-5" vertex="1">
          <mxGeometry x="33" y="901" width="648" height="120" as="geometry" />
        </mxCell>
        <mxCell id="6_qTBxh7tRdVixuZlOHr-56" value="" style="strokeColor=#666666;html=1;labelPosition=right;align=left;spacingLeft=15;shadow=0;dashed=0;outlineConnect=0;shape=mxgraph.rack.general.cat5e_enhanced_patch_panel_48_ports;fontSize=67;" parent="6_qTBxh7tRdVixuZlOHr-5" vertex="1">
          <mxGeometry x="33" y="1021" width="648" height="120" as="geometry" />
        </mxCell>
        <mxCell id="6_qTBxh7tRdVixuZlOHr-59" value="" style="strokeColor=#666666;html=1;labelPosition=right;align=left;spacingLeft=15;shadow=0;dashed=0;outlineConnect=0;shape=mxgraph.rack.general.cat5e_enhanced_patch_panel_48_ports;fontSize=67;" parent="6_qTBxh7tRdVixuZlOHr-5" vertex="1">
          <mxGeometry x="33" y="1141" width="648" height="120" as="geometry" />
        </mxCell>
        <mxCell id="6_qTBxh7tRdVixuZlOHr-6" value="" style="strokeColor=#666666;html=1;verticalLabelPosition=bottom;labelBackgroundColor=#ffffff;verticalAlign=top;outlineConnect=0;shadow=0;dashed=0;shape=mxgraph.rackGeneral.container;fillColor2=#f4f4f4;container=1;collapsible=0;childLayout=rack;allowGaps=1;marginLeft=33;marginRight=9;marginTop=21;marginBottom=22;textColor=#666666;numDisp=ascend;" parent="1" vertex="1">
          <mxGeometry x="3240" y="570" width="690" height="1290" as="geometry" />
        </mxCell>
        <mxCell id="6_qTBxh7tRdVixuZlOHr-33" value="" style="strokeColor=#666666;html=1;labelPosition=right;align=left;spacingLeft=15;shadow=0;dashed=0;outlineConnect=0;shape=mxgraph.rackGeneral.plate;fillColor=#e8e8e8;fontSize=67;" parent="6_qTBxh7tRdVixuZlOHr-6" vertex="1">
          <mxGeometry x="33" y="21" width="648" height="60" as="geometry" />
        </mxCell>
        <mxCell id="6_qTBxh7tRdVixuZlOHr-34" value="" style="strokeColor=#666666;html=1;labelPosition=right;align=left;spacingLeft=15;shadow=0;dashed=0;outlineConnect=0;shape=mxgraph.rackGeneral.plate;fillColor=#e8e8e8;fontSize=67;" parent="6_qTBxh7tRdVixuZlOHr-6" vertex="1">
          <mxGeometry x="33" y="81" width="648" height="60" as="geometry" />
        </mxCell>
        <mxCell id="6_qTBxh7tRdVixuZlOHr-35" value="" style="strokeColor=#666666;html=1;labelPosition=right;align=left;spacingLeft=15;shadow=0;dashed=0;outlineConnect=0;shape=mxgraph.rackGeneral.plate;fillColor=#e8e8e8;fontSize=67;" parent="6_qTBxh7tRdVixuZlOHr-6" vertex="1">
          <mxGeometry x="33" y="141" width="648" height="60" as="geometry" />
        </mxCell>
        <mxCell id="6_qTBxh7tRdVixuZlOHr-37" value="" style="strokeColor=#666666;html=1;labelPosition=right;align=left;spacingLeft=15;shadow=0;dashed=0;outlineConnect=0;shape=mxgraph.rackGeneral.plate;fillColor=#e8e8e8;fontSize=67;" parent="6_qTBxh7tRdVixuZlOHr-6" vertex="1">
          <mxGeometry x="33" y="301" width="648" height="60" as="geometry" />
        </mxCell>
        <mxCell id="6_qTBxh7tRdVixuZlOHr-38" value="" style="strokeColor=#666666;html=1;labelPosition=right;align=left;spacingLeft=15;shadow=0;dashed=0;outlineConnect=0;shape=mxgraph.rack.dell.poweredge_r730;fontSize=67;" parent="6_qTBxh7tRdVixuZlOHr-6" vertex="1">
          <mxGeometry x="33" y="361" width="648" height="80" as="geometry" />
        </mxCell>
        <mxCell id="6_qTBxh7tRdVixuZlOHr-39" value="" style="strokeColor=#666666;html=1;labelPosition=right;align=left;spacingLeft=15;shadow=0;dashed=0;outlineConnect=0;shape=mxgraph.rackGeneral.plate;fillColor=#e8e8e8;fontSize=67;" parent="6_qTBxh7tRdVixuZlOHr-6" vertex="1">
          <mxGeometry x="33" y="441" width="648" height="60" as="geometry" />
        </mxCell>
        <mxCell id="6_qTBxh7tRdVixuZlOHr-40" value="" style="strokeColor=#666666;html=1;labelPosition=right;align=left;spacingLeft=15;shadow=0;dashed=0;outlineConnect=0;shape=mxgraph.rack.dell.poweredge_r730;fontSize=67;" parent="6_qTBxh7tRdVixuZlOHr-6" vertex="1">
          <mxGeometry x="33" y="501" width="648" height="80" as="geometry" />
        </mxCell>
        <mxCell id="6_qTBxh7tRdVixuZlOHr-41" value="" style="strokeColor=#666666;html=1;labelPosition=right;align=left;spacingLeft=15;shadow=0;dashed=0;outlineConnect=0;shape=mxgraph.rackGeneral.plate;fillColor=#e8e8e8;fontSize=67;" parent="6_qTBxh7tRdVixuZlOHr-6" vertex="1">
          <mxGeometry x="33" y="581" width="648" height="60" as="geometry" />
        </mxCell>
        <mxCell id="6_qTBxh7tRdVixuZlOHr-42" value="" style="strokeColor=#666666;html=1;labelPosition=right;align=left;spacingLeft=15;shadow=0;dashed=0;outlineConnect=0;shape=mxgraph.rack.dell.poweredge_r730;fontSize=67;" parent="6_qTBxh7tRdVixuZlOHr-6" vertex="1">
          <mxGeometry x="33" y="641" width="648" height="80" as="geometry" />
        </mxCell>
        <mxCell id="6_qTBxh7tRdVixuZlOHr-43" value="" style="strokeColor=#666666;html=1;labelPosition=right;align=left;spacingLeft=15;shadow=0;dashed=0;outlineConnect=0;shape=mxgraph.rackGeneral.plate;fillColor=#e8e8e8;fontSize=67;" parent="6_qTBxh7tRdVixuZlOHr-6" vertex="1">
          <mxGeometry x="33" y="721" width="648" height="60" as="geometry" />
        </mxCell>
        <mxCell id="6_qTBxh7tRdVixuZlOHr-44" value="" style="shape=mxgraph.rack.hp.hp_proliant_dl380p_g8;html=1;labelPosition=right;align=left;spacingLeft=15;dashed=0;shadow=0;fillColor=#ffffff;strokeWidth=9;fontSize=67;" parent="6_qTBxh7tRdVixuZlOHr-6" vertex="1">
          <mxGeometry x="33" y="781" width="648" height="100" as="geometry" />
        </mxCell>
        <mxCell id="6_qTBxh7tRdVixuZlOHr-45" value="" style="strokeColor=#666666;html=1;labelPosition=right;align=left;spacingLeft=15;shadow=0;dashed=0;outlineConnect=0;shape=mxgraph.rackGeneral.plate;fillColor=#e8e8e8;fontSize=67;" parent="6_qTBxh7tRdVixuZlOHr-6" vertex="1">
          <mxGeometry x="33" y="881" width="648" height="60" as="geometry" />
        </mxCell>
        <mxCell id="6_qTBxh7tRdVixuZlOHr-46" value="" style="shape=mxgraph.rack.hp.hp_proliant_dl380p_g8;html=1;labelPosition=right;align=left;spacingLeft=15;dashed=0;shadow=0;fillColor=#ffffff;strokeWidth=9;fontSize=67;" parent="6_qTBxh7tRdVixuZlOHr-6" vertex="1">
          <mxGeometry x="33" y="941" width="648" height="100" as="geometry" />
        </mxCell>
        <mxCell id="6_qTBxh7tRdVixuZlOHr-66" value="" style="strokeColor=#666666;html=1;labelPosition=right;align=left;spacingLeft=15;shadow=0;dashed=0;outlineConnect=0;shape=mxgraph.rackGeneral.plate;fillColor=#e8e8e8;fontSize=67;" parent="6_qTBxh7tRdVixuZlOHr-6" vertex="1">
          <mxGeometry x="33" y="1041" width="648" height="60" as="geometry" />
        </mxCell>
        <mxCell id="6_qTBxh7tRdVixuZlOHr-47" value="" style="shape=mxgraph.rack.apc.apc_smart_ups_5000_va_5u;html=1;labelPosition=right;align=left;spacingLeft=15;dashed=0;shadow=0;fillColor=#ffffff;strokeWidth=9;fontSize=67;" parent="6_qTBxh7tRdVixuZlOHr-6" vertex="1">
          <mxGeometry x="33" y="1101" width="648" height="180" as="geometry" />
        </mxCell>
        <mxCell id="6_qTBxh7tRdVixuZlOHr-7" value="" style="strokeColor=#666666;html=1;verticalLabelPosition=bottom;labelBackgroundColor=#ffffff;verticalAlign=top;outlineConnect=0;shadow=0;dashed=0;shape=mxgraph.rackGeneral.container;fillColor2=#f4f4f4;container=1;collapsible=0;childLayout=rack;allowGaps=1;marginLeft=33;marginRight=9;marginTop=21;marginBottom=22;textColor=#666666;numDisp=ascend;" parent="1" vertex="1">
          <mxGeometry x="3930" y="570" width="690" height="1290" as="geometry" />
        </mxCell>
        <mxCell id="6_qTBxh7tRdVixuZlOHr-9" value="" style="strokeColor=#666666;html=1;labelPosition=right;align=left;spacingLeft=15;shadow=0;dashed=0;outlineConnect=0;shape=mxgraph.rackGeneral.plate;fillColor=#e8e8e8;fontSize=67;" parent="6_qTBxh7tRdVixuZlOHr-7" vertex="1">
          <mxGeometry x="33" y="21" width="648" height="60" as="geometry" />
        </mxCell>
        <mxCell id="6_qTBxh7tRdVixuZlOHr-10" value="" style="strokeColor=#666666;html=1;labelPosition=right;align=left;spacingLeft=15;shadow=0;dashed=0;outlineConnect=0;shape=mxgraph.rackGeneral.plate;fillColor=#e8e8e8;fontSize=67;" parent="6_qTBxh7tRdVixuZlOHr-7" vertex="1">
          <mxGeometry x="33" y="81" width="648" height="60" as="geometry" />
        </mxCell>
        <mxCell id="6_qTBxh7tRdVixuZlOHr-11" value="" style="strokeColor=#666666;html=1;labelPosition=right;align=left;spacingLeft=15;shadow=0;dashed=0;outlineConnect=0;shape=mxgraph.rackGeneral.plate;fillColor=#e8e8e8;fontSize=67;" parent="6_qTBxh7tRdVixuZlOHr-7" vertex="1">
          <mxGeometry x="33" y="141" width="648" height="60" as="geometry" />
        </mxCell>
        <mxCell id="6_qTBxh7tRdVixuZlOHr-15" value="" style="strokeColor=#666666;html=1;labelPosition=right;align=left;spacingLeft=15;shadow=0;dashed=0;outlineConnect=0;shape=mxgraph.rackGeneral.plate;fillColor=#e8e8e8;fontSize=67;" parent="6_qTBxh7tRdVixuZlOHr-7" vertex="1">
          <mxGeometry x="33" y="201" width="648" height="60" as="geometry" />
        </mxCell>
        <mxCell id="6_qTBxh7tRdVixuZlOHr-16" value="" style="strokeColor=#666666;html=1;labelPosition=right;align=left;spacingLeft=15;shadow=0;dashed=0;outlineConnect=0;shape=mxgraph.rackGeneral.plate;fillColor=#e8e8e8;fontSize=67;" parent="6_qTBxh7tRdVixuZlOHr-7" vertex="1">
          <mxGeometry x="33" y="261" width="648" height="60" as="geometry" />
        </mxCell>
        <mxCell id="6_qTBxh7tRdVixuZlOHr-22" value="" style="strokeColor=#666666;html=1;labelPosition=right;align=left;spacingLeft=15;shadow=0;dashed=0;outlineConnect=0;shape=mxgraph.rack.dell.dell_poweredge_1u;fontSize=67;" parent="6_qTBxh7tRdVixuZlOHr-7" vertex="1">
          <mxGeometry x="33" y="321" width="648" height="60" as="geometry" />
        </mxCell>
        <mxCell id="6_qTBxh7tRdVixuZlOHr-19" value="" style="strokeColor=#666666;html=1;labelPosition=right;align=left;spacingLeft=15;shadow=0;dashed=0;outlineConnect=0;shape=mxgraph.rackGeneral.plate;fillColor=#e8e8e8;fontSize=67;" parent="6_qTBxh7tRdVixuZlOHr-7" vertex="1">
          <mxGeometry x="33" y="381" width="648" height="60" as="geometry" />
        </mxCell>
        <mxCell id="6_qTBxh7tRdVixuZlOHr-20" value="" style="strokeColor=#666666;html=1;labelPosition=right;align=left;spacingLeft=15;shadow=0;dashed=0;outlineConnect=0;shape=mxgraph.rack.dell.dell_poweredge_1u;fontSize=67;" parent="6_qTBxh7tRdVixuZlOHr-7" vertex="1">
          <mxGeometry x="33" y="441" width="648" height="60" as="geometry" />
        </mxCell>
        <mxCell id="6_qTBxh7tRdVixuZlOHr-21" value="" style="strokeColor=#666666;html=1;labelPosition=right;align=left;spacingLeft=15;shadow=0;dashed=0;outlineConnect=0;shape=mxgraph.rackGeneral.plate;fillColor=#e8e8e8;fontSize=67;" parent="6_qTBxh7tRdVixuZlOHr-7" vertex="1">
          <mxGeometry x="33" y="501" width="648" height="60" as="geometry" />
        </mxCell>
        <mxCell id="6_qTBxh7tRdVixuZlOHr-23" value="" style="strokeColor=#666666;html=1;labelPosition=right;align=left;spacingLeft=15;shadow=0;dashed=0;outlineConnect=0;shape=mxgraph.rack.dell.poweredge_r440;fontSize=67;" parent="6_qTBxh7tRdVixuZlOHr-7" vertex="1">
          <mxGeometry x="33" y="561" width="648" height="60" as="geometry" />
        </mxCell>
        <mxCell id="6_qTBxh7tRdVixuZlOHr-24" value="" style="strokeColor=#666666;html=1;labelPosition=right;align=left;spacingLeft=15;shadow=0;dashed=0;outlineConnect=0;shape=mxgraph.rackGeneral.plate;fillColor=#e8e8e8;fontSize=67;" parent="6_qTBxh7tRdVixuZlOHr-7" vertex="1">
          <mxGeometry x="33" y="621" width="648" height="60" as="geometry" />
        </mxCell>
        <mxCell id="6_qTBxh7tRdVixuZlOHr-25" value="" style="strokeColor=#666666;html=1;labelPosition=right;align=left;spacingLeft=15;shadow=0;dashed=0;outlineConnect=0;shape=mxgraph.rack.dell.poweredge_r440;fontSize=67;" parent="6_qTBxh7tRdVixuZlOHr-7" vertex="1">
          <mxGeometry x="33" y="681" width="648" height="60" as="geometry" />
        </mxCell>
        <mxCell id="6_qTBxh7tRdVixuZlOHr-26" value="" style="strokeColor=#666666;html=1;labelPosition=right;align=left;spacingLeft=15;shadow=0;dashed=0;outlineConnect=0;shape=mxgraph.rackGeneral.plate;fillColor=#e8e8e8;fontSize=67;" parent="6_qTBxh7tRdVixuZlOHr-7" vertex="1">
          <mxGeometry x="33" y="741" width="648" height="60" as="geometry" />
        </mxCell>
        <mxCell id="6_qTBxh7tRdVixuZlOHr-27" value="" style="strokeColor=#666666;html=1;labelPosition=right;align=left;spacingLeft=15;shadow=0;dashed=0;outlineConnect=0;shape=mxgraph.rack.dell.poweredge_r440;fontSize=67;" parent="6_qTBxh7tRdVixuZlOHr-7" vertex="1">
          <mxGeometry x="33" y="801" width="648" height="60" as="geometry" />
        </mxCell>
        <mxCell id="6_qTBxh7tRdVixuZlOHr-28" value="" style="strokeColor=#666666;html=1;labelPosition=right;align=left;spacingLeft=15;shadow=0;dashed=0;outlineConnect=0;shape=mxgraph.rackGeneral.plate;fillColor=#e8e8e8;fontSize=67;" parent="6_qTBxh7tRdVixuZlOHr-7" vertex="1">
          <mxGeometry x="33" y="861" width="648" height="60" as="geometry" />
        </mxCell>
        <mxCell id="6_qTBxh7tRdVixuZlOHr-29" value="" style="strokeColor=#666666;html=1;labelPosition=right;align=left;spacingLeft=15;shadow=0;dashed=0;outlineConnect=0;shape=mxgraph.rackGeneral.plate;fillColor=#e8e8e8;fontSize=67;" parent="6_qTBxh7tRdVixuZlOHr-7" vertex="1">
          <mxGeometry x="33" y="921" width="648" height="60" as="geometry" />
        </mxCell>
        <mxCell id="6_qTBxh7tRdVixuZlOHr-30" value="" style="strokeColor=#666666;html=1;labelPosition=right;align=left;spacingLeft=15;shadow=0;dashed=0;outlineConnect=0;shape=mxgraph.rack.dell.poweredge_r940;fontSize=67;" parent="6_qTBxh7tRdVixuZlOHr-7" vertex="1">
          <mxGeometry x="33" y="981" width="648" height="140" as="geometry" />
        </mxCell>
        <mxCell id="6_qTBxh7tRdVixuZlOHr-31" value="" style="strokeColor=#666666;html=1;labelPosition=right;align=left;spacingLeft=15;shadow=0;dashed=0;outlineConnect=0;shape=mxgraph.rackGeneral.plate;fillColor=#e8e8e8;fontSize=67;" parent="6_qTBxh7tRdVixuZlOHr-7" vertex="1">
          <mxGeometry x="33" y="1121" width="648" height="80" as="geometry" />
        </mxCell>
        <mxCell id="6_qTBxh7tRdVixuZlOHr-32" value="" style="strokeColor=#666666;html=1;labelPosition=right;align=left;spacingLeft=15;shadow=0;dashed=0;outlineConnect=0;shape=mxgraph.rackGeneral.plate;fillColor=#e8e8e8;fontSize=67;" parent="6_qTBxh7tRdVixuZlOHr-7" vertex="1">
          <mxGeometry x="33" y="1201" width="648" height="60" as="geometry" />
        </mxCell>
        <mxCell id="6_qTBxh7tRdVixuZlOHr-8" value="&lt;font color=&quot;#308aab&quot;&gt;Salle Serveur&lt;/font&gt;" style="text;html=1;strokeColor=none;fillColor=none;align=center;verticalAlign=middle;whiteSpace=wrap;rounded=0;fontSize=67;fontStyle=1" parent="1" vertex="1">
          <mxGeometry x="3042.5" y="350" width="465" height="90" as="geometry" />
        </mxCell>
        <mxCell id="zqYOxgQ22PQ1kl50evgv-54" value="" style="strokeColor=#666666;html=1;verticalLabelPosition=bottom;labelBackgroundColor=#ffffff;verticalAlign=top;outlineConnect=0;shadow=0;dashed=0;shape=mxgraph.rackGeneral.container;fillColor2=#f4f4f4;container=1;collapsible=0;childLayout=rack;allowGaps=1;marginLeft=33;marginRight=9;marginTop=21;marginBottom=22;textColor=#666666;numDisp=ascend;" vertex="1" parent="1">
          <mxGeometry x="615" y="-4222" width="1610" height="3100" as="geometry" />
        </mxCell>
        <mxCell id="zqYOxgQ22PQ1kl50evgv-55" value="" style="strokeColor=#666666;html=1;labelPosition=right;align=left;spacingLeft=15;shadow=0;dashed=0;outlineConnect=0;shape=mxgraph.rack.general.cat5e_enhanced_patch_panel_48_ports;" vertex="1" parent="zqYOxgQ22PQ1kl50evgv-54">
          <mxGeometry x="33" y="30" width="1568" height="270" as="geometry" />
        </mxCell>
        <mxCell id="zqYOxgQ22PQ1kl50evgv-56" value="" style="strokeColor=#666666;html=1;labelPosition=right;align=left;spacingLeft=15;shadow=0;dashed=0;outlineConnect=0;shape=mxgraph.rackGeneral.horCableDuct;" vertex="1" parent="zqYOxgQ22PQ1kl50evgv-54">
          <mxGeometry x="33" y="440" width="1568" height="20" as="geometry" />
        </mxCell>
        <mxCell id="zqYOxgQ22PQ1kl50evgv-57" value="" style="strokeColor=#666666;html=1;labelPosition=right;align=left;spacingLeft=15;shadow=0;dashed=0;outlineConnect=0;text;" vertex="1" parent="zqYOxgQ22PQ1kl50evgv-54">
          <mxGeometry x="33" y="460" width="1568" height="15" as="geometry" />
        </mxCell>
        <mxCell id="zqYOxgQ22PQ1kl50evgv-58" value="" style="strokeColor=#9673a6;html=1;labelPosition=right;align=left;spacingLeft=15;shadow=0;dashed=0;outlineConnect=0;shape=mxgraph.rackGeneral.horRoutingBank;fillColor=#e1d5e7;" vertex="1" parent="zqYOxgQ22PQ1kl50evgv-54">
          <mxGeometry x="33" y="475" width="1568" height="135" as="geometry" />
        </mxCell>
        <mxCell id="zqYOxgQ22PQ1kl50evgv-59" style="vsdxID=5;fillColor=none;gradientColor=none;image;aspect=fixed;image=data:image/png,iVBORw0KGgoAAAANSUhEUgAABpMAAACpCAIAAABI01LKAAAjUklEQVR4nO3df2wVZb748edsoN5WkKWiSxdWcLEs8mOBdou3oi6gQK7Nflsxa5Dj1xKBpMGGpoGYm8If/QNOjMGctAFCAhjx7kGCX3rb3dQbYPkhLvau2CpaQMvlQhEEK4JAaRVMzvePR8fxzDnTOXNm5jxzzvsVotOZeWY+M+fMQ+fD8yMQjUYFAAAAAAAAAMX8It0BAAAAAAAAAIhjkPxfIBBIbxwAAAAAAAAA9AZpS0WLVqQxDgAAAAAAAACajh2N9JYFAAAAAAAAVETmDgAAAAAAAFARmTsAAAAAAABARWTuAAAAAAAAABWRuQMAAAAAAABUROYOAAAAAAAAUBGZOwAAAAAAAEBFZO4AAAAAAAAAFQ2yuF/HjkZX4/BY0aIVSe2fYZcPAACKFq3g73cAAFyS7Es3gEQGztzJX2oz7KmzcVEZdgcAAAB/uQMA4BLtn8f42xZI0QCZu44djRn5mMmLytSrAwAAAAAgjbR37YxsDGRUGyx/dPrkghH5OYMH3br9/dkvvnz/+GfXb/Yv/3NZcbBmwOJN61cvWLXOfJ/2SIO2bOWYqZzrzdBLY3/9q5zBg3r7+o8cO1m3Ybu2aUnFvLJHSsYU3Csv89m6V4zFa4PlMyb97tf35A/Jy9WH+mbopfFjRgkhurovxC2IuKz2lgUAAGpqjyjX5bM4+NNv54SXLC08BWMThJcC/RcPDlL8s1Y5PAVjE4SXGkXDiwghRCCQyU3wZEKqt6//4AcfyyTXmqULn5gxfeSI4VaKh6orxxTcO+BuxcEaffLOHivn2rdpbf6woXJ5SF7u/NKi3Dtyal/dIoRYUjFvacX8nMGD/vL2gamFv51SOHbfprVzl6/RF29av3pMwb2XLl89cuxk+8n/iTnsfx5sE0I8NbvUWFATc5la7i/u5cutxk36jGF7pMHKQUxOnV5mmTuapAEAoDi1fjU3IDxA0x5pJHnnOMWfYsXDA7wUjf6QWMy8XrQyUdXb1//HZf+urVy7dacQorWhfsDkXai6cn5pkbshJnOu8MplQojQa7t27z+iNZH71ykT5NayR0pyBg8SQoQjLbXB8imFY/OHDd1c92JVaKPcQabn9rR16JvpyVPLbKC8M0/NLs0fNjRUXRmzm/h5ls24xiSVZlLKfE+Lp06jrG5zJ4emzpj6AgAAAAAAlcX0ohU+T+GtWbpQNmE7cuykcetrf91X98Iz2p5FE8bpu9M+W/eKzPrJHWRrL5knirtzzMGNrcO0NX95+8D1m/0LZj88csTwS5evNh18b/mfy7ov9sQ9V4xzl3o6T3fv3n9ECPFs3StyT5mtE0IUjMjX9gxHWp57co4Q4sH7fyPXvBl6KX/Y0KPHu4z5uAljRxvPFXcljH6R7gAAAIB3/vu/ky7S0yMOHBA9PS5EE+9ENnR1iWvXnI7GQIZ37lzSRTy4dUKIY8eSDu/cOZs33IaurqTPJb+rtr8VNs4lknlA9OF58xEjdTa+VNpXwoN6Rh+exWfZy++hPFdSVY0s4k1VI89lvarRbpoHlYz+A7JYycSE5+qHa+NW6KNK5dEoWrRC/unY0ejf2d6LJoyTC/puoZrd+4/I7Njmuhefml3a8enp0sUr//L2gZzBg8aPGdXaUK8fb644WGO+c8zBQ6/t6u3rl8uyC6os/pe3D4QjLTJtt+mt1qaD7z1fNkcIEfdcRuFIy7bmvTEruy/+8C3UUnh6Q/JyhRBLKubJBnrjRhe0Rxre2fKybL4n3f1j91s9fR7QRBpbvanQ4E6QuQMAIHt0dYntsf8COrCLF8UDD4jOThcC+rlvvhF33y2OHUuu1LVrIhz2InPX2Sny8sR99yVRpKVF5OW5FtDPTZ0qhBD/8i9JFNmzR+Tl2Unm2vDZZ2L06CTOpX1X/+M/xAMPuBukdi7rD4i2p2dPB1KnfWrWqxqtiAf1jHYu61WNVsSDqkY7l/WqRiviQVWjnct6VaM9vB5UMtq5rFcyWhEPKhntFNYfDa2IU4+GPn/nuxSe1opNNlJLpGTSeCHEA6MLhBDhSItcmagjrcWdd+8/0nyoTS6XTpkghAhVV3Z1X5BF5P6PTpu0rXmvtluyllTME0Lcuv195L8OyTVarlBu0ntixjS5MHf5mqPHu4bk5T5WNFlL3snsXoy4eUDZeFD+MW7VNpnsM6BEBzE/dRpldW9ZAACyyvjx4oEHki41darYskUsWzbwnikaP14cOCDuvju5Urt2iT/+UVy9mlxOzYYHHhDffisOHBBz5lgtcv26yM8XnZ1JFEnFzZvi3oGHt/7JyJHiq69cv2/SffeJjo4kwov5rvb1uRFU7LmsPyDanp49HUid/oO2WNVoRTyoZ7RzWa9qtCIeVDX6p8NiVaMV8aCq0c5lvarRHt4PPxTC5UpGX1FYrGT0RdyuZPTnsvhoaEW2bHHy0TD2ohU+70ir19V9YfyYUVdv9AohaoPlTu0cjrTIeTBGjhheGywvmVj49pGjctOly1dHjhguZ5DYufewvbZjMhl38IOPtbxkx6enHyuaLIQomVioNc27dPmqEOLX9/zUgO7oiVMy/6i1SUxKzHwR+uBNLsT65BJWNpl0KPaeA23uUkxGKpjOBAAAmi1bxLlzSTeFs+FvfxM9PSI3zr/Impk/351oDI4d+6E1h3XTp4uOjuSK2HbunLjnnqRL3byZ9A235+uvxY0bdhLH48eL996zU9Abnj0dcJCNqsazekZQ1aTGelWjPbweVDI2KgqtiAeVjHYK64+GVsSlR0PrReuLhngmbdD0nq17pThY0//drXe2vPzEjOnmx0xq57+//6FceGLG9CF5uVobvbKa+ivXbggh8ocNXVox3zy8uELVlePHjIqZa6L21S2HOzp7+/pLJo3XOvB2nbsgft6qTkvqaStv3f7eeIq4K/Vkr16LKSO5s8y1pZ5xS+rUbku1zZ28DNvTbShyFwAAyBIrVyZdxLP2RH/6k51S993nUasxG+F509ROsnEf7N1we+bMSfpuyO+qN0Fqz4X1B0TuSWs7f7HxpZJFvKlnbIfnTVVj41Z4/xRbr2q0h1f2/3WVvqKwWMmkJTzr59JfkduPhvrTWZw887lsXDZ53BiT3Z5+fGbV0/+WP2xoV/cFbdoHR3YOR1oqZpUOycsdOWJ4V/cF/aa5y9fIyWFzBg96vmyOcfQ6E6Hqytl/+P2mt1qNpWpf3SIXNte9OHLE8N6+frnm1u3vjb1ftdzcxctXtJ7FmouXrxhPnfp0rjLjZuMgiswka6TKOHek8AAAAAAAgJGyrfCqQhtlcupfp0yIu8OboZeEEC/8n7n5w4YKIYxTxBoltbPQTWt7/H9/mj6mPdJQGyx/tu6VT06dFQmGmUskVF1ZMrFwa/MeLW339OMzm9avjt1n0vhbt79/o/WHmU3OfvGlXND38NVWfnr2vPFEcVfCyMlx7rRuwPr+wFrOcsBOwjGDAoqfz2qsiVkZczoAAAAAAJCRFBwOb2vznqUV83MGD3pny8tHjp1sP/k/clS4UHXlzKkPyrSaNr/Ekop52kwOUm9fv0yrrVm6sGjCuAWr1pnsHFfdhu0zpz6YM3jw2q079eufnFly/Wb/ux8dn1I4Vg5FZzyX8Wib616UrQiX/7ls+Z/LtPWHO36YKiVUXTm18P6RI4ZfuXZj597DWnbv/+0/sur/LsgZPGjGpN/J5N2t29///f2PtCBLJhbmDxu6ZulCuebKtRv6frgaYyJIn+2JmyNKdJBEaaJEBzE/dRo5k7kzvx36+5Xo3qXef1jZZo0AAAAAAMBB+mxderN425r3fnPj5tyHpv3mV/fM/sPv55cW1b3wTG9f/xdfXWnc+TeZxdvT1jH7D7/PGTyo7JGSdz/svCNnsOw6+np97RutB54vmzMkL7d0yoSmg++Z7KzPmcQkQE6e+XzYkDtjAtu593DZIyVjCu69dPlqWU29EMJ4LiOZtjOSXWLbIw3y0to++TQmUbh7/5FfDr2z7JGS8WNGjR8zqvtiT+s/juo728reu0/NLhVCyI7AiW5potxOUpNOJJrXwjxxpGZaKRCNRoUQgUDA+P3u2NE44Jc+pnldot30ibmYG2FsXmdsc2dsx2flyFZYuUbruwEAAAAAgHRRpy2el97Z8nLzoTZtegpkko4djc60udOnexOl2wY8QrIniqFmZhQAAAAAAHhDnbZ4bnu9vnZK4djuiz0LVq3r7fuWtF0Gc3Kcu0Qs9i5OscMsvWUBALCiatbkzYc6Le4Zs8ZiQdvkGQnPnowJzxibxYKpSOW5EO6HBwdRB9pGeKmgDkyLzM7iTSkcK4QYU3BvqLry7+9/mO5w4CLnM3da9s1eGs48f0duDgCAVMT9hRtQyuZDnTFfVG/eCS2+uKYrPDiCOhDqow50SaIsnvBtIk8OhyeXaXCX2X7h+BH13WYdP3iKs1gAAABh+d015ndxb9ojCMKzJcPC85iaUcE9mfGYEJ5ehoXnMTWjclXRohX6Px07GvV/0h2dVXUbtpcuXlm6eGXcGVqRSZzP3OmZz+4hEqT57KX8aI4HAIC5LPzVHD6lf4v2sjWHjXd+vzQ2gaAOhH9QB3osMxJ5yGCpzi3rd8wtCwDIHva6tyQ1cpBttoccIjyRoeFppTwOL9mRnjLjrTVLUAfaRnipoA70O2PyjuQAvJTq3LIKpp95hAAAiIvGJvAXOZSS9++ESY30lA2vrBmDOhD+Qh2ojriNnAbcB3BQSm3uMiBzR5s7AACAbJZKa50seWsFkMGoAx2RKDdCGgGpS7XNHQAAAOBrtt88eWUFkAGoAx2RKEM3YGsnUnuwgswdAAAAAACAwwZMzCnYkRHusZ2oJXMHAAAAAADgNdrcZY9UsrS/cDAOAAAAAAAAAE4hcwcAAAAAAACoyMXMXTQalRPXKng0AAAAAAAAQHGMcwcAgI+tWbpw7dad4ZXLal/d0h5pSHc4AH5SHKxJdwjZhToQUAp1IOAUessCAOBjFy9f2bdpbe4dObyyAqqJeSrDK5fpF9YsXahfCXPyRi2pmLe57kUR7+5RBwKq0T+V8uFdUjHP5CkGkAht7gAA8LFtzXufL5tz5Xqv9SKBQMDeuTwYtoLY7LEdm3A/vIyMzUZga5YuLJowTr8g0+6nz1+0F0NW0W5awYj8K9d7Q9WVp89ftH33MvJZJjbbZZWtZ4TCsdkIbNzogs+6z5dMLDzf83XqT3FGao/Yn3jUM8VBV2bCzeZrt8iVNncxT3IqNU7M8HaMdgcAgF7T+tVvtB4omViY7kAAmFm7dWdv37f6hW3Ne3MGD0oq7Z619Hcv/64hgrsH+E3dhu2PTp9cFdrIUwzY4FabOy2/RqINAAD3LFi1TgixrXkvPcUAf5Fp94XzHkt3IH7yen3tHTmDz/d8zd0D/KVp/eqhebmh6spfj8jnKQaSRW9ZAAAAwHVlNfX6BS3tnr6I/ETetMX1Yf1K7h7gF7LGM+IpBqxwOHMXjUYT9ZaXje+s96U3aayX7KEAAMg8NLID1BfznDLTooOoAwH1UQfaoFqew8telNl87eaczNzRMRYAADU58s9dMQdx6u99YnPksI4ch9hsHIRfgH0h459lYnPkOMRm4yDUgW6wfVe1j8bBzyUQCHj5IWfztZtwZoaKpCaOGHBPBw8FAAAASG702KAXCAC/oA4EfMrrce4s5tqSSt5RWQAAAAAAgEwyYK7DeuYkqbSJCm2ksvnajVJtc5dUa7uYghZXuhcDAAAAAAAAoKz0zC2rJdrIuAEAAAAAAABxpSdzBwAAXOLZIBLGEw34D3JpjE0MFB6xJToRsQ3IxrMA96j8ufO8JDoRsQ3IX7FRBzrFwTvpuw8lm6/dKKXMXdGiFcZ5nbWVcgZouWy+pyMrixatsHkZAAAAAAAAakgx8epI3taRhFfVrMlCiM2HOq0XyZhrd5CLbe6MuTYAAAAAAABkNpmzgyPoLQsAAAAAAAAHkLNzXKpzywIAAAAAAABwA5k7AAAAAAAAOGDzoc6kBrbDgMjcAQAAAAAAwDHk7xzEOHcAAAAAAABwGMk7R9DmDgCAbKHNcG9cMN8adzdFYku00tXYzENSObYBt2ZJbMlSJAykiDrQqdjMQ1I5tgG3ZklsyVIkDCBrkbkDAABAdrGdo/EggwMAbqMOBPyFzB0AAAAAAACgIjJ3AAAAAAAAgIrI3AEAAAAAAPiSSc9luSmDuzZnybWTuQMAAAAAAPAZ48iDJtObeJPDqpo1uWrWZA9OpOC1u4fMHQAAAAAAAJzhWf4uS5C5AwAAAAAAgJPI3zmFzB0AAAAAAACgokGuHr1jR2PMmqJFK4y7haorZ059cEhebm9ff/OhtidmTP/7+x+GIy21wfInZkw/duqMfutzT87Rly0O1rh4AQAAAAAAAEjS5kOd6Q4hQ7jV5q5jR6MxbZdo/fzSojdaDxQHa5oPtT0z97HX/rqvYlapEKJiVulrf90Xs7U4WCOzddoCAACwIhAIJFow3xp3N0ViS7TS1djMQ1I5tgG3ZltsSW0SCaKFX1AHOhWbeUgqxzbg1myLLalNIkG0gNHmQ52k7Rzkbpu7RDp2NOob3x093rVg9sMlEwuPnjhVunilEGLuQ9Pe2fLyyTOf795/ZO5D02K2AgAAAKkzfz12++UZANKLOhCOI2HnBiXGuasKbSyrqf+s+3zJxMKm9avlmiF5uVWhjXG3AgAAAAAAZDOZVDX+13xTZsiqa3crcxd3PLtEW9tef7U2WB6OtBw9capgRH7MzuZbAQAAAAAAgIzkYm9ZmZ7Tj2qXKJ23a9/hilmlzz05p7ev/+AHHye1FQAAAAAAAMhIro9zZ974TgpHWsKRlpiV2uwT5lsBAAAAAACAjKTEOHcAAAAAAAAAYpC5AwAAAAAAAFTkem9ZAADgpWg0mu4QEiI2e4jNHpVjg3tU/tyJzR5is0fl2AAkRZXMXXukQS50dV94tu4Vbc0np84urg+HqitnTn1wSF5ub19/86E247B3AAAAAAAAQIZxPXNnZW5ZSU46oaXw5Br54/zSok1vtW5r3lsbLH9m7mNk7gAAAAAAQDZLtmVlIBBwKRLvZdW1u5i50+fsYtbETeHJJF1X9wXjpqPHuxbMfrhkYuHRE6dKF690OlIAAAAAAAA/8XU2KkVZde1uzVBhTNsNuLU4WHP0eNeZL77U1rRHGj45dVYIURXaWFZT/1n3+ZKJhU3rVzsdLAAAAAAAgBKiFrh35FSOn7psvvZEXGlzZ562M1EV2vjOlpe1H2X/WSFE2+uv7tp3OBxpWVIxb2nFfAdCBAAAAAAA8K1NmzYltf/y5ctdisR7WXXtrrS5Mx/PznyHL766EqqujFm5a9/hilml7ZGG58vmHPzgYwdCBAAAAAAAUEzAGlcPnuJZbMvmazfh1jh3MjcXt/Fd3LSd1rxOTiyrXyOECEdamJUCAAAAAABktgHbQkkdOxpttCOzeHD9WZI9RSqy+dpNuDu3bLL3BQAAAAAAAOayOd+Sbdfu1gwVAAAAAAAAAFLhbps7i5ZUzCt7pGTBqnVyecHsh8tq6uWmpvWrI/91aPf+I0KIN0MvfXfr9l1D8lr/cfTRaZPuGT5M7vPV1WvvfnR8weyH5Y+ff/lVVWhjGi4DAAAAAAAAcI7rmbuYjsFx2zTedWfu0LzcJRXztjXvfXTapPxhQ+X6NUsXXu/tm/vQtN37j4RXLjvzxZd1G7YLIZrWr5ZpvtaGepnjqw2Wawm7pvWr5aFcvjIAAAAAAADARS5m7uIO5idXGvN3nae7H502aVvz3nuGD7ty7YZcOem39z1b90prQ70Q4tylnidmTA+vXNZ5ulum7WIMG3JnbbBcLn9z46Zz1wEAAAAAAACkgVvj3JnPwWHceu5Sz11D8pZUzPvq6jVt5Yhf3lUbLL9+sy9UXRmOtJTV1Pd/d+uJGdNer681HvOuO/N+N2b0EzOmd3x6WvauBQAAAAAAAPxLiXHupOu9fY9Om6SNWBdeuez0+YtCiOP/e650ygTZ2k72lpWt8GJovWX3bVq71tPAAQBQSyAQSOPZo9GoyVZiS8S/sYm0hufr+waXqPy5E1si/o1NUAcmQB2YLuGVy2pf3ZLuKNJjScW8komFR0+cyrDx09Izt2zc0e7e/ej4/aN+pd3f8feNqgptDEda1m7d+d3t2//46MTCeY+9Xl/b2lB/7NQZk4Nf6Pla6zYLAAAAAACQDdYsXVg0YVy6o0ibcaMLPus+XzKxMN2BOMytNncyN2fsFRs3ZxeOtMgFmbaTk05o08sKIeTAdsY+sNo+2hGEEIvrwykEDgAAAAAA4D9rt+4snTIh3VGkTd2G7dqMppnE3d6ycfN0AAAAAAAAgIOa1q8empcbqq6UI61lDIXGuQMAAAAAAIBt+v6L2SbzWttJ6RnnDgAApJc2brS9BQVDIjZ1QvJFbMhyCn45M7ieITZ1QgLgRy62uTMOcicZu9CGqitnTn1wSF5ub19/86G2556co99aHKwJVVfOLy3a09ZRt2F7e6QhZquzYQMAkMGi0Wh6Z5qDalT+SrgXm/7I2rK9BfgLHxx8hDoQgORW5i5R2k7bpM/fzS8t2vRW67bmvbXB8mfmPiaTce2RBi0rN2Hs6EuXr04YO1r8mKrTbwUAAAAAAAAyjyu9ZU3SdnEdPd61YPbDm+tevH6zv3TxSuMOBSPyX/vrvoIR+Q4FCAAAAAAAAKjOlcxdslPKVoU2ltXUf9Z9vmRiYdP61TFba4PlOYMH1b3wTM7gQbXBcufCBAAAAAAAANTl1gwVJsm7okUrYra2vf5qbbA8HGk5euKUsWHd1MLfHu7oLA7WHO7onFr4W1fCBQAAAAAAABTj4gwV1lve7dp3uGJW6XNPzunt6z/4wccxW+8f9au/7XxfCPGPj06sWPgnh6MEAAAAAAAAlORi5s66cKQlHGmJWalNQPHHZf8uF3bvP7J7/5GYrQAAAAAAAEBGcqu3LAAAAAAAAIBUkLkDAAAAAAAAVOR6b9mOHY3assnId+2RBrmwp62jbsN2uUZ2idUvCCE+OXV2cX1Yv75p/eqOT0+v3bpzzdKFRRPGLVi1zsXrAQDAzwKBgCMLxEZsvo5Nf2TVYoOrlP1OEhuxUQdCo8+ipF00GhXCu487m6/dhItt7jp2NMbcdLkm0SdRHKzZ09Yxv7TI5JjFwZophWNjVi5YtW7uQ9Oefnzm3IemkbYDAAAAAAB+FNVRIYy0nDQLr92cW5k780Rpoq2ytZ0N+/75Ud0Lz+z750f2igMAAAAAACgimxs2ZvO1x+VK5s699o3tkYZPTp116eAAAAAAAABwRNWsyVWzJqc7Ct9zZZy7okUrzJN3iQa8C1VXasu3bn+/pGKeXNBWyoHtjOY+NC302q4VC/+0dutOOxEDAAAAAADACSTsHOTWDBUyN2fM3w04ScWetg7548EPPl5aMV8umBfpvtiz758f7d5/5MH7f9O0fjVD3QEAAAAAAHiPnJ3j3J1b1iRPF8PYmM445l3MPsYiNLgDAAAAAABAxnBxblkAAAAAAABkj82HOtMdQqYhcwcAAAAAAABnbD7USf7OQe72lgUAAAAAAEC2IXnnFCUyd6HqyplTHxySl9vb1998qC0caZFTT3xy6uzi+rD4cSYKqThYk+jHPW0dxtHxAADINtFoNBAIpOvUA+5AbDaoHBugGuqZRKcecAdl6xmVYwO8pz0RVhYyTHZeu7uZO+PcsiLetBXzS4s2vdW6rXlvbbD8mbmPhSMtIl6GTl/E+GOounJ+aRGZOwAARLw3NDd+gxnwPdBiKWKzV4rY7BVRJDa4StnvZNxSxGavFLHZK6JIbPBMNiS2EsmYa3crcxc3Z6dtikneHT3etWD2wyUTC4+eOFW6eGXcUloWT+bsYn4UQtRt2D6/tCj1yAEAAAAAAAAVuJK5M0nbaTvok3dVoY1CiNpgecnEwrJHShasWieEaI80fHLqrLaPeZs7AAAAAAAAIMO4MressT+subbXX60NlocjLUdPnCoYkS9XFgdr5CB3FoWqK5M6KQAAAAAAAKAyt3rLFi1aYdLyLia1t2vf4YpZpc89Oae3r//gBx/HLWLeW1b+uKetw4nYAQDwgZjm5/rBYQEogm4i7qEOBNRHHZiFqmZNFswq6zQXZ6jQ0nMyhWfSEC8caZGzUmgGnI/C5EcAAGCkHz3a9tC8Lg1B7Uhswp3wYo6p1K0jttSPqVRgcJXKnzt1oCPHJDYbx1QqMGQS8nfOcqW3bIyiRSuS7T8LAAAAZIzwymVCiCUV8zbXvbikYt6apQu1lQCQ8bTaTwixZunCpx+fSTWYDapmTZYpPKTIi8wdAABwFu//gI+sWbqwaMI4IcS40QWfdZ8vmVh48fKVfZvW5t6Rk+7QfEOr5XjnB/xIq/2efnzm3Iem3TdyBNVg9iB5lzoydwAA+A/v/4CPrN26s7fvWyFE3Ybtj06fXBXauK15b87gQVeu96Y7NH/QUp+88wM+pdV+wX+b9cVXV+4Z/kuqwSyx+VAnfWZTR+YOAAD/SfH9X+XhaWzHlpEXhQzTtH710LzcUHVl0/rVb7QeKJlYmO6I/EFLfTr1zq/yI0kdiIyk1X7vftipraEatE0boDDFBVe5lLPzxbU7zsUZKgAAgEu034AnjB39RuuBhfMeS/YIKr9HEZs9xGaDZ4GV1dQLIRasWqdfua15rzdnzxjvftg5Y9LvxI/v/DaqPo2y30lBbHYRmw2eBRZT+2moBjMPLezcQOYOAAD/4f0fQFaRqc9wpEW/Ul/1FQdrPA4JAABv0FsWAAAAAAAAUBGZOwAAAAAAAEBFZO4AAAAAAAAAFZG5AwAAAAAAAFTEDBUAAAAAAAAKiTvzbyAQ8OZE6ZXN1x4Xbe4AAAAAAAAAFZG5AwAgM7VHGm2vTKVsisGkUpYLcSOYVMqmK5hUTuH4zbcYIRzHE5di2RSDSaUsF5JiMKmcgjoQUJA/MnejbpxJ5U+6wwcAwHXq/GacYiRciOOUupBUjma9rDo3H55R50NX6olLBRfiSHEHUQcCWcsHmbvUU28k7wAAAAAAAOA7qmfunEq6kbwDAAAAAACAvzC3LAAAAAAAgOr0c6GmMteqX+ZU1cvma1e6zR0N5QAAAAAAAJC1fNbm7sLQ+63vHJP4G3XjTFLFAQAAAAAAgDRSus0dAAAAAAAAkLUca3PXHmkQQhQHa7QFIUTT+tVjCu4VQnR1X3i27hVtNyFEb1//G60HtjXv1dZopQAAAAAAAJCIH8drc0q2XbvDbe6efnymtty0fvV3t24XB2tkPu7N0EtyvVxz8sznZY+U6NeQtgMAAAAAAFksoN4frj3NnMzcXbp8de5D0y5dvip/HFNwr2xnJ4R4tu6V8WNG6XeuCm2UzfGEEO2RBvnHwWAAAAAAAAAAX3Nyhorvbt9+8P7ffH3tRrIFaW0HAAAAAAAAxHCyzV3PlW+G5OX2XPlG/th9sUfrIftm6KXuiz36ncMrl2mt8wAAAAAAAADECMiB/QKBQNGiFTHbOnY0Glcm0h5p+M+DbU/NLpX/HXCGiivXbuzce9h8hopRN87EnOXC0PutX5uV4havMalbAQAAAAAAYFF7pDHdIQysOOhKViRLrt12WqljR6NjvWVl0m3t1p3af4UQC1ati7ub+RoAAAAAAAAowqW0nS+k/dqdHOfOA8ZmdAAAAAAAAP6V9txQGmXztVvk5Dh3ikuqpy0AAAAAAACQXkpn7si1AQAAAAAAIGspnbkDAAAAAAAAspbqmTunmt3RfA8AAAAAAAD+onrmTjiRdEt0BNuT8gIAAAAAAABuM5tbtmjRCkVyW7SYAwAAAAAAQLbxQZs7AAAAAAAAIAuZtbkTPza7kwuexOMFeUUiyYvSSgEAAAAAAAAeGCBzJ35Mb2VS3spGFjKTEpcAAAAAAADwhYEzdxKpKwAAAAAAAMBLjHMHAAAAAAAAqIjMHQAAAAAAAKAiMncAAAAAAACAisjcAQAAAAAAACoicwcAAAAAAAAoKRqNRqPRdEcBAAAAAAAA4CfRaPT/A7mDkVkNlqG2AAAAAElFTkSuQmCC;strokeColor=none;labelBackgroundColor=none;rounded=0;html=1;whiteSpace=wrap;" vertex="1" parent="zqYOxgQ22PQ1kl50evgv-54">
          <mxGeometry x="33" y="610" width="1568" height="190" as="geometry" />
        </mxCell>
        <mxCell id="zqYOxgQ22PQ1kl50evgv-60" value="" style="strokeColor=#9673a6;html=1;labelPosition=right;align=left;spacingLeft=15;shadow=0;dashed=0;outlineConnect=0;shape=mxgraph.rackGeneral.horRoutingBank;fillColor=#e1d5e7;" vertex="1" parent="zqYOxgQ22PQ1kl50evgv-54">
          <mxGeometry x="33" y="800" width="1568" height="135" as="geometry" />
        </mxCell>
        <mxCell id="zqYOxgQ22PQ1kl50evgv-61" value="" style="strokeColor=#9673a6;html=1;labelPosition=right;align=left;spacingLeft=15;shadow=0;dashed=0;outlineConnect=0;shape=mxgraph.rackGeneral.horRoutingBank;fillColor=#e1d5e7;" vertex="1" parent="zqYOxgQ22PQ1kl50evgv-54">
          <mxGeometry x="33" y="935" width="1568" height="135" as="geometry" />
        </mxCell>
        <mxCell id="zqYOxgQ22PQ1kl50evgv-62" style="vsdxID=5;fillColor=none;gradientColor=none;image;aspect=fixed;image=data:image/png,iVBORw0KGgoAAAANSUhEUgAABpMAAACpCAIAAABI01LKAAAjUklEQVR4nO3df2wVZb748edsoN5WkKWiSxdWcLEs8mOBdou3oi6gQK7Nflsxa5Dj1xKBpMGGpoGYm8If/QNOjMGctAFCAhjx7kGCX3rb3dQbYPkhLvau2CpaQMvlQhEEK4JAaRVMzvePR8fxzDnTOXNm5jxzzvsVotOZeWY+M+fMQ+fD8yMQjUYFAAAAAAAAAMX8It0BAAAAAAAAAIhjkPxfIBBIbxwAAAAAAAAA9AZpS0WLVqQxDgAAAAAAAACajh2N9JYFAAAAAAAAVETmDgAAAAAAAFARmTsAAAAAAABARWTuAAAAAAAAABWRuQMAAAAAAABUROYOAAAAAAAAUBGZOwAAAAAAAEBFZO4AAAAAAAAAFQ2yuF/HjkZX4/BY0aIVSe2fYZcPAACKFq3g73cAAFyS7Es3gEQGztzJX2oz7KmzcVEZdgcAAAB/uQMA4BLtn8f42xZI0QCZu44djRn5mMmLytSrAwAAAAAgjbR37YxsDGRUGyx/dPrkghH5OYMH3br9/dkvvnz/+GfXb/Yv/3NZcbBmwOJN61cvWLXOfJ/2SIO2bOWYqZzrzdBLY3/9q5zBg3r7+o8cO1m3Ybu2aUnFvLJHSsYU3Csv89m6V4zFa4PlMyb97tf35A/Jy9WH+mbopfFjRgkhurovxC2IuKz2lgUAAGpqjyjX5bM4+NNv54SXLC08BWMThJcC/RcPDlL8s1Y5PAVjE4SXGkXDiwghRCCQyU3wZEKqt6//4AcfyyTXmqULn5gxfeSI4VaKh6orxxTcO+BuxcEaffLOHivn2rdpbf6woXJ5SF7u/NKi3Dtyal/dIoRYUjFvacX8nMGD/vL2gamFv51SOHbfprVzl6/RF29av3pMwb2XLl89cuxk+8n/iTnsfx5sE0I8NbvUWFATc5la7i/u5cutxk36jGF7pMHKQUxOnV5mmTuapAEAoDi1fjU3IDxA0x5pJHnnOMWfYsXDA7wUjf6QWMy8XrQyUdXb1//HZf+urVy7dacQorWhfsDkXai6cn5pkbshJnOu8MplQojQa7t27z+iNZH71ykT5NayR0pyBg8SQoQjLbXB8imFY/OHDd1c92JVaKPcQabn9rR16JvpyVPLbKC8M0/NLs0fNjRUXRmzm/h5ls24xiSVZlLKfE+Lp06jrG5zJ4emzpj6AgAAAAAAlcX0ohU+T+GtWbpQNmE7cuykcetrf91X98Iz2p5FE8bpu9M+W/eKzPrJHWRrL5knirtzzMGNrcO0NX95+8D1m/0LZj88csTwS5evNh18b/mfy7ov9sQ9V4xzl3o6T3fv3n9ECPFs3StyT5mtE0IUjMjX9gxHWp57co4Q4sH7fyPXvBl6KX/Y0KPHu4z5uAljRxvPFXcljH6R7gAAAIB3/vu/ky7S0yMOHBA9PS5EE+9ENnR1iWvXnI7GQIZ37lzSRTy4dUKIY8eSDu/cOZs33IaurqTPJb+rtr8VNs4lknlA9OF58xEjdTa+VNpXwoN6Rh+exWfZy++hPFdSVY0s4k1VI89lvarRbpoHlYz+A7JYycSE5+qHa+NW6KNK5dEoWrRC/unY0ejf2d6LJoyTC/puoZrd+4/I7Njmuhefml3a8enp0sUr//L2gZzBg8aPGdXaUK8fb644WGO+c8zBQ6/t6u3rl8uyC6os/pe3D4QjLTJtt+mt1qaD7z1fNkcIEfdcRuFIy7bmvTEruy/+8C3UUnh6Q/JyhRBLKubJBnrjRhe0Rxre2fKybL4n3f1j91s9fR7QRBpbvanQ4E6QuQMAIHt0dYntsf8COrCLF8UDD4jOThcC+rlvvhF33y2OHUuu1LVrIhz2InPX2Sny8sR99yVRpKVF5OW5FtDPTZ0qhBD/8i9JFNmzR+Tl2Unm2vDZZ2L06CTOpX1X/+M/xAMPuBukdi7rD4i2p2dPB1KnfWrWqxqtiAf1jHYu61WNVsSDqkY7l/WqRiviQVWjnct6VaM9vB5UMtq5rFcyWhEPKhntFNYfDa2IU4+GPn/nuxSe1opNNlJLpGTSeCHEA6MLhBDhSItcmagjrcWdd+8/0nyoTS6XTpkghAhVV3Z1X5BF5P6PTpu0rXmvtluyllTME0Lcuv195L8OyTVarlBu0ntixjS5MHf5mqPHu4bk5T5WNFlL3snsXoy4eUDZeFD+MW7VNpnsM6BEBzE/dRpldW9ZAACyyvjx4oEHki41darYskUsWzbwnikaP14cOCDuvju5Urt2iT/+UVy9mlxOzYYHHhDffisOHBBz5lgtcv26yM8XnZ1JFEnFzZvi3oGHt/7JyJHiq69cv2/SffeJjo4kwov5rvb1uRFU7LmsPyDanp49HUid/oO2WNVoRTyoZ7RzWa9qtCIeVDX6p8NiVaMV8aCq0c5lvarRHt4PPxTC5UpGX1FYrGT0RdyuZPTnsvhoaEW2bHHy0TD2ohU+70ir19V9YfyYUVdv9AohaoPlTu0cjrTIeTBGjhheGywvmVj49pGjctOly1dHjhguZ5DYufewvbZjMhl38IOPtbxkx6enHyuaLIQomVioNc27dPmqEOLX9/zUgO7oiVMy/6i1SUxKzHwR+uBNLsT65BJWNpl0KPaeA23uUkxGKpjOBAAAmi1bxLlzSTeFs+FvfxM9PSI3zr/Impk/351oDI4d+6E1h3XTp4uOjuSK2HbunLjnnqRL3byZ9A235+uvxY0bdhLH48eL996zU9Abnj0dcJCNqsazekZQ1aTGelWjPbweVDI2KgqtiAeVjHYK64+GVsSlR0PrReuLhngmbdD0nq17pThY0//drXe2vPzEjOnmx0xq57+//6FceGLG9CF5uVobvbKa+ivXbggh8ocNXVox3zy8uELVlePHjIqZa6L21S2HOzp7+/pLJo3XOvB2nbsgft6qTkvqaStv3f7eeIq4K/Vkr16LKSO5s8y1pZ5xS+rUbku1zZ28DNvTbShyFwAAyBIrVyZdxLP2RH/6k51S993nUasxG+F509ROsnEf7N1we+bMSfpuyO+qN0Fqz4X1B0TuSWs7f7HxpZJFvKlnbIfnTVVj41Z4/xRbr2q0h1f2/3WVvqKwWMmkJTzr59JfkduPhvrTWZw887lsXDZ53BiT3Z5+fGbV0/+WP2xoV/cFbdoHR3YOR1oqZpUOycsdOWJ4V/cF/aa5y9fIyWFzBg96vmyOcfQ6E6Hqytl/+P2mt1qNpWpf3SIXNte9OHLE8N6+frnm1u3vjb1ftdzcxctXtJ7FmouXrxhPnfp0rjLjZuMgiswka6TKOHek8AAAAAAAgJGyrfCqQhtlcupfp0yIu8OboZeEEC/8n7n5w4YKIYxTxBoltbPQTWt7/H9/mj6mPdJQGyx/tu6VT06dFQmGmUskVF1ZMrFwa/MeLW339OMzm9avjt1n0vhbt79/o/WHmU3OfvGlXND38NVWfnr2vPFEcVfCyMlx7rRuwPr+wFrOcsBOwjGDAoqfz2qsiVkZczoAAAAAAJCRFBwOb2vznqUV83MGD3pny8tHjp1sP/k/clS4UHXlzKkPyrSaNr/Ekop52kwOUm9fv0yrrVm6sGjCuAWr1pnsHFfdhu0zpz6YM3jw2q079eufnFly/Wb/ux8dn1I4Vg5FZzyX8Wib616UrQiX/7ls+Z/LtPWHO36YKiVUXTm18P6RI4ZfuXZj597DWnbv/+0/sur/LsgZPGjGpN/J5N2t29///f2PtCBLJhbmDxu6ZulCuebKtRv6frgaYyJIn+2JmyNKdJBEaaJEBzE/dRo5k7kzvx36+5Xo3qXef1jZZo0AAAAAAMBB+mxderN425r3fnPj5tyHpv3mV/fM/sPv55cW1b3wTG9f/xdfXWnc+TeZxdvT1jH7D7/PGTyo7JGSdz/svCNnsOw6+np97RutB54vmzMkL7d0yoSmg++Z7KzPmcQkQE6e+XzYkDtjAtu593DZIyVjCu69dPlqWU29EMJ4LiOZtjOSXWLbIw3y0to++TQmUbh7/5FfDr2z7JGS8WNGjR8zqvtiT+s/juo728reu0/NLhVCyI7AiW5potxOUpNOJJrXwjxxpGZaKRCNRoUQgUDA+P3u2NE44Jc+pnldot30ibmYG2FsXmdsc2dsx2flyFZYuUbruwEAAAAAgHRRpy2el97Z8nLzoTZtegpkko4djc60udOnexOl2wY8QrIniqFmZhQAAAAAAHhDnbZ4bnu9vnZK4djuiz0LVq3r7fuWtF0Gc3Kcu0Qs9i5OscMsvWUBALCiatbkzYc6Le4Zs8ZiQdvkGQnPnowJzxibxYKpSOW5EO6HBwdRB9pGeKmgDkyLzM7iTSkcK4QYU3BvqLry7+9/mO5w4CLnM3da9s1eGs48f0duDgCAVMT9hRtQyuZDnTFfVG/eCS2+uKYrPDiCOhDqow50SaIsnvBtIk8OhyeXaXCX2X7h+BH13WYdP3iKs1gAAABh+d015ndxb9ojCMKzJcPC85iaUcE9mfGYEJ5ehoXnMTWjclXRohX6Px07GvV/0h2dVXUbtpcuXlm6eGXcGVqRSZzP3OmZz+4hEqT57KX8aI4HAIC5LPzVHD6lf4v2sjWHjXd+vzQ2gaAOhH9QB3osMxJ5yGCpzi3rd8wtCwDIHva6tyQ1cpBttoccIjyRoeFppTwOL9mRnjLjrTVLUAfaRnipoA70O2PyjuQAvJTq3LIKpp95hAAAiIvGJvAXOZSS9++ESY30lA2vrBmDOhD+Qh2ojriNnAbcB3BQSm3uMiBzR5s7AACAbJZKa50seWsFkMGoAx2RKDdCGgGpS7XNHQAAAOBrtt88eWUFkAGoAx2RKEM3YGsnUnuwgswdAAAAAACAwwZMzCnYkRHusZ2oJXMHAAAAAADgNdrcZY9UsrS/cDAOAAAAAAAAAE4hcwcAAAAAAACoyMXMXTQalRPXKng0AAAAAAAAQHGMcwcAgI+tWbpw7dad4ZXLal/d0h5pSHc4AH5SHKxJdwjZhToQUAp1IOAUessCAOBjFy9f2bdpbe4dObyyAqqJeSrDK5fpF9YsXahfCXPyRi2pmLe57kUR7+5RBwKq0T+V8uFdUjHP5CkGkAht7gAA8LFtzXufL5tz5Xqv9SKBQMDeuTwYtoLY7LEdm3A/vIyMzUZga5YuLJowTr8g0+6nz1+0F0NW0W5awYj8K9d7Q9WVp89ftH33MvJZJjbbZZWtZ4TCsdkIbNzogs+6z5dMLDzf83XqT3FGao/Yn3jUM8VBV2bCzeZrt8iVNncxT3IqNU7M8HaMdgcAgF7T+tVvtB4omViY7kAAmFm7dWdv37f6hW3Ne3MGD0oq7Z619Hcv/64hgrsH+E3dhu2PTp9cFdrIUwzY4FabOy2/RqINAAD3LFi1TgixrXkvPcUAf5Fp94XzHkt3IH7yen3tHTmDz/d8zd0D/KVp/eqhebmh6spfj8jnKQaSRW9ZAAAAwHVlNfX6BS3tnr6I/ETetMX1Yf1K7h7gF7LGM+IpBqxwOHMXjUYT9ZaXje+s96U3aayX7KEAAMg8NLID1BfznDLTooOoAwH1UQfaoFqew8telNl87eaczNzRMRYAADU58s9dMQdx6u99YnPksI4ch9hsHIRfgH0h459lYnPkOMRm4yDUgW6wfVe1j8bBzyUQCHj5IWfztZtwZoaKpCaOGHBPBw8FAAAASG702KAXCAC/oA4EfMrrce4s5tqSSt5RWQAAAAAAgEwyYK7DeuYkqbSJCm2ksvnajVJtc5dUa7uYghZXuhcDAAAAAAAAoKz0zC2rJdrIuAEAAAAAAABxpSdzBwAAXOLZIBLGEw34D3JpjE0MFB6xJToRsQ3IxrMA96j8ufO8JDoRsQ3IX7FRBzrFwTvpuw8lm6/dKKXMXdGiFcZ5nbWVcgZouWy+pyMrixatsHkZAAAAAAAAakgx8epI3taRhFfVrMlCiM2HOq0XyZhrd5CLbe6MuTYAAAAAAABkNpmzgyPoLQsAAAAAAAAHkLNzXKpzywIAAAAAAABwA5k7AAAAAAAAOGDzoc6kBrbDgMjcAQAAAAAAwDHk7xzEOHcAAAAAAABwGMk7R9DmDgCAbKHNcG9cMN8adzdFYku00tXYzENSObYBt2ZJbMlSJAykiDrQqdjMQ1I5tgG3ZklsyVIkDCBrkbkDAABAdrGdo/EggwMAbqMOBPyFzB0AAAAAAACgIjJ3AAAAAAAAgIrI3AEAAAAAAPiSSc9luSmDuzZnybWTuQMAAAAAAPAZ48iDJtObeJPDqpo1uWrWZA9OpOC1u4fMHQAAAAAAAJzhWf4uS5C5AwAAAAAAgJPI3zmFzB0AAAAAAACgokGuHr1jR2PMmqJFK4y7haorZ059cEhebm9ff/OhtidmTP/7+x+GIy21wfInZkw/duqMfutzT87Rly0O1rh4AQAAAAAAAEjS5kOd6Q4hQ7jV5q5jR6MxbZdo/fzSojdaDxQHa5oPtT0z97HX/rqvYlapEKJiVulrf90Xs7U4WCOzddoCAACwIhAIJFow3xp3N0ViS7TS1djMQ1I5tgG3ZltsSW0SCaKFX1AHOhWbeUgqxzbg1myLLalNIkG0gNHmQ52k7Rzkbpu7RDp2NOob3x093rVg9sMlEwuPnjhVunilEGLuQ9Pe2fLyyTOf795/ZO5D02K2AgAAAKkzfz12++UZANKLOhCOI2HnBiXGuasKbSyrqf+s+3zJxMKm9avlmiF5uVWhjXG3AgAAAAAAZDOZVDX+13xTZsiqa3crcxd3PLtEW9tef7U2WB6OtBw9capgRH7MzuZbAQAAAAAAgIzkYm9ZmZ7Tj2qXKJ23a9/hilmlzz05p7ev/+AHHye1FQAAAAAAAMhIro9zZ974TgpHWsKRlpiV2uwT5lsBAAAAAACAjKTEOHcAAAAAAAAAYpC5AwAAAAAAAFTkem9ZAADgpWg0mu4QEiI2e4jNHpVjg3tU/tyJzR5is0fl2AAkRZXMXXukQS50dV94tu4Vbc0np84urg+HqitnTn1wSF5ub19/86E247B3AAAAAAAAQIZxPXNnZW5ZSU46oaXw5Br54/zSok1vtW5r3lsbLH9m7mNk7gAAAAAAQDZLtmVlIBBwKRLvZdW1u5i50+fsYtbETeHJJF1X9wXjpqPHuxbMfrhkYuHRE6dKF690OlIAAAAAAAA/8XU2KkVZde1uzVBhTNsNuLU4WHP0eNeZL77U1rRHGj45dVYIURXaWFZT/1n3+ZKJhU3rVzsdLAAAAAAAgBKiFrh35FSOn7psvvZEXGlzZ562M1EV2vjOlpe1H2X/WSFE2+uv7tp3OBxpWVIxb2nFfAdCBAAAAAAA8K1NmzYltf/y5ctdisR7WXXtrrS5Mx/PznyHL766EqqujFm5a9/hilml7ZGG58vmHPzgYwdCBAAAAAAAUEzAGlcPnuJZbMvmazfh1jh3MjcXt/Fd3LSd1rxOTiyrXyOECEdamJUCAAAAAABktgHbQkkdOxpttCOzeHD9WZI9RSqy+dpNuDu3bLL3BQAAAAAAAOayOd+Sbdfu1gwVAAAAAAAAAFLhbps7i5ZUzCt7pGTBqnVyecHsh8tq6uWmpvWrI/91aPf+I0KIN0MvfXfr9l1D8lr/cfTRaZPuGT5M7vPV1WvvfnR8weyH5Y+ff/lVVWhjGi4DAAAAAAAAcI7rmbuYjsFx2zTedWfu0LzcJRXztjXvfXTapPxhQ+X6NUsXXu/tm/vQtN37j4RXLjvzxZd1G7YLIZrWr5ZpvtaGepnjqw2Wawm7pvWr5aFcvjIAAAAAAADARS5m7uIO5idXGvN3nae7H502aVvz3nuGD7ty7YZcOem39z1b90prQ70Q4tylnidmTA+vXNZ5ulum7WIMG3JnbbBcLn9z46Zz1wEAAAAAAACkgVvj3JnPwWHceu5Sz11D8pZUzPvq6jVt5Yhf3lUbLL9+sy9UXRmOtJTV1Pd/d+uJGdNer681HvOuO/N+N2b0EzOmd3x6WvauBQAAAAAAAPxLiXHupOu9fY9Om6SNWBdeuez0+YtCiOP/e650ygTZ2k72lpWt8GJovWX3bVq71tPAAQBQSyAQSOPZo9GoyVZiS8S/sYm0hufr+waXqPy5E1si/o1NUAcmQB2YLuGVy2pf3ZLuKNJjScW8komFR0+cyrDx09Izt2zc0e7e/ej4/aN+pd3f8feNqgptDEda1m7d+d3t2//46MTCeY+9Xl/b2lB/7NQZk4Nf6Pla6zYLAAAAAACQDdYsXVg0YVy6o0ibcaMLPus+XzKxMN2BOMytNncyN2fsFRs3ZxeOtMgFmbaTk05o08sKIeTAdsY+sNo+2hGEEIvrwykEDgAAAAAA4D9rt+4snTIh3VGkTd2G7dqMppnE3d6ycfN0AAAAAAAAgIOa1q8empcbqq6UI61lDIXGuQMAAAAAAIBt+v6L2SbzWttJ6RnnDgAApJc2brS9BQVDIjZ1QvJFbMhyCn45M7ieITZ1QgLgRy62uTMOcicZu9CGqitnTn1wSF5ub19/86G2556co99aHKwJVVfOLy3a09ZRt2F7e6QhZquzYQMAkMGi0Wh6Z5qDalT+SrgXm/7I2rK9BfgLHxx8hDoQgORW5i5R2k7bpM/fzS8t2vRW67bmvbXB8mfmPiaTce2RBi0rN2Hs6EuXr04YO1r8mKrTbwUAAAAAAAAyjyu9ZU3SdnEdPd61YPbDm+tevH6zv3TxSuMOBSPyX/vrvoIR+Q4FCAAAAAAAAKjOlcxdslPKVoU2ltXUf9Z9vmRiYdP61TFba4PlOYMH1b3wTM7gQbXBcufCBAAAAAAAANTl1gwVJsm7okUrYra2vf5qbbA8HGk5euKUsWHd1MLfHu7oLA7WHO7onFr4W1fCBQAAAAAAABTj4gwV1lve7dp3uGJW6XNPzunt6z/4wccxW+8f9au/7XxfCPGPj06sWPgnh6MEAAAAAAAAlORi5s66cKQlHGmJWalNQPHHZf8uF3bvP7J7/5GYrQAAAAAAAEBGcqu3LAAAAAAAAIBUkLkDAAAAAAAAVOR6b9mOHY3assnId+2RBrmwp62jbsN2uUZ2idUvCCE+OXV2cX1Yv75p/eqOT0+v3bpzzdKFRRPGLVi1zsXrAQDAzwKBgCMLxEZsvo5Nf2TVYoOrlP1OEhuxUQdCo8+ipF00GhXCu487m6/dhItt7jp2NMbcdLkm0SdRHKzZ09Yxv7TI5JjFwZophWNjVi5YtW7uQ9Oefnzm3IemkbYDAAAAAAB+FNVRIYy0nDQLr92cW5k780Rpoq2ytZ0N+/75Ud0Lz+z750f2igMAAAAAACgimxs2ZvO1x+VK5s699o3tkYZPTp116eAAAAAAAABwRNWsyVWzJqc7Ct9zZZy7okUrzJN3iQa8C1VXasu3bn+/pGKeXNBWyoHtjOY+NC302q4VC/+0dutOOxEDAAAAAADACSTsHOTWDBUyN2fM3w04ScWetg7548EPPl5aMV8umBfpvtiz758f7d5/5MH7f9O0fjVD3QEAAAAAAHiPnJ3j3J1b1iRPF8PYmM445l3MPsYiNLgDAAAAAABAxnBxblkAAAAAAABkj82HOtMdQqYhcwcAAAAAAABnbD7USf7OQe72lgUAAAAAAEC2IXnnFCUyd6HqyplTHxySl9vb1998qC0caZFTT3xy6uzi+rD4cSYKqThYk+jHPW0dxtHxAADINtFoNBAIpOvUA+5AbDaoHBugGuqZRKcecAdl6xmVYwO8pz0RVhYyTHZeu7uZO+PcsiLetBXzS4s2vdW6rXlvbbD8mbmPhSMtIl6GTl/E+GOounJ+aRGZOwAARLw3NDd+gxnwPdBiKWKzV4rY7BVRJDa4StnvZNxSxGavFLHZK6JIbPBMNiS2EsmYa3crcxc3Z6dtikneHT3etWD2wyUTC4+eOFW6eGXcUloWT+bsYn4UQtRt2D6/tCj1yAEAAAAAAAAVuJK5M0nbaTvok3dVoY1CiNpgecnEwrJHShasWieEaI80fHLqrLaPeZs7AAAAAAAAIMO4MressT+subbXX60NlocjLUdPnCoYkS9XFgdr5CB3FoWqK5M6KQAAAAAAAKAyt3rLFi1aYdLyLia1t2vf4YpZpc89Oae3r//gBx/HLWLeW1b+uKetw4nYAQDwgZjm5/rBYQEogm4i7qEOBNRHHZiFqmZNFswq6zQXZ6jQ0nMyhWfSEC8caZGzUmgGnI/C5EcAAGCkHz3a9tC8Lg1B7Uhswp3wYo6p1K0jttSPqVRgcJXKnzt1oCPHJDYbx1QqMGQS8nfOcqW3bIyiRSuS7T8LAAAAZIzwymVCiCUV8zbXvbikYt6apQu1lQCQ8bTaTwixZunCpx+fSTWYDapmTZYpPKTIi8wdAABwFu//gI+sWbqwaMI4IcS40QWfdZ8vmVh48fKVfZvW5t6Rk+7QfEOr5XjnB/xIq/2efnzm3Iem3TdyBNVg9iB5lzoydwAA+A/v/4CPrN26s7fvWyFE3Ybtj06fXBXauK15b87gQVeu96Y7NH/QUp+88wM+pdV+wX+b9cVXV+4Z/kuqwSyx+VAnfWZTR+YOAAD/SfH9X+XhaWzHlpEXhQzTtH710LzcUHVl0/rVb7QeKJlYmO6I/EFLfTr1zq/yI0kdiIyk1X7vftipraEatE0boDDFBVe5lLPzxbU7zsUZKgAAgEu034AnjB39RuuBhfMeS/YIKr9HEZs9xGaDZ4GV1dQLIRasWqdfua15rzdnzxjvftg5Y9LvxI/v/DaqPo2y30lBbHYRmw2eBRZT+2moBjMPLezcQOYOAAD/4f0fQFaRqc9wpEW/Ul/1FQdrPA4JAABv0FsWAAAAAAAAUBGZOwAAAAAAAEBFZO4AAAAAAAAAFZG5AwAAAAAAAFTEDBUAAAAAAAAKiTvzbyAQ8OZE6ZXN1x4Xbe4AAAAAAAAAFZG5AwAgM7VHGm2vTKVsisGkUpYLcSOYVMqmK5hUTuH4zbcYIRzHE5di2RSDSaUsF5JiMKmcgjoQUJA/MnejbpxJ5U+6wwcAwHXq/GacYiRciOOUupBUjma9rDo3H55R50NX6olLBRfiSHEHUQcCWcsHmbvUU28k7wAAAAAAAOA7qmfunEq6kbwDAAAAAACAvzC3LAAAAAAAgOr0c6GmMteqX+ZU1cvma1e6zR0N5QAAAAAAAJC1fNbm7sLQ+63vHJP4G3XjTFLFAQAAAAAAgDRSus0dAAAAAAAAkLUca3PXHmkQQhQHa7QFIUTT+tVjCu4VQnR1X3i27hVtNyFEb1//G60HtjXv1dZopQAAAAAAAJCIH8drc0q2XbvDbe6efnymtty0fvV3t24XB2tkPu7N0EtyvVxz8sznZY+U6NeQtgMAAAAAAFksoN4frj3NnMzcXbp8de5D0y5dvip/HFNwr2xnJ4R4tu6V8WNG6XeuCm2UzfGEEO2RBvnHwWAAAAAAAAAAX3Nyhorvbt9+8P7ffH3tRrIFaW0HAAAAAAAAxHCyzV3PlW+G5OX2XPlG/th9sUfrIftm6KXuiz36ncMrl2mt8wAAAAAAAADECMiB/QKBQNGiFTHbOnY0Glcm0h5p+M+DbU/NLpX/HXCGiivXbuzce9h8hopRN87EnOXC0PutX5uV4havMalbAQAAAAAAYFF7pDHdIQysOOhKViRLrt12WqljR6NjvWVl0m3t1p3af4UQC1ati7ub+RoAAAAAAAAowqW0nS+k/dqdHOfOA8ZmdAAAAAAAAP6V9txQGmXztVvk5Dh3ikuqpy0AAAAAAACQXkpn7si1AQAAAAAAIGspnbkDAAAAAAAAspbqmTunmt3RfA8AAAAAAAD+onrmTjiRdEt0BNuT8gIAAAAAAABuM5tbtmjRCkVyW7SYAwAAAAAAQLbxQZs7AAAAAAAAIAuZtbkTPza7kwuexOMFeUUiyYvSSgEAAAAAAAAeGCBzJ35Mb2VS3spGFjKTEpcAAAAAAADwhYEzdxKpKwAAAAAAAMBLjHMHAAAAAAAAqIjMHQAAAAAAAKAiMncAAAAAAACAisjcAQAAAAAAACoicwcAAAAAAAAoKRqNRqPRdEcBAAAAAAAA4CfRaPT/A7mDkVkNlqG2AAAAAElFTkSuQmCC;strokeColor=none;labelBackgroundColor=none;rounded=0;html=1;whiteSpace=wrap;" vertex="1" parent="zqYOxgQ22PQ1kl50evgv-54">
          <mxGeometry x="33" y="1070" width="1568" height="190" as="geometry" />
        </mxCell>
        <mxCell id="zqYOxgQ22PQ1kl50evgv-63" value="" style="strokeColor=#9673a6;html=1;labelPosition=right;align=left;spacingLeft=15;shadow=0;dashed=0;outlineConnect=0;shape=mxgraph.rackGeneral.horRoutingBank;fillColor=#e1d5e7;" vertex="1" parent="zqYOxgQ22PQ1kl50evgv-54">
          <mxGeometry x="33" y="1275" width="1568" height="135" as="geometry" />
        </mxCell>
        <mxCell id="zqYOxgQ22PQ1kl50evgv-64" value="" style="strokeColor=#9673a6;html=1;labelPosition=right;align=left;spacingLeft=15;shadow=0;dashed=0;outlineConnect=0;shape=mxgraph.rackGeneral.horRoutingBank;fillColor=#e1d5e7;" vertex="1" parent="zqYOxgQ22PQ1kl50evgv-54">
          <mxGeometry x="33" y="1410" width="1568" height="135" as="geometry" />
        </mxCell>
        <mxCell id="zqYOxgQ22PQ1kl50evgv-65" style="vsdxID=5;fillColor=none;gradientColor=none;image;aspect=fixed;image=data:image/png,iVBORw0KGgoAAAANSUhEUgAABpMAAACpCAIAAABI01LKAAAjUklEQVR4nO3df2wVZb748edsoN5WkKWiSxdWcLEs8mOBdou3oi6gQK7Nflsxa5Dj1xKBpMGGpoGYm8If/QNOjMGctAFCAhjx7kGCX3rb3dQbYPkhLvau2CpaQMvlQhEEK4JAaRVMzvePR8fxzDnTOXNm5jxzzvsVotOZeWY+M+fMQ+fD8yMQjUYFAAAAAAAAAMX8It0BAAAAAAAAAIhjkPxfIBBIbxwAAAAAAAAA9AZpS0WLVqQxDgAAAAAAAACajh2N9JYFAAAAAAAAVETmDgAAAAAAAFARmTsAAAAAAABARWTuAAAAAAAAABWRuQMAAAAAAABUROYOAAAAAAAAUBGZOwAAAAAAAEBFZO4AAAAAAAAAFQ2yuF/HjkZX4/BY0aIVSe2fYZcPAACKFq3g73cAAFyS7Es3gEQGztzJX2oz7KmzcVEZdgcAAAB/uQMA4BLtn8f42xZI0QCZu44djRn5mMmLytSrAwAAAAAgjbR37YxsDGRUGyx/dPrkghH5OYMH3br9/dkvvnz/+GfXb/Yv/3NZcbBmwOJN61cvWLXOfJ/2SIO2bOWYqZzrzdBLY3/9q5zBg3r7+o8cO1m3Ybu2aUnFvLJHSsYU3Csv89m6V4zFa4PlMyb97tf35A/Jy9WH+mbopfFjRgkhurovxC2IuKz2lgUAAGpqjyjX5bM4+NNv54SXLC08BWMThJcC/RcPDlL8s1Y5PAVjE4SXGkXDiwghRCCQyU3wZEKqt6//4AcfyyTXmqULn5gxfeSI4VaKh6orxxTcO+BuxcEaffLOHivn2rdpbf6woXJ5SF7u/NKi3Dtyal/dIoRYUjFvacX8nMGD/vL2gamFv51SOHbfprVzl6/RF29av3pMwb2XLl89cuxk+8n/iTnsfx5sE0I8NbvUWFATc5la7i/u5cutxk36jGF7pMHKQUxOnV5mmTuapAEAoDi1fjU3IDxA0x5pJHnnOMWfYsXDA7wUjf6QWMy8XrQyUdXb1//HZf+urVy7dacQorWhfsDkXai6cn5pkbshJnOu8MplQojQa7t27z+iNZH71ykT5NayR0pyBg8SQoQjLbXB8imFY/OHDd1c92JVaKPcQabn9rR16JvpyVPLbKC8M0/NLs0fNjRUXRmzm/h5ls24xiSVZlLKfE+Lp06jrG5zJ4emzpj6AgAAAAAAlcX0ohU+T+GtWbpQNmE7cuykcetrf91X98Iz2p5FE8bpu9M+W/eKzPrJHWRrL5knirtzzMGNrcO0NX95+8D1m/0LZj88csTwS5evNh18b/mfy7ov9sQ9V4xzl3o6T3fv3n9ECPFs3StyT5mtE0IUjMjX9gxHWp57co4Q4sH7fyPXvBl6KX/Y0KPHu4z5uAljRxvPFXcljH6R7gAAAIB3/vu/ky7S0yMOHBA9PS5EE+9ENnR1iWvXnI7GQIZ37lzSRTy4dUKIY8eSDu/cOZs33IaurqTPJb+rtr8VNs4lknlA9OF58xEjdTa+VNpXwoN6Rh+exWfZy++hPFdSVY0s4k1VI89lvarRbpoHlYz+A7JYycSE5+qHa+NW6KNK5dEoWrRC/unY0ejf2d6LJoyTC/puoZrd+4/I7Njmuhefml3a8enp0sUr//L2gZzBg8aPGdXaUK8fb644WGO+c8zBQ6/t6u3rl8uyC6os/pe3D4QjLTJtt+mt1qaD7z1fNkcIEfdcRuFIy7bmvTEruy/+8C3UUnh6Q/JyhRBLKubJBnrjRhe0Rxre2fKybL4n3f1j91s9fR7QRBpbvanQ4E6QuQMAIHt0dYntsf8COrCLF8UDD4jOThcC+rlvvhF33y2OHUuu1LVrIhz2InPX2Sny8sR99yVRpKVF5OW5FtDPTZ0qhBD/8i9JFNmzR+Tl2Unm2vDZZ2L06CTOpX1X/+M/xAMPuBukdi7rD4i2p2dPB1KnfWrWqxqtiAf1jHYu61WNVsSDqkY7l/WqRiviQVWjnct6VaM9vB5UMtq5rFcyWhEPKhntFNYfDa2IU4+GPn/nuxSe1opNNlJLpGTSeCHEA6MLhBDhSItcmagjrcWdd+8/0nyoTS6XTpkghAhVV3Z1X5BF5P6PTpu0rXmvtluyllTME0Lcuv195L8OyTVarlBu0ntixjS5MHf5mqPHu4bk5T5WNFlL3snsXoy4eUDZeFD+MW7VNpnsM6BEBzE/dRpldW9ZAACyyvjx4oEHki41darYskUsWzbwnikaP14cOCDuvju5Urt2iT/+UVy9mlxOzYYHHhDffisOHBBz5lgtcv26yM8XnZ1JFEnFzZvi3oGHt/7JyJHiq69cv2/SffeJjo4kwov5rvb1uRFU7LmsPyDanp49HUid/oO2WNVoRTyoZ7RzWa9qtCIeVDX6p8NiVaMV8aCq0c5lvarRHt4PPxTC5UpGX1FYrGT0RdyuZPTnsvhoaEW2bHHy0TD2ohU+70ir19V9YfyYUVdv9AohaoPlTu0cjrTIeTBGjhheGywvmVj49pGjctOly1dHjhguZ5DYufewvbZjMhl38IOPtbxkx6enHyuaLIQomVioNc27dPmqEOLX9/zUgO7oiVMy/6i1SUxKzHwR+uBNLsT65BJWNpl0KPaeA23uUkxGKpjOBAAAmi1bxLlzSTeFs+FvfxM9PSI3zr/Impk/351oDI4d+6E1h3XTp4uOjuSK2HbunLjnnqRL3byZ9A235+uvxY0bdhLH48eL996zU9Abnj0dcJCNqsazekZQ1aTGelWjPbweVDI2KgqtiAeVjHYK64+GVsSlR0PrReuLhngmbdD0nq17pThY0//drXe2vPzEjOnmx0xq57+//6FceGLG9CF5uVobvbKa+ivXbggh8ocNXVox3zy8uELVlePHjIqZa6L21S2HOzp7+/pLJo3XOvB2nbsgft6qTkvqaStv3f7eeIq4K/Vkr16LKSO5s8y1pZ5xS+rUbku1zZ28DNvTbShyFwAAyBIrVyZdxLP2RH/6k51S993nUasxG+F509ROsnEf7N1we+bMSfpuyO+qN0Fqz4X1B0TuSWs7f7HxpZJFvKlnbIfnTVVj41Z4/xRbr2q0h1f2/3WVvqKwWMmkJTzr59JfkduPhvrTWZw887lsXDZ53BiT3Z5+fGbV0/+WP2xoV/cFbdoHR3YOR1oqZpUOycsdOWJ4V/cF/aa5y9fIyWFzBg96vmyOcfQ6E6Hqytl/+P2mt1qNpWpf3SIXNte9OHLE8N6+frnm1u3vjb1ftdzcxctXtJ7FmouXrxhPnfp0rjLjZuMgiswka6TKOHek8AAAAAAAgJGyrfCqQhtlcupfp0yIu8OboZeEEC/8n7n5w4YKIYxTxBoltbPQTWt7/H9/mj6mPdJQGyx/tu6VT06dFQmGmUskVF1ZMrFwa/MeLW339OMzm9avjt1n0vhbt79/o/WHmU3OfvGlXND38NVWfnr2vPFEcVfCyMlx7rRuwPr+wFrOcsBOwjGDAoqfz2qsiVkZczoAAAAAAJCRFBwOb2vznqUV83MGD3pny8tHjp1sP/k/clS4UHXlzKkPyrSaNr/Ekop52kwOUm9fv0yrrVm6sGjCuAWr1pnsHFfdhu0zpz6YM3jw2q079eufnFly/Wb/ux8dn1I4Vg5FZzyX8Wib616UrQiX/7ls+Z/LtPWHO36YKiVUXTm18P6RI4ZfuXZj597DWnbv/+0/sur/LsgZPGjGpN/J5N2t29///f2PtCBLJhbmDxu6ZulCuebKtRv6frgaYyJIn+2JmyNKdJBEaaJEBzE/dRo5k7kzvx36+5Xo3qXef1jZZo0AAAAAAMBB+mxderN425r3fnPj5tyHpv3mV/fM/sPv55cW1b3wTG9f/xdfXWnc+TeZxdvT1jH7D7/PGTyo7JGSdz/svCNnsOw6+np97RutB54vmzMkL7d0yoSmg++Z7KzPmcQkQE6e+XzYkDtjAtu593DZIyVjCu69dPlqWU29EMJ4LiOZtjOSXWLbIw3y0to++TQmUbh7/5FfDr2z7JGS8WNGjR8zqvtiT+s/juo728reu0/NLhVCyI7AiW5potxOUpNOJJrXwjxxpGZaKRCNRoUQgUDA+P3u2NE44Jc+pnldot30ibmYG2FsXmdsc2dsx2flyFZYuUbruwEAAAAAgHRRpy2el97Z8nLzoTZtegpkko4djc60udOnexOl2wY8QrIniqFmZhQAAAAAAHhDnbZ4bnu9vnZK4djuiz0LVq3r7fuWtF0Gc3Kcu0Qs9i5OscMsvWUBALCiatbkzYc6Le4Zs8ZiQdvkGQnPnowJzxibxYKpSOW5EO6HBwdRB9pGeKmgDkyLzM7iTSkcK4QYU3BvqLry7+9/mO5w4CLnM3da9s1eGs48f0duDgCAVMT9hRtQyuZDnTFfVG/eCS2+uKYrPDiCOhDqow50SaIsnvBtIk8OhyeXaXCX2X7h+BH13WYdP3iKs1gAAABh+d015ndxb9ojCMKzJcPC85iaUcE9mfGYEJ5ehoXnMTWjclXRohX6Px07GvV/0h2dVXUbtpcuXlm6eGXcGVqRSZzP3OmZz+4hEqT57KX8aI4HAIC5LPzVHD6lf4v2sjWHjXd+vzQ2gaAOhH9QB3osMxJ5yGCpzi3rd8wtCwDIHva6tyQ1cpBttoccIjyRoeFppTwOL9mRnjLjrTVLUAfaRnipoA70O2PyjuQAvJTq3LIKpp95hAAAiIvGJvAXOZSS9++ESY30lA2vrBmDOhD+Qh2ojriNnAbcB3BQSm3uMiBzR5s7AACAbJZKa50seWsFkMGoAx2RKDdCGgGpS7XNHQAAAOBrtt88eWUFkAGoAx2RKEM3YGsnUnuwgswdAAAAAACAwwZMzCnYkRHusZ2oJXMHAAAAAADgNdrcZY9UsrS/cDAOAAAAAAAAAE4hcwcAAAAAAACoyMXMXTQalRPXKng0AAAAAAAAQHGMcwcAgI+tWbpw7dad4ZXLal/d0h5pSHc4AH5SHKxJdwjZhToQUAp1IOAUessCAOBjFy9f2bdpbe4dObyyAqqJeSrDK5fpF9YsXahfCXPyRi2pmLe57kUR7+5RBwKq0T+V8uFdUjHP5CkGkAht7gAA8LFtzXufL5tz5Xqv9SKBQMDeuTwYtoLY7LEdm3A/vIyMzUZga5YuLJowTr8g0+6nz1+0F0NW0W5awYj8K9d7Q9WVp89ftH33MvJZJjbbZZWtZ4TCsdkIbNzogs+6z5dMLDzf83XqT3FGao/Yn3jUM8VBV2bCzeZrt8iVNncxT3IqNU7M8HaMdgcAgF7T+tVvtB4omViY7kAAmFm7dWdv37f6hW3Ne3MGD0oq7Z619Hcv/64hgrsH+E3dhu2PTp9cFdrIUwzY4FabOy2/RqINAAD3LFi1TgixrXkvPcUAf5Fp94XzHkt3IH7yen3tHTmDz/d8zd0D/KVp/eqhebmh6spfj8jnKQaSRW9ZAAAAwHVlNfX6BS3tnr6I/ETetMX1Yf1K7h7gF7LGM+IpBqxwOHMXjUYT9ZaXje+s96U3aayX7KEAAMg8NLID1BfznDLTooOoAwH1UQfaoFqew8telNl87eaczNzRMRYAADU58s9dMQdx6u99YnPksI4ch9hsHIRfgH0h459lYnPkOMRm4yDUgW6wfVe1j8bBzyUQCHj5IWfztZtwZoaKpCaOGHBPBw8FAAAASG702KAXCAC/oA4EfMrrce4s5tqSSt5RWQAAAAAAgEwyYK7DeuYkqbSJCm2ksvnajVJtc5dUa7uYghZXuhcDAAAAAAAAoKz0zC2rJdrIuAEAAAAAAABxpSdzBwAAXOLZIBLGEw34D3JpjE0MFB6xJToRsQ3IxrMA96j8ufO8JDoRsQ3IX7FRBzrFwTvpuw8lm6/dKKXMXdGiFcZ5nbWVcgZouWy+pyMrixatsHkZAAAAAAAAakgx8epI3taRhFfVrMlCiM2HOq0XyZhrd5CLbe6MuTYAAAAAAABkNpmzgyPoLQsAAAAAAAAHkLNzXKpzywIAAAAAAABwA5k7AAAAAAAAOGDzoc6kBrbDgMjcAQAAAAAAwDHk7xzEOHcAAAAAAABwGMk7R9DmDgCAbKHNcG9cMN8adzdFYku00tXYzENSObYBt2ZJbMlSJAykiDrQqdjMQ1I5tgG3ZklsyVIkDCBrkbkDAABAdrGdo/EggwMAbqMOBPyFzB0AAAAAAACgIjJ3AAAAAAAAgIrI3AEAAAAAAPiSSc9luSmDuzZnybWTuQMAAAAAAPAZ48iDJtObeJPDqpo1uWrWZA9OpOC1u4fMHQAAAAAAAJzhWf4uS5C5AwAAAAAAgJPI3zmFzB0AAAAAAACgokGuHr1jR2PMmqJFK4y7haorZ059cEhebm9ff/OhtidmTP/7+x+GIy21wfInZkw/duqMfutzT87Rly0O1rh4AQAAAAAAAEjS5kOd6Q4hQ7jV5q5jR6MxbZdo/fzSojdaDxQHa5oPtT0z97HX/rqvYlapEKJiVulrf90Xs7U4WCOzddoCAACwIhAIJFow3xp3N0ViS7TS1djMQ1I5tgG3ZltsSW0SCaKFX1AHOhWbeUgqxzbg1myLLalNIkG0gNHmQ52k7Rzkbpu7RDp2NOob3x093rVg9sMlEwuPnjhVunilEGLuQ9Pe2fLyyTOf795/ZO5D02K2AgAAAKkzfz12++UZANKLOhCOI2HnBiXGuasKbSyrqf+s+3zJxMKm9avlmiF5uVWhjXG3AgAAAAAAZDOZVDX+13xTZsiqa3crcxd3PLtEW9tef7U2WB6OtBw9capgRH7MzuZbAQAAAAAAgIzkYm9ZmZ7Tj2qXKJ23a9/hilmlzz05p7ev/+AHHye1FQAAAAAAAMhIro9zZ974TgpHWsKRlpiV2uwT5lsBAAAAAACAjKTEOHcAAAAAAAAAYpC5AwAAAAAAAFTkem9ZAADgpWg0mu4QEiI2e4jNHpVjg3tU/tyJzR5is0fl2AAkRZXMXXukQS50dV94tu4Vbc0np84urg+HqitnTn1wSF5ub19/86E247B3AAAAAAAAQIZxPXNnZW5ZSU46oaXw5Br54/zSok1vtW5r3lsbLH9m7mNk7gAAAAAAQDZLtmVlIBBwKRLvZdW1u5i50+fsYtbETeHJJF1X9wXjpqPHuxbMfrhkYuHRE6dKF690OlIAAAAAAAA/8XU2KkVZde1uzVBhTNsNuLU4WHP0eNeZL77U1rRHGj45dVYIURXaWFZT/1n3+ZKJhU3rVzsdLAAAAAAAgBKiFrh35FSOn7psvvZEXGlzZ562M1EV2vjOlpe1H2X/WSFE2+uv7tp3OBxpWVIxb2nFfAdCBAAAAAAA8K1NmzYltf/y5ctdisR7WXXtrrS5Mx/PznyHL766EqqujFm5a9/hilml7ZGG58vmHPzgYwdCBAAAAAAAUEzAGlcPnuJZbMvmazfh1jh3MjcXt/Fd3LSd1rxOTiyrXyOECEdamJUCAAAAAABktgHbQkkdOxpttCOzeHD9WZI9RSqy+dpNuDu3bLL3BQAAAAAAAOayOd+Sbdfu1gwVAAAAAAAAAFLhbps7i5ZUzCt7pGTBqnVyecHsh8tq6uWmpvWrI/91aPf+I0KIN0MvfXfr9l1D8lr/cfTRaZPuGT5M7vPV1WvvfnR8weyH5Y+ff/lVVWhjGi4DAAAAAAAAcI7rmbuYjsFx2zTedWfu0LzcJRXztjXvfXTapPxhQ+X6NUsXXu/tm/vQtN37j4RXLjvzxZd1G7YLIZrWr5ZpvtaGepnjqw2Wawm7pvWr5aFcvjIAAAAAAADARS5m7uIO5idXGvN3nae7H502aVvz3nuGD7ty7YZcOem39z1b90prQ70Q4tylnidmTA+vXNZ5ulum7WIMG3JnbbBcLn9z46Zz1wEAAAAAAACkgVvj3JnPwWHceu5Sz11D8pZUzPvq6jVt5Yhf3lUbLL9+sy9UXRmOtJTV1Pd/d+uJGdNer681HvOuO/N+N2b0EzOmd3x6WvauBQAAAAAAAPxLiXHupOu9fY9Om6SNWBdeuez0+YtCiOP/e650ygTZ2k72lpWt8GJovWX3bVq71tPAAQBQSyAQSOPZo9GoyVZiS8S/sYm0hufr+waXqPy5E1si/o1NUAcmQB2YLuGVy2pf3ZLuKNJjScW8komFR0+cyrDx09Izt2zc0e7e/ej4/aN+pd3f8feNqgptDEda1m7d+d3t2//46MTCeY+9Xl/b2lB/7NQZk4Nf6Pla6zYLAAAAAACQDdYsXVg0YVy6o0ibcaMLPus+XzKxMN2BOMytNncyN2fsFRs3ZxeOtMgFmbaTk05o08sKIeTAdsY+sNo+2hGEEIvrwykEDgAAAAAA4D9rt+4snTIh3VGkTd2G7dqMppnE3d6ycfN0AAAAAAAAgIOa1q8empcbqq6UI61lDIXGuQMAAAAAAIBt+v6L2SbzWttJ6RnnDgAApJc2brS9BQVDIjZ1QvJFbMhyCn45M7ieITZ1QgLgRy62uTMOcicZu9CGqitnTn1wSF5ub19/86G2556co99aHKwJVVfOLy3a09ZRt2F7e6QhZquzYQMAkMGi0Wh6Z5qDalT+SrgXm/7I2rK9BfgLHxx8hDoQgORW5i5R2k7bpM/fzS8t2vRW67bmvbXB8mfmPiaTce2RBi0rN2Hs6EuXr04YO1r8mKrTbwUAAAAAAAAyjyu9ZU3SdnEdPd61YPbDm+tevH6zv3TxSuMOBSPyX/vrvoIR+Q4FCAAAAAAAAKjOlcxdslPKVoU2ltXUf9Z9vmRiYdP61TFba4PlOYMH1b3wTM7gQbXBcufCBAAAAAAAANTl1gwVJsm7okUrYra2vf5qbbA8HGk5euKUsWHd1MLfHu7oLA7WHO7onFr4W1fCBQAAAAAAABTj4gwV1lve7dp3uGJW6XNPzunt6z/4wccxW+8f9au/7XxfCPGPj06sWPgnh6MEAAAAAAAAlORi5s66cKQlHGmJWalNQPHHZf8uF3bvP7J7/5GYrQAAAAAAAEBGcqu3LAAAAAAAAIBUkLkDAAAAAAAAVOR6b9mOHY3assnId+2RBrmwp62jbsN2uUZ2idUvCCE+OXV2cX1Yv75p/eqOT0+v3bpzzdKFRRPGLVi1zsXrAQDAzwKBgCMLxEZsvo5Nf2TVYoOrlP1OEhuxUQdCo8+ipF00GhXCu487m6/dhItt7jp2NMbcdLkm0SdRHKzZ09Yxv7TI5JjFwZophWNjVi5YtW7uQ9Oefnzm3IemkbYDAAAAAAB+FNVRIYy0nDQLr92cW5k780Rpoq2ytZ0N+/75Ud0Lz+z750f2igMAAAAAACgimxs2ZvO1x+VK5s699o3tkYZPTp116eAAAAAAAABwRNWsyVWzJqc7Ct9zZZy7okUrzJN3iQa8C1VXasu3bn+/pGKeXNBWyoHtjOY+NC302q4VC/+0dutOOxEDAAAAAADACSTsHOTWDBUyN2fM3w04ScWetg7548EPPl5aMV8umBfpvtiz758f7d5/5MH7f9O0fjVD3QEAAAAAAHiPnJ3j3J1b1iRPF8PYmM445l3MPsYiNLgDAAAAAABAxnBxblkAAAAAAABkj82HOtMdQqYhcwcAAAAAAABnbD7USf7OQe72lgUAAAAAAEC2IXnnFCUyd6HqyplTHxySl9vb1998qC0caZFTT3xy6uzi+rD4cSYKqThYk+jHPW0dxtHxAADINtFoNBAIpOvUA+5AbDaoHBugGuqZRKcecAdl6xmVYwO8pz0RVhYyTHZeu7uZO+PcsiLetBXzS4s2vdW6rXlvbbD8mbmPhSMtIl6GTl/E+GOounJ+aRGZOwAARLw3NDd+gxnwPdBiKWKzV4rY7BVRJDa4StnvZNxSxGavFLHZK6JIbPBMNiS2EsmYa3crcxc3Z6dtikneHT3etWD2wyUTC4+eOFW6eGXcUloWT+bsYn4UQtRt2D6/tCj1yAEAAAAAAAAVuJK5M0nbaTvok3dVoY1CiNpgecnEwrJHShasWieEaI80fHLqrLaPeZs7AAAAAAAAIMO4MressT+subbXX60NlocjLUdPnCoYkS9XFgdr5CB3FoWqK5M6KQAAAAAAAKAyt3rLFi1aYdLyLia1t2vf4YpZpc89Oae3r//gBx/HLWLeW1b+uKetw4nYAQDwgZjm5/rBYQEogm4i7qEOBNRHHZiFqmZNFswq6zQXZ6jQ0nMyhWfSEC8caZGzUmgGnI/C5EcAAGCkHz3a9tC8Lg1B7Uhswp3wYo6p1K0jttSPqVRgcJXKnzt1oCPHJDYbx1QqMGQS8nfOcqW3bIyiRSuS7T8LAAAAZIzwymVCiCUV8zbXvbikYt6apQu1lQCQ8bTaTwixZunCpx+fSTWYDapmTZYpPKTIi8wdAABwFu//gI+sWbqwaMI4IcS40QWfdZ8vmVh48fKVfZvW5t6Rk+7QfEOr5XjnB/xIq/2efnzm3Iem3TdyBNVg9iB5lzoydwAA+A/v/4CPrN26s7fvWyFE3Ybtj06fXBXauK15b87gQVeu96Y7NH/QUp+88wM+pdV+wX+b9cVXV+4Z/kuqwSyx+VAnfWZTR+YOAAD/SfH9X+XhaWzHlpEXhQzTtH710LzcUHVl0/rVb7QeKJlYmO6I/EFLfTr1zq/yI0kdiIyk1X7vftipraEatE0boDDFBVe5lLPzxbU7zsUZKgAAgEu034AnjB39RuuBhfMeS/YIKr9HEZs9xGaDZ4GV1dQLIRasWqdfua15rzdnzxjvftg5Y9LvxI/v/DaqPo2y30lBbHYRmw2eBRZT+2moBjMPLezcQOYOAAD/4f0fQFaRqc9wpEW/Ul/1FQdrPA4JAABv0FsWAAAAAAAAUBGZOwAAAAAAAEBFZO4AAAAAAAAAFZG5AwAAAAAAAFTEDBUAAAAAAAAKiTvzbyAQ8OZE6ZXN1x4Xbe4AAAAAAAAAFZG5AwAgM7VHGm2vTKVsisGkUpYLcSOYVMqmK5hUTuH4zbcYIRzHE5di2RSDSaUsF5JiMKmcgjoQUJA/MnejbpxJ5U+6wwcAwHXq/GacYiRciOOUupBUjma9rDo3H55R50NX6olLBRfiSHEHUQcCWcsHmbvUU28k7wAAAAAAAOA7qmfunEq6kbwDAAAAAACAvzC3LAAAAAAAgOr0c6GmMteqX+ZU1cvma1e6zR0N5QAAAAAAAJC1fNbm7sLQ+63vHJP4G3XjTFLFAQAAAAAAgDRSus0dAAAAAAAAkLUca3PXHmkQQhQHa7QFIUTT+tVjCu4VQnR1X3i27hVtNyFEb1//G60HtjXv1dZopQAAAAAAAJCIH8drc0q2XbvDbe6efnymtty0fvV3t24XB2tkPu7N0EtyvVxz8sznZY+U6NeQtgMAAAAAAFksoN4frj3NnMzcXbp8de5D0y5dvip/HFNwr2xnJ4R4tu6V8WNG6XeuCm2UzfGEEO2RBvnHwWAAAAAAAAAAX3Nyhorvbt9+8P7ffH3tRrIFaW0HAAAAAAAAxHCyzV3PlW+G5OX2XPlG/th9sUfrIftm6KXuiz36ncMrl2mt8wAAAAAAAADECMiB/QKBQNGiFTHbOnY0Glcm0h5p+M+DbU/NLpX/HXCGiivXbuzce9h8hopRN87EnOXC0PutX5uV4havMalbAQAAAAAAYFF7pDHdIQysOOhKViRLrt12WqljR6NjvWVl0m3t1p3af4UQC1ati7ub+RoAAAAAAAAowqW0nS+k/dqdHOfOA8ZmdAAAAAAAAP6V9txQGmXztVvk5Dh3ikuqpy0AAAAAAACQXkpn7si1AQAAAAAAIGspnbkDAAAAAAAAspbqmTunmt3RfA8AAAAAAAD+onrmTjiRdEt0BNuT8gIAAAAAAABuM5tbtmjRCkVyW7SYAwAAAAAAQLbxQZs7AAAAAAAAIAuZtbkTPza7kwuexOMFeUUiyYvSSgEAAAAAAAAeGCBzJ35Mb2VS3spGFjKTEpcAAAAAAADwhYEzdxKpKwAAAAAAAMBLjHMHAAAAAAAAqIjMHQAAAAAAAKAiMncAAAAAAACAisjcAQAAAAAAACoicwcAAAAAAAAoKRqNRqPRdEcBAAAAAAAA4CfRaPT/A7mDkVkNlqG2AAAAAElFTkSuQmCC;strokeColor=none;labelBackgroundColor=none;rounded=0;html=1;whiteSpace=wrap;" vertex="1" parent="zqYOxgQ22PQ1kl50evgv-54">
          <mxGeometry x="33" y="1545" width="1568" height="190" as="geometry" />
        </mxCell>
        <mxCell id="zqYOxgQ22PQ1kl50evgv-66" value="" style="strokeColor=#9673a6;html=1;labelPosition=right;align=left;spacingLeft=15;shadow=0;dashed=0;outlineConnect=0;shape=mxgraph.rackGeneral.horRoutingBank;fillColor=#e1d5e7;" vertex="1" parent="zqYOxgQ22PQ1kl50evgv-54">
          <mxGeometry x="33" y="1750" width="1568" height="135" as="geometry" />
        </mxCell>
        <mxCell id="zqYOxgQ22PQ1kl50evgv-67" value="" style="strokeColor=#9673a6;html=1;labelPosition=right;align=left;spacingLeft=15;shadow=0;dashed=0;outlineConnect=0;shape=mxgraph.rackGeneral.horRoutingBank;fillColor=#e1d5e7;" vertex="1" parent="zqYOxgQ22PQ1kl50evgv-54">
          <mxGeometry x="33" y="1885" width="1568" height="135" as="geometry" />
        </mxCell>
        <mxCell id="zqYOxgQ22PQ1kl50evgv-68" style="vsdxID=5;fillColor=none;gradientColor=none;image;aspect=fixed;image=data:image/png,iVBORw0KGgoAAAANSUhEUgAABpMAAACpCAIAAABI01LKAAAjUklEQVR4nO3df2wVZb748edsoN5WkKWiSxdWcLEs8mOBdou3oi6gQK7Nflsxa5Dj1xKBpMGGpoGYm8If/QNOjMGctAFCAhjx7kGCX3rb3dQbYPkhLvau2CpaQMvlQhEEK4JAaRVMzvePR8fxzDnTOXNm5jxzzvsVotOZeWY+M+fMQ+fD8yMQjUYFAAAAAAAAAMX8It0BAAAAAAAAAIhjkPxfIBBIbxwAAAAAAAAA9AZpS0WLVqQxDgAAAAAAAACajh2N9JYFAAAAAAAAVETmDgAAAAAAAFARmTsAAAAAAABARWTuAAAAAAAAABWRuQMAAAAAAABUROYOAAAAAAAAUBGZOwAAAAAAAEBFZO4AAAAAAAAAFQ2yuF/HjkZX4/BY0aIVSe2fYZcPAACKFq3g73cAAFyS7Es3gEQGztzJX2oz7KmzcVEZdgcAAAB/uQMA4BLtn8f42xZI0QCZu44djRn5mMmLytSrAwAAAAAgjbR37YxsDGRUGyx/dPrkghH5OYMH3br9/dkvvnz/+GfXb/Yv/3NZcbBmwOJN61cvWLXOfJ/2SIO2bOWYqZzrzdBLY3/9q5zBg3r7+o8cO1m3Ybu2aUnFvLJHSsYU3Csv89m6V4zFa4PlMyb97tf35A/Jy9WH+mbopfFjRgkhurovxC2IuKz2lgUAAGpqjyjX5bM4+NNv54SXLC08BWMThJcC/RcPDlL8s1Y5PAVjE4SXGkXDiwghRCCQyU3wZEKqt6//4AcfyyTXmqULn5gxfeSI4VaKh6orxxTcO+BuxcEaffLOHivn2rdpbf6woXJ5SF7u/NKi3Dtyal/dIoRYUjFvacX8nMGD/vL2gamFv51SOHbfprVzl6/RF29av3pMwb2XLl89cuxk+8n/iTnsfx5sE0I8NbvUWFATc5la7i/u5cutxk36jGF7pMHKQUxOnV5mmTuapAEAoDi1fjU3IDxA0x5pJHnnOMWfYsXDA7wUjf6QWMy8XrQyUdXb1//HZf+urVy7dacQorWhfsDkXai6cn5pkbshJnOu8MplQojQa7t27z+iNZH71ykT5NayR0pyBg8SQoQjLbXB8imFY/OHDd1c92JVaKPcQabn9rR16JvpyVPLbKC8M0/NLs0fNjRUXRmzm/h5ls24xiSVZlLKfE+Lp06jrG5zJ4emzpj6AgAAAAAAlcX0ohU+T+GtWbpQNmE7cuykcetrf91X98Iz2p5FE8bpu9M+W/eKzPrJHWRrL5knirtzzMGNrcO0NX95+8D1m/0LZj88csTwS5evNh18b/mfy7ov9sQ9V4xzl3o6T3fv3n9ECPFs3StyT5mtE0IUjMjX9gxHWp57co4Q4sH7fyPXvBl6KX/Y0KPHu4z5uAljRxvPFXcljH6R7gAAAIB3/vu/ky7S0yMOHBA9PS5EE+9ENnR1iWvXnI7GQIZ37lzSRTy4dUKIY8eSDu/cOZs33IaurqTPJb+rtr8VNs4lknlA9OF58xEjdTa+VNpXwoN6Rh+exWfZy++hPFdSVY0s4k1VI89lvarRbpoHlYz+A7JYycSE5+qHa+NW6KNK5dEoWrRC/unY0ejf2d6LJoyTC/puoZrd+4/I7Njmuhefml3a8enp0sUr//L2gZzBg8aPGdXaUK8fb644WGO+c8zBQ6/t6u3rl8uyC6os/pe3D4QjLTJtt+mt1qaD7z1fNkcIEfdcRuFIy7bmvTEruy/+8C3UUnh6Q/JyhRBLKubJBnrjRhe0Rxre2fKybL4n3f1j91s9fR7QRBpbvanQ4E6QuQMAIHt0dYntsf8COrCLF8UDD4jOThcC+rlvvhF33y2OHUuu1LVrIhz2InPX2Sny8sR99yVRpKVF5OW5FtDPTZ0qhBD/8i9JFNmzR+Tl2Unm2vDZZ2L06CTOpX1X/+M/xAMPuBukdi7rD4i2p2dPB1KnfWrWqxqtiAf1jHYu61WNVsSDqkY7l/WqRiviQVWjnct6VaM9vB5UMtq5rFcyWhEPKhntFNYfDa2IU4+GPn/nuxSe1opNNlJLpGTSeCHEA6MLhBDhSItcmagjrcWdd+8/0nyoTS6XTpkghAhVV3Z1X5BF5P6PTpu0rXmvtluyllTME0Lcuv195L8OyTVarlBu0ntixjS5MHf5mqPHu4bk5T5WNFlL3snsXoy4eUDZeFD+MW7VNpnsM6BEBzE/dRpldW9ZAACyyvjx4oEHki41darYskUsWzbwnikaP14cOCDuvju5Urt2iT/+UVy9mlxOzYYHHhDffisOHBBz5lgtcv26yM8XnZ1JFEnFzZvi3oGHt/7JyJHiq69cv2/SffeJjo4kwov5rvb1uRFU7LmsPyDanp49HUid/oO2WNVoRTyoZ7RzWa9qtCIeVDX6p8NiVaMV8aCq0c5lvarRHt4PPxTC5UpGX1FYrGT0RdyuZPTnsvhoaEW2bHHy0TD2ohU+70ir19V9YfyYUVdv9AohaoPlTu0cjrTIeTBGjhheGywvmVj49pGjctOly1dHjhguZ5DYufewvbZjMhl38IOPtbxkx6enHyuaLIQomVioNc27dPmqEOLX9/zUgO7oiVMy/6i1SUxKzHwR+uBNLsT65BJWNpl0KPaeA23uUkxGKpjOBAAAmi1bxLlzSTeFs+FvfxM9PSI3zr/Impk/351oDI4d+6E1h3XTp4uOjuSK2HbunLjnnqRL3byZ9A235+uvxY0bdhLH48eL996zU9Abnj0dcJCNqsazekZQ1aTGelWjPbweVDI2KgqtiAeVjHYK64+GVsSlR0PrReuLhngmbdD0nq17pThY0//drXe2vPzEjOnmx0xq57+//6FceGLG9CF5uVobvbKa+ivXbggh8ocNXVox3zy8uELVlePHjIqZa6L21S2HOzp7+/pLJo3XOvB2nbsgft6qTkvqaStv3f7eeIq4K/Vkr16LKSO5s8y1pZ5xS+rUbku1zZ28DNvTbShyFwAAyBIrVyZdxLP2RH/6k51S993nUasxG+F509ROsnEf7N1we+bMSfpuyO+qN0Fqz4X1B0TuSWs7f7HxpZJFvKlnbIfnTVVj41Z4/xRbr2q0h1f2/3WVvqKwWMmkJTzr59JfkduPhvrTWZw887lsXDZ53BiT3Z5+fGbV0/+WP2xoV/cFbdoHR3YOR1oqZpUOycsdOWJ4V/cF/aa5y9fIyWFzBg96vmyOcfQ6E6Hqytl/+P2mt1qNpWpf3SIXNte9OHLE8N6+frnm1u3vjb1ftdzcxctXtJ7FmouXrxhPnfp0rjLjZuMgiswka6TKOHek8AAAAAAAgJGyrfCqQhtlcupfp0yIu8OboZeEEC/8n7n5w4YKIYxTxBoltbPQTWt7/H9/mj6mPdJQGyx/tu6VT06dFQmGmUskVF1ZMrFwa/MeLW339OMzm9avjt1n0vhbt79/o/WHmU3OfvGlXND38NVWfnr2vPFEcVfCyMlx7rRuwPr+wFrOcsBOwjGDAoqfz2qsiVkZczoAAAAAAJCRFBwOb2vznqUV83MGD3pny8tHjp1sP/k/clS4UHXlzKkPyrSaNr/Ekop52kwOUm9fv0yrrVm6sGjCuAWr1pnsHFfdhu0zpz6YM3jw2q079eufnFly/Wb/ux8dn1I4Vg5FZzyX8Wib616UrQiX/7ls+Z/LtPWHO36YKiVUXTm18P6RI4ZfuXZj597DWnbv/+0/sur/LsgZPGjGpN/J5N2t29///f2PtCBLJhbmDxu6ZulCuebKtRv6frgaYyJIn+2JmyNKdJBEaaJEBzE/dRo5k7kzvx36+5Xo3qXef1jZZo0AAAAAAMBB+mxderN425r3fnPj5tyHpv3mV/fM/sPv55cW1b3wTG9f/xdfXWnc+TeZxdvT1jH7D7/PGTyo7JGSdz/svCNnsOw6+np97RutB54vmzMkL7d0yoSmg++Z7KzPmcQkQE6e+XzYkDtjAtu593DZIyVjCu69dPlqWU29EMJ4LiOZtjOSXWLbIw3y0to++TQmUbh7/5FfDr2z7JGS8WNGjR8zqvtiT+s/juo728reu0/NLhVCyI7AiW5potxOUpNOJJrXwjxxpGZaKRCNRoUQgUDA+P3u2NE44Jc+pnldot30ibmYG2FsXmdsc2dsx2flyFZYuUbruwEAAAAAgHRRpy2el97Z8nLzoTZtegpkko4djc60udOnexOl2wY8QrIniqFmZhQAAAAAAHhDnbZ4bnu9vnZK4djuiz0LVq3r7fuWtF0Gc3Kcu0Qs9i5OscMsvWUBALCiatbkzYc6Le4Zs8ZiQdvkGQnPnowJzxibxYKpSOW5EO6HBwdRB9pGeKmgDkyLzM7iTSkcK4QYU3BvqLry7+9/mO5w4CLnM3da9s1eGs48f0duDgCAVMT9hRtQyuZDnTFfVG/eCS2+uKYrPDiCOhDqow50SaIsnvBtIk8OhyeXaXCX2X7h+BH13WYdP3iKs1gAAABh+d015ndxb9ojCMKzJcPC85iaUcE9mfGYEJ5ehoXnMTWjclXRohX6Px07GvV/0h2dVXUbtpcuXlm6eGXcGVqRSZzP3OmZz+4hEqT57KX8aI4HAIC5LPzVHD6lf4v2sjWHjXd+vzQ2gaAOhH9QB3osMxJ5yGCpzi3rd8wtCwDIHva6tyQ1cpBttoccIjyRoeFppTwOL9mRnjLjrTVLUAfaRnipoA70O2PyjuQAvJTq3LIKpp95hAAAiIvGJvAXOZSS9++ESY30lA2vrBmDOhD+Qh2ojriNnAbcB3BQSm3uMiBzR5s7AACAbJZKa50seWsFkMGoAx2RKDdCGgGpS7XNHQAAAOBrtt88eWUFkAGoAx2RKEM3YGsnUnuwgswdAAAAAACAwwZMzCnYkRHusZ2oJXMHAAAAAADgNdrcZY9UsrS/cDAOAAAAAAAAAE4hcwcAAAAAAACoyMXMXTQalRPXKng0AAAAAAAAQHGMcwcAgI+tWbpw7dad4ZXLal/d0h5pSHc4AH5SHKxJdwjZhToQUAp1IOAUessCAOBjFy9f2bdpbe4dObyyAqqJeSrDK5fpF9YsXahfCXPyRi2pmLe57kUR7+5RBwKq0T+V8uFdUjHP5CkGkAht7gAA8LFtzXufL5tz5Xqv9SKBQMDeuTwYtoLY7LEdm3A/vIyMzUZga5YuLJowTr8g0+6nz1+0F0NW0W5awYj8K9d7Q9WVp89ftH33MvJZJjbbZZWtZ4TCsdkIbNzogs+6z5dMLDzf83XqT3FGao/Yn3jUM8VBV2bCzeZrt8iVNncxT3IqNU7M8HaMdgcAgF7T+tVvtB4omViY7kAAmFm7dWdv37f6hW3Ne3MGD0oq7Z619Hcv/64hgrsH+E3dhu2PTp9cFdrIUwzY4FabOy2/RqINAAD3LFi1TgixrXkvPcUAf5Fp94XzHkt3IH7yen3tHTmDz/d8zd0D/KVp/eqhebmh6spfj8jnKQaSRW9ZAAAAwHVlNfX6BS3tnr6I/ETetMX1Yf1K7h7gF7LGM+IpBqxwOHMXjUYT9ZaXje+s96U3aayX7KEAAMg8NLID1BfznDLTooOoAwH1UQfaoFqew8telNl87eaczNzRMRYAADU58s9dMQdx6u99YnPksI4ch9hsHIRfgH0h459lYnPkOMRm4yDUgW6wfVe1j8bBzyUQCHj5IWfztZtwZoaKpCaOGHBPBw8FAAAASG702KAXCAC/oA4EfMrrce4s5tqSSt5RWQAAAAAAgEwyYK7DeuYkqbSJCm2ksvnajVJtc5dUa7uYghZXuhcDAAAAAAAAoKz0zC2rJdrIuAEAAAAAAABxpSdzBwAAXOLZIBLGEw34D3JpjE0MFB6xJToRsQ3IxrMA96j8ufO8JDoRsQ3IX7FRBzrFwTvpuw8lm6/dKKXMXdGiFcZ5nbWVcgZouWy+pyMrixatsHkZAAAAAAAAakgx8epI3taRhFfVrMlCiM2HOq0XyZhrd5CLbe6MuTYAAAAAAABkNpmzgyPoLQsAAAAAAAAHkLNzXKpzywIAAAAAAABwA5k7AAAAAAAAOGDzoc6kBrbDgMjcAQAAAAAAwDHk7xzEOHcAAAAAAABwGMk7R9DmDgCAbKHNcG9cMN8adzdFYku00tXYzENSObYBt2ZJbMlSJAykiDrQqdjMQ1I5tgG3ZklsyVIkDCBrkbkDAABAdrGdo/EggwMAbqMOBPyFzB0AAAAAAACgIjJ3AAAAAAAAgIrI3AEAAAAAAPiSSc9luSmDuzZnybWTuQMAAAAAAPAZ48iDJtObeJPDqpo1uWrWZA9OpOC1u4fMHQAAAAAAAJzhWf4uS5C5AwAAAAAAgJPI3zmFzB0AAAAAAACgokGuHr1jR2PMmqJFK4y7haorZ059cEhebm9ff/OhtidmTP/7+x+GIy21wfInZkw/duqMfutzT87Rly0O1rh4AQAAAAAAAEjS5kOd6Q4hQ7jV5q5jR6MxbZdo/fzSojdaDxQHa5oPtT0z97HX/rqvYlapEKJiVulrf90Xs7U4WCOzddoCAACwIhAIJFow3xp3N0ViS7TS1djMQ1I5tgG3ZltsSW0SCaKFX1AHOhWbeUgqxzbg1myLLalNIkG0gNHmQ52k7Rzkbpu7RDp2NOob3x093rVg9sMlEwuPnjhVunilEGLuQ9Pe2fLyyTOf795/ZO5D02K2AgAAAKkzfz12++UZANKLOhCOI2HnBiXGuasKbSyrqf+s+3zJxMKm9avlmiF5uVWhjXG3AgAAAAAAZDOZVDX+13xTZsiqa3crcxd3PLtEW9tef7U2WB6OtBw9capgRH7MzuZbAQAAAAAAgIzkYm9ZmZ7Tj2qXKJ23a9/hilmlzz05p7ev/+AHHye1FQAAAAAAAMhIro9zZ974TgpHWsKRlpiV2uwT5lsBAAAAAACAjKTEOHcAAAAAAAAAYpC5AwAAAAAAAFTkem9ZAADgpWg0mu4QEiI2e4jNHpVjg3tU/tyJzR5is0fl2AAkRZXMXXukQS50dV94tu4Vbc0np84urg+HqitnTn1wSF5ub19/86E247B3AAAAAAAAQIZxPXNnZW5ZSU46oaXw5Br54/zSok1vtW5r3lsbLH9m7mNk7gAAAAAAQDZLtmVlIBBwKRLvZdW1u5i50+fsYtbETeHJJF1X9wXjpqPHuxbMfrhkYuHRE6dKF690OlIAAAAAAAA/8XU2KkVZde1uzVBhTNsNuLU4WHP0eNeZL77U1rRHGj45dVYIURXaWFZT/1n3+ZKJhU3rVzsdLAAAAAAAgBKiFrh35FSOn7psvvZEXGlzZ562M1EV2vjOlpe1H2X/WSFE2+uv7tp3OBxpWVIxb2nFfAdCBAAAAAAA8K1NmzYltf/y5ctdisR7WXXtrrS5Mx/PznyHL766EqqujFm5a9/hilml7ZGG58vmHPzgYwdCBAAAAAAAUEzAGlcPnuJZbMvmazfh1jh3MjcXt/Fd3LSd1rxOTiyrXyOECEdamJUCAAAAAABktgHbQkkdOxpttCOzeHD9WZI9RSqy+dpNuDu3bLL3BQAAAAAAAOayOd+Sbdfu1gwVAAAAAAAAAFLhbps7i5ZUzCt7pGTBqnVyecHsh8tq6uWmpvWrI/91aPf+I0KIN0MvfXfr9l1D8lr/cfTRaZPuGT5M7vPV1WvvfnR8weyH5Y+ff/lVVWhjGi4DAAAAAAAAcI7rmbuYjsFx2zTedWfu0LzcJRXztjXvfXTapPxhQ+X6NUsXXu/tm/vQtN37j4RXLjvzxZd1G7YLIZrWr5ZpvtaGepnjqw2Wawm7pvWr5aFcvjIAAAAAAADARS5m7uIO5idXGvN3nae7H502aVvz3nuGD7ty7YZcOem39z1b90prQ70Q4tylnidmTA+vXNZ5ulum7WIMG3JnbbBcLn9z46Zz1wEAAAAAAACkgVvj3JnPwWHceu5Sz11D8pZUzPvq6jVt5Yhf3lUbLL9+sy9UXRmOtJTV1Pd/d+uJGdNer681HvOuO/N+N2b0EzOmd3x6WvauBQAAAAAAAPxLiXHupOu9fY9Om6SNWBdeuez0+YtCiOP/e650ygTZ2k72lpWt8GJovWX3bVq71tPAAQBQSyAQSOPZo9GoyVZiS8S/sYm0hufr+waXqPy5E1si/o1NUAcmQB2YLuGVy2pf3ZLuKNJjScW8komFR0+cyrDx09Izt2zc0e7e/ej4/aN+pd3f8feNqgptDEda1m7d+d3t2//46MTCeY+9Xl/b2lB/7NQZk4Nf6Pla6zYLAAAAAACQDdYsXVg0YVy6o0ibcaMLPus+XzKxMN2BOMytNncyN2fsFRs3ZxeOtMgFmbaTk05o08sKIeTAdsY+sNo+2hGEEIvrwykEDgAAAAAA4D9rt+4snTIh3VGkTd2G7dqMppnE3d6ycfN0AAAAAAAAgIOa1q8empcbqq6UI61lDIXGuQMAAAAAAIBt+v6L2SbzWttJ6RnnDgAApJc2brS9BQVDIjZ1QvJFbMhyCn45M7ieITZ1QgLgRy62uTMOcicZu9CGqitnTn1wSF5ub19/86G2556co99aHKwJVVfOLy3a09ZRt2F7e6QhZquzYQMAkMGi0Wh6Z5qDalT+SrgXm/7I2rK9BfgLHxx8hDoQgORW5i5R2k7bpM/fzS8t2vRW67bmvbXB8mfmPiaTce2RBi0rN2Hs6EuXr04YO1r8mKrTbwUAAAAAAAAyjyu9ZU3SdnEdPd61YPbDm+tevH6zv3TxSuMOBSPyX/vrvoIR+Q4FCAAAAAAAAKjOlcxdslPKVoU2ltXUf9Z9vmRiYdP61TFba4PlOYMH1b3wTM7gQbXBcufCBAAAAAAAANTl1gwVJsm7okUrYra2vf5qbbA8HGk5euKUsWHd1MLfHu7oLA7WHO7onFr4W1fCBQAAAAAAABTj4gwV1lve7dp3uGJW6XNPzunt6z/4wccxW+8f9au/7XxfCPGPj06sWPgnh6MEAAAAAAAAlORi5s66cKQlHGmJWalNQPHHZf8uF3bvP7J7/5GYrQAAAAAAAEBGcqu3LAAAAAAAAIBUkLkDAAAAAAAAVOR6b9mOHY3assnId+2RBrmwp62jbsN2uUZ2idUvCCE+OXV2cX1Yv75p/eqOT0+v3bpzzdKFRRPGLVi1zsXrAQDAzwKBgCMLxEZsvo5Nf2TVYoOrlP1OEhuxUQdCo8+ipF00GhXCu487m6/dhItt7jp2NMbcdLkm0SdRHKzZ09Yxv7TI5JjFwZophWNjVi5YtW7uQ9Oefnzm3IemkbYDAAAAAAB+FNVRIYy0nDQLr92cW5k780Rpoq2ytZ0N+/75Ud0Lz+z750f2igMAAAAAACgimxs2ZvO1x+VK5s699o3tkYZPTp116eAAAAAAAABwRNWsyVWzJqc7Ct9zZZy7okUrzJN3iQa8C1VXasu3bn+/pGKeXNBWyoHtjOY+NC302q4VC/+0dutOOxEDAAAAAADACSTsHOTWDBUyN2fM3w04ScWetg7548EPPl5aMV8umBfpvtiz758f7d5/5MH7f9O0fjVD3QEAAAAAAHiPnJ3j3J1b1iRPF8PYmM445l3MPsYiNLgDAAAAAABAxnBxblkAAAAAAABkj82HOtMdQqYhcwcAAAAAAABnbD7USf7OQe72lgUAAAAAAEC2IXnnFCUyd6HqyplTHxySl9vb1998qC0caZFTT3xy6uzi+rD4cSYKqThYk+jHPW0dxtHxAADINtFoNBAIpOvUA+5AbDaoHBugGuqZRKcecAdl6xmVYwO8pz0RVhYyTHZeu7uZO+PcsiLetBXzS4s2vdW6rXlvbbD8mbmPhSMtIl6GTl/E+GOounJ+aRGZOwAARLw3NDd+gxnwPdBiKWKzV4rY7BVRJDa4StnvZNxSxGavFLHZK6JIbPBMNiS2EsmYa3crcxc3Z6dtikneHT3etWD2wyUTC4+eOFW6eGXcUloWT+bsYn4UQtRt2D6/tCj1yAEAAAAAAAAVuJK5M0nbaTvok3dVoY1CiNpgecnEwrJHShasWieEaI80fHLqrLaPeZs7AAAAAAAAIMO4MressT+subbXX60NlocjLUdPnCoYkS9XFgdr5CB3FoWqK5M6KQAAAAAAAKAyt3rLFi1aYdLyLia1t2vf4YpZpc89Oae3r//gBx/HLWLeW1b+uKetw4nYAQDwgZjm5/rBYQEogm4i7qEOBNRHHZiFqmZNFswq6zQXZ6jQ0nMyhWfSEC8caZGzUmgGnI/C5EcAAGCkHz3a9tC8Lg1B7Uhswp3wYo6p1K0jttSPqVRgcJXKnzt1oCPHJDYbx1QqMGQS8nfOcqW3bIyiRSuS7T8LAAAAZIzwymVCiCUV8zbXvbikYt6apQu1lQCQ8bTaTwixZunCpx+fSTWYDapmTZYpPKTIi8wdAABwFu//gI+sWbqwaMI4IcS40QWfdZ8vmVh48fKVfZvW5t6Rk+7QfEOr5XjnB/xIq/2efnzm3Iem3TdyBNVg9iB5lzoydwAA+A/v/4CPrN26s7fvWyFE3Ybtj06fXBXauK15b87gQVeu96Y7NH/QUp+88wM+pdV+wX+b9cVXV+4Z/kuqwSyx+VAnfWZTR+YOAAD/SfH9X+XhaWzHlpEXhQzTtH710LzcUHVl0/rVb7QeKJlYmO6I/EFLfTr1zq/yI0kdiIyk1X7vftipraEatE0boDDFBVe5lLPzxbU7zsUZKgAAgEu034AnjB39RuuBhfMeS/YIKr9HEZs9xGaDZ4GV1dQLIRasWqdfua15rzdnzxjvftg5Y9LvxI/v/DaqPo2y30lBbHYRmw2eBRZT+2moBjMPLezcQOYOAAD/4f0fQFaRqc9wpEW/Ul/1FQdrPA4JAABv0FsWAAAAAAAAUBGZOwAAAAAAAEBFZO4AAAAAAAAAFZG5AwAAAAAAAFTEDBUAAAAAAAAKiTvzbyAQ8OZE6ZXN1x4Xbe4AAAAAAAAAFZG5AwAgM7VHGm2vTKVsisGkUpYLcSOYVMqmK5hUTuH4zbcYIRzHE5di2RSDSaUsF5JiMKmcgjoQUJA/MnejbpxJ5U+6wwcAwHXq/GacYiRciOOUupBUjma9rDo3H55R50NX6olLBRfiSHEHUQcCWcsHmbvUU28k7wAAAAAAAOA7qmfunEq6kbwDAAAAAACAvzC3LAAAAAAAgOr0c6GmMteqX+ZU1cvma1e6zR0N5QAAAAAAAJC1fNbm7sLQ+63vHJP4G3XjTFLFAQAAAAAAgDRSus0dAAAAAAAAkLUca3PXHmkQQhQHa7QFIUTT+tVjCu4VQnR1X3i27hVtNyFEb1//G60HtjXv1dZopQAAAAAAAJCIH8drc0q2XbvDbe6efnymtty0fvV3t24XB2tkPu7N0EtyvVxz8sznZY+U6NeQtgMAAAAAAFksoN4frj3NnMzcXbp8de5D0y5dvip/HFNwr2xnJ4R4tu6V8WNG6XeuCm2UzfGEEO2RBvnHwWAAAAAAAAAAX3Nyhorvbt9+8P7ffH3tRrIFaW0HAAAAAAAAxHCyzV3PlW+G5OX2XPlG/th9sUfrIftm6KXuiz36ncMrl2mt8wAAAAAAAADECMiB/QKBQNGiFTHbOnY0Glcm0h5p+M+DbU/NLpX/HXCGiivXbuzce9h8hopRN87EnOXC0PutX5uV4havMalbAQAAAAAAYFF7pDHdIQysOOhKViRLrt12WqljR6NjvWVl0m3t1p3af4UQC1ati7ub+RoAAAAAAAAowqW0nS+k/dqdHOfOA8ZmdAAAAAAAAP6V9txQGmXztVvk5Dh3ikuqpy0AAAAAAACQXkpn7si1AQAAAAAAIGspnbkDAAAAAAAAspbqmTunmt3RfA8AAAAAAAD+onrmTjiRdEt0BNuT8gIAAAAAAABuM5tbtmjRCkVyW7SYAwAAAAAAQLbxQZs7AAAAAAAAIAuZtbkTPza7kwuexOMFeUUiyYvSSgEAAAAAAAAeGCBzJ35Mb2VS3spGFjKTEpcAAAAAAADwhYEzdxKpKwAAAAAAAMBLjHMHAAAAAAAAqIjMHQAAAAAAAKAiMncAAAAAAACAisjcAQAAAAAAACoicwcAAAAAAAAoKRqNRqPRdEcBAAAAAAAA4CfRaPT/A7mDkVkNlqG2AAAAAElFTkSuQmCC;strokeColor=none;labelBackgroundColor=none;rounded=0;html=1;whiteSpace=wrap;" vertex="1" parent="zqYOxgQ22PQ1kl50evgv-54">
          <mxGeometry x="33" y="2020" width="1568" height="190" as="geometry" />
        </mxCell>
        <mxCell id="zqYOxgQ22PQ1kl50evgv-69" value="" style="strokeColor=#9673a6;html=1;labelPosition=right;align=left;spacingLeft=15;shadow=0;dashed=0;outlineConnect=0;shape=mxgraph.rackGeneral.horRoutingBank;fillColor=#e1d5e7;" vertex="1" parent="zqYOxgQ22PQ1kl50evgv-54">
          <mxGeometry x="33" y="2230" width="1568" height="135" as="geometry" />
        </mxCell>
        <mxCell id="zqYOxgQ22PQ1kl50evgv-70" value="" style="strokeColor=#9673a6;html=1;labelPosition=right;align=left;spacingLeft=15;shadow=0;dashed=0;outlineConnect=0;shape=mxgraph.rackGeneral.horRoutingBank;fillColor=#e1d5e7;" vertex="1" parent="zqYOxgQ22PQ1kl50evgv-54">
          <mxGeometry x="33" y="2365" width="1568" height="135" as="geometry" />
        </mxCell>
        <mxCell id="zqYOxgQ22PQ1kl50evgv-71" style="vsdxID=5;fillColor=none;gradientColor=none;image;aspect=fixed;image=data:image/png,iVBORw0KGgoAAAANSUhEUgAABpMAAACpCAIAAABI01LKAAAjUklEQVR4nO3df2wVZb748edsoN5WkKWiSxdWcLEs8mOBdou3oi6gQK7Nflsxa5Dj1xKBpMGGpoGYm8If/QNOjMGctAFCAhjx7kGCX3rb3dQbYPkhLvau2CpaQMvlQhEEK4JAaRVMzvePR8fxzDnTOXNm5jxzzvsVotOZeWY+M+fMQ+fD8yMQjUYFAAAAAAAAAMX8It0BAAAAAAAAAIhjkPxfIBBIbxwAAAAAAAAA9AZpS0WLVqQxDgAAAAAAAACajh2N9JYFAAAAAAAAVETmDgAAAAAAAFARmTsAAAAAAABARWTuAAAAAAAAABWRuQMAAAAAAABUROYOAAAAAAAAUBGZOwAAAAAAAEBFZO4AAAAAAAAAFQ2yuF/HjkZX4/BY0aIVSe2fYZcPAACKFq3g73cAAFyS7Es3gEQGztzJX2oz7KmzcVEZdgcAAAB/uQMA4BLtn8f42xZI0QCZu44djRn5mMmLytSrAwAAAAAgjbR37YxsDGRUGyx/dPrkghH5OYMH3br9/dkvvnz/+GfXb/Yv/3NZcbBmwOJN61cvWLXOfJ/2SIO2bOWYqZzrzdBLY3/9q5zBg3r7+o8cO1m3Ybu2aUnFvLJHSsYU3Csv89m6V4zFa4PlMyb97tf35A/Jy9WH+mbopfFjRgkhurovxC2IuKz2lgUAAGpqjyjX5bM4+NNv54SXLC08BWMThJcC/RcPDlL8s1Y5PAVjE4SXGkXDiwghRCCQyU3wZEKqt6//4AcfyyTXmqULn5gxfeSI4VaKh6orxxTcO+BuxcEaffLOHivn2rdpbf6woXJ5SF7u/NKi3Dtyal/dIoRYUjFvacX8nMGD/vL2gamFv51SOHbfprVzl6/RF29av3pMwb2XLl89cuxk+8n/iTnsfx5sE0I8NbvUWFATc5la7i/u5cutxk36jGF7pMHKQUxOnV5mmTuapAEAoDi1fjU3IDxA0x5pJHnnOMWfYsXDA7wUjf6QWMy8XrQyUdXb1//HZf+urVy7dacQorWhfsDkXai6cn5pkbshJnOu8MplQojQa7t27z+iNZH71ykT5NayR0pyBg8SQoQjLbXB8imFY/OHDd1c92JVaKPcQabn9rR16JvpyVPLbKC8M0/NLs0fNjRUXRmzm/h5ls24xiSVZlLKfE+Lp06jrG5zJ4emzpj6AgAAAAAAlcX0ohU+T+GtWbpQNmE7cuykcetrf91X98Iz2p5FE8bpu9M+W/eKzPrJHWRrL5knirtzzMGNrcO0NX95+8D1m/0LZj88csTwS5evNh18b/mfy7ov9sQ9V4xzl3o6T3fv3n9ECPFs3StyT5mtE0IUjMjX9gxHWp57co4Q4sH7fyPXvBl6KX/Y0KPHu4z5uAljRxvPFXcljH6R7gAAAIB3/vu/ky7S0yMOHBA9PS5EE+9ENnR1iWvXnI7GQIZ37lzSRTy4dUKIY8eSDu/cOZs33IaurqTPJb+rtr8VNs4lknlA9OF58xEjdTa+VNpXwoN6Rh+exWfZy++hPFdSVY0s4k1VI89lvarRbpoHlYz+A7JYycSE5+qHa+NW6KNK5dEoWrRC/unY0ejf2d6LJoyTC/puoZrd+4/I7Njmuhefml3a8enp0sUr//L2gZzBg8aPGdXaUK8fb644WGO+c8zBQ6/t6u3rl8uyC6os/pe3D4QjLTJtt+mt1qaD7z1fNkcIEfdcRuFIy7bmvTEruy/+8C3UUnh6Q/JyhRBLKubJBnrjRhe0Rxre2fKybL4n3f1j91s9fR7QRBpbvanQ4E6QuQMAIHt0dYntsf8COrCLF8UDD4jOThcC+rlvvhF33y2OHUuu1LVrIhz2InPX2Sny8sR99yVRpKVF5OW5FtDPTZ0qhBD/8i9JFNmzR+Tl2Unm2vDZZ2L06CTOpX1X/+M/xAMPuBukdi7rD4i2p2dPB1KnfWrWqxqtiAf1jHYu61WNVsSDqkY7l/WqRiviQVWjnct6VaM9vB5UMtq5rFcyWhEPKhntFNYfDa2IU4+GPn/nuxSe1opNNlJLpGTSeCHEA6MLhBDhSItcmagjrcWdd+8/0nyoTS6XTpkghAhVV3Z1X5BF5P6PTpu0rXmvtluyllTME0Lcuv195L8OyTVarlBu0ntixjS5MHf5mqPHu4bk5T5WNFlL3snsXoy4eUDZeFD+MW7VNpnsM6BEBzE/dRpldW9ZAACyyvjx4oEHki41darYskUsWzbwnikaP14cOCDuvju5Urt2iT/+UVy9mlxOzYYHHhDffisOHBBz5lgtcv26yM8XnZ1JFEnFzZvi3oGHt/7JyJHiq69cv2/SffeJjo4kwov5rvb1uRFU7LmsPyDanp49HUid/oO2WNVoRTyoZ7RzWa9qtCIeVDX6p8NiVaMV8aCq0c5lvarRHt4PPxTC5UpGX1FYrGT0RdyuZPTnsvhoaEW2bHHy0TD2ohU+70ir19V9YfyYUVdv9AohaoPlTu0cjrTIeTBGjhheGywvmVj49pGjctOly1dHjhguZ5DYufewvbZjMhl38IOPtbxkx6enHyuaLIQomVioNc27dPmqEOLX9/zUgO7oiVMy/6i1SUxKzHwR+uBNLsT65BJWNpl0KPaeA23uUkxGKpjOBAAAmi1bxLlzSTeFs+FvfxM9PSI3zr/Impk/351oDI4d+6E1h3XTp4uOjuSK2HbunLjnnqRL3byZ9A235+uvxY0bdhLH48eL996zU9Abnj0dcJCNqsazekZQ1aTGelWjPbweVDI2KgqtiAeVjHYK64+GVsSlR0PrReuLhngmbdD0nq17pThY0//drXe2vPzEjOnmx0xq57+//6FceGLG9CF5uVobvbKa+ivXbggh8ocNXVox3zy8uELVlePHjIqZa6L21S2HOzp7+/pLJo3XOvB2nbsgft6qTkvqaStv3f7eeIq4K/Vkr16LKSO5s8y1pZ5xS+rUbku1zZ28DNvTbShyFwAAyBIrVyZdxLP2RH/6k51S993nUasxG+F509ROsnEf7N1we+bMSfpuyO+qN0Fqz4X1B0TuSWs7f7HxpZJFvKlnbIfnTVVj41Z4/xRbr2q0h1f2/3WVvqKwWMmkJTzr59JfkduPhvrTWZw887lsXDZ53BiT3Z5+fGbV0/+WP2xoV/cFbdoHR3YOR1oqZpUOycsdOWJ4V/cF/aa5y9fIyWFzBg96vmyOcfQ6E6Hqytl/+P2mt1qNpWpf3SIXNte9OHLE8N6+frnm1u3vjb1ftdzcxctXtJ7FmouXrxhPnfp0rjLjZuMgiswka6TKOHek8AAAAAAAgJGyrfCqQhtlcupfp0yIu8OboZeEEC/8n7n5w4YKIYxTxBoltbPQTWt7/H9/mj6mPdJQGyx/tu6VT06dFQmGmUskVF1ZMrFwa/MeLW339OMzm9avjt1n0vhbt79/o/WHmU3OfvGlXND38NVWfnr2vPFEcVfCyMlx7rRuwPr+wFrOcsBOwjGDAoqfz2qsiVkZczoAAAAAAJCRFBwOb2vznqUV83MGD3pny8tHjp1sP/k/clS4UHXlzKkPyrSaNr/Ekop52kwOUm9fv0yrrVm6sGjCuAWr1pnsHFfdhu0zpz6YM3jw2q079eufnFly/Wb/ux8dn1I4Vg5FZzyX8Wib616UrQiX/7ls+Z/LtPWHO36YKiVUXTm18P6RI4ZfuXZj597DWnbv/+0/sur/LsgZPGjGpN/J5N2t29///f2PtCBLJhbmDxu6ZulCuebKtRv6frgaYyJIn+2JmyNKdJBEaaJEBzE/dRo5k7kzvx36+5Xo3qXef1jZZo0AAAAAAMBB+mxderN425r3fnPj5tyHpv3mV/fM/sPv55cW1b3wTG9f/xdfXWnc+TeZxdvT1jH7D7/PGTyo7JGSdz/svCNnsOw6+np97RutB54vmzMkL7d0yoSmg++Z7KzPmcQkQE6e+XzYkDtjAtu593DZIyVjCu69dPlqWU29EMJ4LiOZtjOSXWLbIw3y0to++TQmUbh7/5FfDr2z7JGS8WNGjR8zqvtiT+s/juo728reu0/NLhVCyI7AiW5potxOUpNOJJrXwjxxpGZaKRCNRoUQgUDA+P3u2NE44Jc+pnldot30ibmYG2FsXmdsc2dsx2flyFZYuUbruwEAAAAAgHRRpy2el97Z8nLzoTZtegpkko4djc60udOnexOl2wY8QrIniqFmZhQAAAAAAHhDnbZ4bnu9vnZK4djuiz0LVq3r7fuWtF0Gc3Kcu0Qs9i5OscMsvWUBALCiatbkzYc6Le4Zs8ZiQdvkGQnPnowJzxibxYKpSOW5EO6HBwdRB9pGeKmgDkyLzM7iTSkcK4QYU3BvqLry7+9/mO5w4CLnM3da9s1eGs48f0duDgCAVMT9hRtQyuZDnTFfVG/eCS2+uKYrPDiCOhDqow50SaIsnvBtIk8OhyeXaXCX2X7h+BH13WYdP3iKs1gAAABh+d015ndxb9ojCMKzJcPC85iaUcE9mfGYEJ5ehoXnMTWjclXRohX6Px07GvV/0h2dVXUbtpcuXlm6eGXcGVqRSZzP3OmZz+4hEqT57KX8aI4HAIC5LPzVHD6lf4v2sjWHjXd+vzQ2gaAOhH9QB3osMxJ5yGCpzi3rd8wtCwDIHva6tyQ1cpBttoccIjyRoeFppTwOL9mRnjLjrTVLUAfaRnipoA70O2PyjuQAvJTq3LIKpp95hAAAiIvGJvAXOZSS9++ESY30lA2vrBmDOhD+Qh2ojriNnAbcB3BQSm3uMiBzR5s7AACAbJZKa50seWsFkMGoAx2RKDdCGgGpS7XNHQAAAOBrtt88eWUFkAGoAx2RKEM3YGsnUnuwgswdAAAAAACAwwZMzCnYkRHusZ2oJXMHAAAAAADgNdrcZY9UsrS/cDAOAAAAAAAAAE4hcwcAAAAAAACoyMXMXTQalRPXKng0AAAAAAAAQHGMcwcAgI+tWbpw7dad4ZXLal/d0h5pSHc4AH5SHKxJdwjZhToQUAp1IOAUessCAOBjFy9f2bdpbe4dObyyAqqJeSrDK5fpF9YsXahfCXPyRi2pmLe57kUR7+5RBwKq0T+V8uFdUjHP5CkGkAht7gAA8LFtzXufL5tz5Xqv9SKBQMDeuTwYtoLY7LEdm3A/vIyMzUZga5YuLJowTr8g0+6nz1+0F0NW0W5awYj8K9d7Q9WVp89ftH33MvJZJjbbZZWtZ4TCsdkIbNzogs+6z5dMLDzf83XqT3FGao/Yn3jUM8VBV2bCzeZrt8iVNncxT3IqNU7M8HaMdgcAgF7T+tVvtB4omViY7kAAmFm7dWdv37f6hW3Ne3MGD0oq7Z619Hcv/64hgrsH+E3dhu2PTp9cFdrIUwzY4FabOy2/RqINAAD3LFi1TgixrXkvPcUAf5Fp94XzHkt3IH7yen3tHTmDz/d8zd0D/KVp/eqhebmh6spfj8jnKQaSRW9ZAAAAwHVlNfX6BS3tnr6I/ETetMX1Yf1K7h7gF7LGM+IpBqxwOHMXjUYT9ZaXje+s96U3aayX7KEAAMg8NLID1BfznDLTooOoAwH1UQfaoFqew8telNl87eaczNzRMRYAADU58s9dMQdx6u99YnPksI4ch9hsHIRfgH0h459lYnPkOMRm4yDUgW6wfVe1j8bBzyUQCHj5IWfztZtwZoaKpCaOGHBPBw8FAAAASG702KAXCAC/oA4EfMrrce4s5tqSSt5RWQAAAAAAgEwyYK7DeuYkqbSJCm2ksvnajVJtc5dUa7uYghZXuhcDAAAAAAAAoKz0zC2rJdrIuAEAAAAAAABxpSdzBwAAXOLZIBLGEw34D3JpjE0MFB6xJToRsQ3IxrMA96j8ufO8JDoRsQ3IX7FRBzrFwTvpuw8lm6/dKKXMXdGiFcZ5nbWVcgZouWy+pyMrixatsHkZAAAAAAAAakgx8epI3taRhFfVrMlCiM2HOq0XyZhrd5CLbe6MuTYAAAAAAABkNpmzgyPoLQsAAAAAAAAHkLNzXKpzywIAAAAAAABwA5k7AAAAAAAAOGDzoc6kBrbDgMjcAQAAAAAAwDHk7xzEOHcAAAAAAABwGMk7R9DmDgCAbKHNcG9cMN8adzdFYku00tXYzENSObYBt2ZJbMlSJAykiDrQqdjMQ1I5tgG3ZklsyVIkDCBrkbkDAABAdrGdo/EggwMAbqMOBPyFzB0AAAAAAACgIjJ3AAAAAAAAgIrI3AEAAAAAAPiSSc9luSmDuzZnybWTuQMAAAAAAPAZ48iDJtObeJPDqpo1uWrWZA9OpOC1u4fMHQAAAAAAAJzhWf4uS5C5AwAAAAAAgJPI3zmFzB0AAAAAAACgokGuHr1jR2PMmqJFK4y7haorZ059cEhebm9ff/OhtidmTP/7+x+GIy21wfInZkw/duqMfutzT87Rly0O1rh4AQAAAAAAAEjS5kOd6Q4hQ7jV5q5jR6MxbZdo/fzSojdaDxQHa5oPtT0z97HX/rqvYlapEKJiVulrf90Xs7U4WCOzddoCAACwIhAIJFow3xp3N0ViS7TS1djMQ1I5tgG3ZltsSW0SCaKFX1AHOhWbeUgqxzbg1myLLalNIkG0gNHmQ52k7Rzkbpu7RDp2NOob3x093rVg9sMlEwuPnjhVunilEGLuQ9Pe2fLyyTOf795/ZO5D02K2AgAAAKkzfz12++UZANKLOhCOI2HnBiXGuasKbSyrqf+s+3zJxMKm9avlmiF5uVWhjXG3AgAAAAAAZDOZVDX+13xTZsiqa3crcxd3PLtEW9tef7U2WB6OtBw9capgRH7MzuZbAQAAAAAAgIzkYm9ZmZ7Tj2qXKJ23a9/hilmlzz05p7ev/+AHHye1FQAAAAAAAMhIro9zZ974TgpHWsKRlpiV2uwT5lsBAAAAAACAjKTEOHcAAAAAAAAAYpC5AwAAAAAAAFTkem9ZAADgpWg0mu4QEiI2e4jNHpVjg3tU/tyJzR5is0fl2AAkRZXMXXukQS50dV94tu4Vbc0np84urg+HqitnTn1wSF5ub19/86E247B3AAAAAAAAQIZxPXNnZW5ZSU46oaXw5Br54/zSok1vtW5r3lsbLH9m7mNk7gAAAAAAQDZLtmVlIBBwKRLvZdW1u5i50+fsYtbETeHJJF1X9wXjpqPHuxbMfrhkYuHRE6dKF690OlIAAAAAAAA/8XU2KkVZde1uzVBhTNsNuLU4WHP0eNeZL77U1rRHGj45dVYIURXaWFZT/1n3+ZKJhU3rVzsdLAAAAAAAgBKiFrh35FSOn7psvvZEXGlzZ562M1EV2vjOlpe1H2X/WSFE2+uv7tp3OBxpWVIxb2nFfAdCBAAAAAAA8K1NmzYltf/y5ctdisR7WXXtrrS5Mx/PznyHL766EqqujFm5a9/hilml7ZGG58vmHPzgYwdCBAAAAAAAUEzAGlcPnuJZbMvmazfh1jh3MjcXt/Fd3LSd1rxOTiyrXyOECEdamJUCAAAAAABktgHbQkkdOxpttCOzeHD9WZI9RSqy+dpNuDu3bLL3BQAAAAAAAOayOd+Sbdfu1gwVAAAAAAAAAFLhbps7i5ZUzCt7pGTBqnVyecHsh8tq6uWmpvWrI/91aPf+I0KIN0MvfXfr9l1D8lr/cfTRaZPuGT5M7vPV1WvvfnR8weyH5Y+ff/lVVWhjGi4DAAAAAAAAcI7rmbuYjsFx2zTedWfu0LzcJRXztjXvfXTapPxhQ+X6NUsXXu/tm/vQtN37j4RXLjvzxZd1G7YLIZrWr5ZpvtaGepnjqw2Wawm7pvWr5aFcvjIAAAAAAADARS5m7uIO5idXGvN3nae7H502aVvz3nuGD7ty7YZcOem39z1b90prQ70Q4tylnidmTA+vXNZ5ulum7WIMG3JnbbBcLn9z46Zz1wEAAAAAAACkgVvj3JnPwWHceu5Sz11D8pZUzPvq6jVt5Yhf3lUbLL9+sy9UXRmOtJTV1Pd/d+uJGdNer681HvOuO/N+N2b0EzOmd3x6WvauBQAAAAAAAPxLiXHupOu9fY9Om6SNWBdeuez0+YtCiOP/e650ygTZ2k72lpWt8GJovWX3bVq71tPAAQBQSyAQSOPZo9GoyVZiS8S/sYm0hufr+waXqPy5E1si/o1NUAcmQB2YLuGVy2pf3ZLuKNJjScW8komFR0+cyrDx09Izt2zc0e7e/ej4/aN+pd3f8feNqgptDEda1m7d+d3t2//46MTCeY+9Xl/b2lB/7NQZk4Nf6Pla6zYLAAAAAACQDdYsXVg0YVy6o0ibcaMLPus+XzKxMN2BOMytNncyN2fsFRs3ZxeOtMgFmbaTk05o08sKIeTAdsY+sNo+2hGEEIvrwykEDgAAAAAA4D9rt+4snTIh3VGkTd2G7dqMppnE3d6ycfN0AAAAAAAAgIOa1q8empcbqq6UI61lDIXGuQMAAAAAAIBt+v6L2SbzWttJ6RnnDgAApJc2brS9BQVDIjZ1QvJFbMhyCn45M7ieITZ1QgLgRy62uTMOcicZu9CGqitnTn1wSF5ub19/86G2556co99aHKwJVVfOLy3a09ZRt2F7e6QhZquzYQMAkMGi0Wh6Z5qDalT+SrgXm/7I2rK9BfgLHxx8hDoQgORW5i5R2k7bpM/fzS8t2vRW67bmvbXB8mfmPiaTce2RBi0rN2Hs6EuXr04YO1r8mKrTbwUAAAAAAAAyjyu9ZU3SdnEdPd61YPbDm+tevH6zv3TxSuMOBSPyX/vrvoIR+Q4FCAAAAAAAAKjOlcxdslPKVoU2ltXUf9Z9vmRiYdP61TFba4PlOYMH1b3wTM7gQbXBcufCBAAAAAAAANTl1gwVJsm7okUrYra2vf5qbbA8HGk5euKUsWHd1MLfHu7oLA7WHO7onFr4W1fCBQAAAAAAABTj4gwV1lve7dp3uGJW6XNPzunt6z/4wccxW+8f9au/7XxfCPGPj06sWPgnh6MEAAAAAAAAlORi5s66cKQlHGmJWalNQPHHZf8uF3bvP7J7/5GYrQAAAAAAAEBGcqu3LAAAAAAAAIBUkLkDAAAAAAAAVOR6b9mOHY3assnId+2RBrmwp62jbsN2uUZ2idUvCCE+OXV2cX1Yv75p/eqOT0+v3bpzzdKFRRPGLVi1zsXrAQDAzwKBgCMLxEZsvo5Nf2TVYoOrlP1OEhuxUQdCo8+ipF00GhXCu487m6/dhItt7jp2NMbcdLkm0SdRHKzZ09Yxv7TI5JjFwZophWNjVi5YtW7uQ9Oefnzm3IemkbYDAAAAAAB+FNVRIYy0nDQLr92cW5k780Rpoq2ytZ0N+/75Ud0Lz+z750f2igMAAAAAACgimxs2ZvO1x+VK5s699o3tkYZPTp116eAAAAAAAABwRNWsyVWzJqc7Ct9zZZy7okUrzJN3iQa8C1VXasu3bn+/pGKeXNBWyoHtjOY+NC302q4VC/+0dutOOxEDAAAAAADACSTsHOTWDBUyN2fM3w04ScWetg7548EPPl5aMV8umBfpvtiz758f7d5/5MH7f9O0fjVD3QEAAAAAAHiPnJ3j3J1b1iRPF8PYmM445l3MPsYiNLgDAAAAAABAxnBxblkAAAAAAABkj82HOtMdQqYhcwcAAAAAAABnbD7USf7OQe72lgUAAAAAAEC2IXnnFCUyd6HqyplTHxySl9vb1998qC0caZFTT3xy6uzi+rD4cSYKqThYk+jHPW0dxtHxAADINtFoNBAIpOvUA+5AbDaoHBugGuqZRKcecAdl6xmVYwO8pz0RVhYyTHZeu7uZO+PcsiLetBXzS4s2vdW6rXlvbbD8mbmPhSMtIl6GTl/E+GOounJ+aRGZOwAARLw3NDd+gxnwPdBiKWKzV4rY7BVRJDa4StnvZNxSxGavFLHZK6JIbPBMNiS2EsmYa3crcxc3Z6dtikneHT3etWD2wyUTC4+eOFW6eGXcUloWT+bsYn4UQtRt2D6/tCj1yAEAAAAAAAAVuJK5M0nbaTvok3dVoY1CiNpgecnEwrJHShasWieEaI80fHLqrLaPeZs7AAAAAAAAIMO4MressT+subbXX60NlocjLUdPnCoYkS9XFgdr5CB3FoWqK5M6KQAAAAAAAKAyt3rLFi1aYdLyLia1t2vf4YpZpc89Oae3r//gBx/HLWLeW1b+uKetw4nYAQDwgZjm5/rBYQEogm4i7qEOBNRHHZiFqmZNFswq6zQXZ6jQ0nMyhWfSEC8caZGzUmgGnI/C5EcAAGCkHz3a9tC8Lg1B7Uhswp3wYo6p1K0jttSPqVRgcJXKnzt1oCPHJDYbx1QqMGQS8nfOcqW3bIyiRSuS7T8LAAAAZIzwymVCiCUV8zbXvbikYt6apQu1lQCQ8bTaTwixZunCpx+fSTWYDapmTZYpPKTIi8wdAABwFu//gI+sWbqwaMI4IcS40QWfdZ8vmVh48fKVfZvW5t6Rk+7QfEOr5XjnB/xIq/2efnzm3Iem3TdyBNVg9iB5lzoydwAA+A/v/4CPrN26s7fvWyFE3Ybtj06fXBXauK15b87gQVeu96Y7NH/QUp+88wM+pdV+wX+b9cVXV+4Z/kuqwSyx+VAnfWZTR+YOAAD/SfH9X+XhaWzHlpEXhQzTtH710LzcUHVl0/rVb7QeKJlYmO6I/EFLfTr1zq/yI0kdiIyk1X7vftipraEatE0boDDFBVe5lLPzxbU7zsUZKgAAgEu034AnjB39RuuBhfMeS/YIKr9HEZs9xGaDZ4GV1dQLIRasWqdfua15rzdnzxjvftg5Y9LvxI/v/DaqPo2y30lBbHYRmw2eBRZT+2moBjMPLezcQOYOAAD/4f0fQFaRqc9wpEW/Ul/1FQdrPA4JAABv0FsWAAAAAAAAUBGZOwAAAAAAAEBFZO4AAAAAAAAAFZG5AwAAAAAAAFTEDBUAAAAAAAAKiTvzbyAQ8OZE6ZXN1x4Xbe4AAAAAAAAAFZG5AwAgM7VHGm2vTKVsisGkUpYLcSOYVMqmK5hUTuH4zbcYIRzHE5di2RSDSaUsF5JiMKmcgjoQUJA/MnejbpxJ5U+6wwcAwHXq/GacYiRciOOUupBUjma9rDo3H55R50NX6olLBRfiSHEHUQcCWcsHmbvUU28k7wAAAAAAAOA7qmfunEq6kbwDAAAAAACAvzC3LAAAAAAAgOr0c6GmMteqX+ZU1cvma1e6zR0N5QAAAAAAAJC1fNbm7sLQ+63vHJP4G3XjTFLFAQAAAAAAgDRSus0dAAAAAAAAkLUca3PXHmkQQhQHa7QFIUTT+tVjCu4VQnR1X3i27hVtNyFEb1//G60HtjXv1dZopQAAAAAAAJCIH8drc0q2XbvDbe6efnymtty0fvV3t24XB2tkPu7N0EtyvVxz8sznZY+U6NeQtgMAAAAAAFksoN4frj3NnMzcXbp8de5D0y5dvip/HFNwr2xnJ4R4tu6V8WNG6XeuCm2UzfGEEO2RBvnHwWAAAAAAAAAAX3Nyhorvbt9+8P7ffH3tRrIFaW0HAAAAAAAAxHCyzV3PlW+G5OX2XPlG/th9sUfrIftm6KXuiz36ncMrl2mt8wAAAAAAAADECMiB/QKBQNGiFTHbOnY0Glcm0h5p+M+DbU/NLpX/HXCGiivXbuzce9h8hopRN87EnOXC0PutX5uV4havMalbAQAAAAAAYFF7pDHdIQysOOhKViRLrt12WqljR6NjvWVl0m3t1p3af4UQC1ati7ub+RoAAAAAAAAowqW0nS+k/dqdHOfOA8ZmdAAAAAAAAP6V9txQGmXztVvk5Dh3ikuqpy0AAAAAAACQXkpn7si1AQAAAAAAIGspnbkDAAAAAAAAspbqmTunmt3RfA8AAAAAAAD+onrmTjiRdEt0BNuT8gIAAAAAAABuM5tbtmjRCkVyW7SYAwAAAAAAQLbxQZs7AAAAAAAAIAuZtbkTPza7kwuexOMFeUUiyYvSSgEAAAAAAAAeGCBzJ35Mb2VS3spGFjKTEpcAAAAAAADwhYEzdxKpKwAAAAAAAMBLjHMHAAAAAAAAqIjMHQAAAAAAAKAiMncAAAAAAACAisjcAQAAAAAAACoicwcAAAAAAAAoKRqNRqPRdEcBAAAAAAAA4CfRaPT/A7mDkVkNlqG2AAAAAElFTkSuQmCC;strokeColor=none;labelBackgroundColor=none;rounded=0;html=1;whiteSpace=wrap;" vertex="1" parent="zqYOxgQ22PQ1kl50evgv-54">
          <mxGeometry x="33" y="2500" width="1568" height="190" as="geometry" />
        </mxCell>
        <mxCell id="zqYOxgQ22PQ1kl50evgv-72" value="" style="strokeColor=#9673a6;html=1;labelPosition=right;align=left;spacingLeft=15;shadow=0;dashed=0;outlineConnect=0;shape=mxgraph.rackGeneral.horRoutingBank;fillColor=#e1d5e7;" vertex="1" parent="zqYOxgQ22PQ1kl50evgv-54">
          <mxGeometry x="33" y="2690" width="1568" height="135" as="geometry" />
        </mxCell>
        <mxCell id="zqYOxgQ22PQ1kl50evgv-74" value="&lt;font style=&quot;font-size: 94px&quot; color=&quot;#FF3333&quot;&gt;Armoire SR1 &lt;/font&gt;" style="text;html=1;strokeColor=none;fillColor=none;align=center;verticalAlign=middle;whiteSpace=wrap;rounded=0;fontSize=54;" vertex="1" parent="1">
          <mxGeometry x="965" y="-4600" width="890" height="330" as="geometry" />
        </mxCell>
        <mxCell id="zqYOxgQ22PQ1kl50evgv-99" style="edgeStyle=orthogonalEdgeStyle;rounded=0;orthogonalLoop=1;jettySize=auto;html=1;fontSize=54;" edge="1" parent="1" source="zqYOxgQ22PQ1kl50evgv-76" target="6_qTBxh7tRdVixuZlOHr-1">
          <mxGeometry relative="1" as="geometry">
            <mxPoint x="4150" y="-30" as="targetPoint" />
            <Array as="points">
              <mxPoint x="5235" y="-316" />
              <mxPoint x="3970" y="-316" />
            </Array>
          </mxGeometry>
        </mxCell>
        <mxCell id="zqYOxgQ22PQ1kl50evgv-76" value="" style="rounded=1;whiteSpace=wrap;html=1;rotation=90;fillColor=#d5e8d4;strokeColor=#82b366;" vertex="1" parent="1">
          <mxGeometry x="3340" y="-3997" width="3790" height="2440" as="geometry" />
        </mxCell>
        <mxCell id="zqYOxgQ22PQ1kl50evgv-77" value="" style="strokeColor=#666666;html=1;verticalLabelPosition=bottom;labelBackgroundColor=#ffffff;verticalAlign=top;outlineConnect=0;shadow=0;dashed=0;shape=mxgraph.rackGeneral.container;fillColor2=#f4f4f4;container=1;collapsible=0;childLayout=rack;allowGaps=1;marginLeft=33;marginRight=9;marginTop=21;marginBottom=22;textColor=#666666;numDisp=ascend;" vertex="1" parent="1">
          <mxGeometry x="4435" y="-4232" width="1610" height="3100" as="geometry" />
        </mxCell>
        <mxCell id="zqYOxgQ22PQ1kl50evgv-78" value="" style="strokeColor=#666666;html=1;labelPosition=right;align=left;spacingLeft=15;shadow=0;dashed=0;outlineConnect=0;shape=mxgraph.rack.general.cat5e_enhanced_patch_panel_48_ports;" vertex="1" parent="zqYOxgQ22PQ1kl50evgv-77">
          <mxGeometry x="33" y="30" width="1568" height="270" as="geometry" />
        </mxCell>
        <mxCell id="zqYOxgQ22PQ1kl50evgv-79" value="" style="strokeColor=#666666;html=1;labelPosition=right;align=left;spacingLeft=15;shadow=0;dashed=0;outlineConnect=0;shape=mxgraph.rackGeneral.horCableDuct;" vertex="1" parent="zqYOxgQ22PQ1kl50evgv-77">
          <mxGeometry x="33" y="440" width="1568" height="20" as="geometry" />
        </mxCell>
        <mxCell id="zqYOxgQ22PQ1kl50evgv-80" value="" style="strokeColor=#666666;html=1;labelPosition=right;align=left;spacingLeft=15;shadow=0;dashed=0;outlineConnect=0;text;" vertex="1" parent="zqYOxgQ22PQ1kl50evgv-77">
          <mxGeometry x="33" y="460" width="1568" height="15" as="geometry" />
        </mxCell>
        <mxCell id="zqYOxgQ22PQ1kl50evgv-81" value="" style="strokeColor=#9673a6;html=1;labelPosition=right;align=left;spacingLeft=15;shadow=0;dashed=0;outlineConnect=0;shape=mxgraph.rackGeneral.horRoutingBank;fillColor=#e1d5e7;" vertex="1" parent="zqYOxgQ22PQ1kl50evgv-77">
          <mxGeometry x="33" y="475" width="1568" height="135" as="geometry" />
        </mxCell>
        <mxCell id="zqYOxgQ22PQ1kl50evgv-82" style="vsdxID=5;fillColor=none;gradientColor=none;image;aspect=fixed;image=data:image/png,iVBORw0KGgoAAAANSUhEUgAABpMAAACpCAIAAABI01LKAAAjUklEQVR4nO3df2wVZb748edsoN5WkKWiSxdWcLEs8mOBdou3oi6gQK7Nflsxa5Dj1xKBpMGGpoGYm8If/QNOjMGctAFCAhjx7kGCX3rb3dQbYPkhLvau2CpaQMvlQhEEK4JAaRVMzvePR8fxzDnTOXNm5jxzzvsVotOZeWY+M+fMQ+fD8yMQjUYFAAAAAAAAAMX8It0BAAAAAAAAAIhjkPxfIBBIbxwAAAAAAAAA9AZpS0WLVqQxDgAAAAAAAACajh2N9JYFAAAAAAAAVETmDgAAAAAAAFARmTsAAAAAAABARWTuAAAAAAAAABWRuQMAAAAAAABUROYOAAAAAAAAUBGZOwAAAAAAAEBFZO4AAAAAAAAAFQ2yuF/HjkZX4/BY0aIVSe2fYZcPAACKFq3g73cAAFyS7Es3gEQGztzJX2oz7KmzcVEZdgcAAAB/uQMA4BLtn8f42xZI0QCZu44djRn5mMmLytSrAwAAAAAgjbR37YxsDGRUGyx/dPrkghH5OYMH3br9/dkvvnz/+GfXb/Yv/3NZcbBmwOJN61cvWLXOfJ/2SIO2bOWYqZzrzdBLY3/9q5zBg3r7+o8cO1m3Ybu2aUnFvLJHSsYU3Csv89m6V4zFa4PlMyb97tf35A/Jy9WH+mbopfFjRgkhurovxC2IuKz2lgUAAGpqjyjX5bM4+NNv54SXLC08BWMThJcC/RcPDlL8s1Y5PAVjE4SXGkXDiwghRCCQyU3wZEKqt6//4AcfyyTXmqULn5gxfeSI4VaKh6orxxTcO+BuxcEaffLOHivn2rdpbf6woXJ5SF7u/NKi3Dtyal/dIoRYUjFvacX8nMGD/vL2gamFv51SOHbfprVzl6/RF29av3pMwb2XLl89cuxk+8n/iTnsfx5sE0I8NbvUWFATc5la7i/u5cutxk36jGF7pMHKQUxOnV5mmTuapAEAoDi1fjU3IDxA0x5pJHnnOMWfYsXDA7wUjf6QWMy8XrQyUdXb1//HZf+urVy7dacQorWhfsDkXai6cn5pkbshJnOu8MplQojQa7t27z+iNZH71ykT5NayR0pyBg8SQoQjLbXB8imFY/OHDd1c92JVaKPcQabn9rR16JvpyVPLbKC8M0/NLs0fNjRUXRmzm/h5ls24xiSVZlLKfE+Lp06jrG5zJ4emzpj6AgAAAAAAlcX0ohU+T+GtWbpQNmE7cuykcetrf91X98Iz2p5FE8bpu9M+W/eKzPrJHWRrL5knirtzzMGNrcO0NX95+8D1m/0LZj88csTwS5evNh18b/mfy7ov9sQ9V4xzl3o6T3fv3n9ECPFs3StyT5mtE0IUjMjX9gxHWp57co4Q4sH7fyPXvBl6KX/Y0KPHu4z5uAljRxvPFXcljH6R7gAAAIB3/vu/ky7S0yMOHBA9PS5EE+9ENnR1iWvXnI7GQIZ37lzSRTy4dUKIY8eSDu/cOZs33IaurqTPJb+rtr8VNs4lknlA9OF58xEjdTa+VNpXwoN6Rh+exWfZy++hPFdSVY0s4k1VI89lvarRbpoHlYz+A7JYycSE5+qHa+NW6KNK5dEoWrRC/unY0ejf2d6LJoyTC/puoZrd+4/I7Njmuhefml3a8enp0sUr//L2gZzBg8aPGdXaUK8fb644WGO+c8zBQ6/t6u3rl8uyC6os/pe3D4QjLTJtt+mt1qaD7z1fNkcIEfdcRuFIy7bmvTEruy/+8C3UUnh6Q/JyhRBLKubJBnrjRhe0Rxre2fKybL4n3f1j91s9fR7QRBpbvanQ4E6QuQMAIHt0dYntsf8COrCLF8UDD4jOThcC+rlvvhF33y2OHUuu1LVrIhz2InPX2Sny8sR99yVRpKVF5OW5FtDPTZ0qhBD/8i9JFNmzR+Tl2Unm2vDZZ2L06CTOpX1X/+M/xAMPuBukdi7rD4i2p2dPB1KnfWrWqxqtiAf1jHYu61WNVsSDqkY7l/WqRiviQVWjnct6VaM9vB5UMtq5rFcyWhEPKhntFNYfDa2IU4+GPn/nuxSe1opNNlJLpGTSeCHEA6MLhBDhSItcmagjrcWdd+8/0nyoTS6XTpkghAhVV3Z1X5BF5P6PTpu0rXmvtluyllTME0Lcuv195L8OyTVarlBu0ntixjS5MHf5mqPHu4bk5T5WNFlL3snsXoy4eUDZeFD+MW7VNpnsM6BEBzE/dRpldW9ZAACyyvjx4oEHki41darYskUsWzbwnikaP14cOCDuvju5Urt2iT/+UVy9mlxOzYYHHhDffisOHBBz5lgtcv26yM8XnZ1JFEnFzZvi3oGHt/7JyJHiq69cv2/SffeJjo4kwov5rvb1uRFU7LmsPyDanp49HUid/oO2WNVoRTyoZ7RzWa9qtCIeVDX6p8NiVaMV8aCq0c5lvarRHt4PPxTC5UpGX1FYrGT0RdyuZPTnsvhoaEW2bHHy0TD2ohU+70ir19V9YfyYUVdv9AohaoPlTu0cjrTIeTBGjhheGywvmVj49pGjctOly1dHjhguZ5DYufewvbZjMhl38IOPtbxkx6enHyuaLIQomVioNc27dPmqEOLX9/zUgO7oiVMy/6i1SUxKzHwR+uBNLsT65BJWNpl0KPaeA23uUkxGKpjOBAAAmi1bxLlzSTeFs+FvfxM9PSI3zr/Impk/351oDI4d+6E1h3XTp4uOjuSK2HbunLjnnqRL3byZ9A235+uvxY0bdhLH48eL996zU9Abnj0dcJCNqsazekZQ1aTGelWjPbweVDI2KgqtiAeVjHYK64+GVsSlR0PrReuLhngmbdD0nq17pThY0//drXe2vPzEjOnmx0xq57+//6FceGLG9CF5uVobvbKa+ivXbggh8ocNXVox3zy8uELVlePHjIqZa6L21S2HOzp7+/pLJo3XOvB2nbsgft6qTkvqaStv3f7eeIq4K/Vkr16LKSO5s8y1pZ5xS+rUbku1zZ28DNvTbShyFwAAyBIrVyZdxLP2RH/6k51S993nUasxG+F509ROsnEf7N1we+bMSfpuyO+qN0Fqz4X1B0TuSWs7f7HxpZJFvKlnbIfnTVVj41Z4/xRbr2q0h1f2/3WVvqKwWMmkJTzr59JfkduPhvrTWZw887lsXDZ53BiT3Z5+fGbV0/+WP2xoV/cFbdoHR3YOR1oqZpUOycsdOWJ4V/cF/aa5y9fIyWFzBg96vmyOcfQ6E6Hqytl/+P2mt1qNpWpf3SIXNte9OHLE8N6+frnm1u3vjb1ftdzcxctXtJ7FmouXrxhPnfp0rjLjZuMgiswka6TKOHek8AAAAAAAgJGyrfCqQhtlcupfp0yIu8OboZeEEC/8n7n5w4YKIYxTxBoltbPQTWt7/H9/mj6mPdJQGyx/tu6VT06dFQmGmUskVF1ZMrFwa/MeLW339OMzm9avjt1n0vhbt79/o/WHmU3OfvGlXND38NVWfnr2vPFEcVfCyMlx7rRuwPr+wFrOcsBOwjGDAoqfz2qsiVkZczoAAAAAAJCRFBwOb2vznqUV83MGD3pny8tHjp1sP/k/clS4UHXlzKkPyrSaNr/Ekop52kwOUm9fv0yrrVm6sGjCuAWr1pnsHFfdhu0zpz6YM3jw2q079eufnFly/Wb/ux8dn1I4Vg5FZzyX8Wib616UrQiX/7ls+Z/LtPWHO36YKiVUXTm18P6RI4ZfuXZj597DWnbv/+0/sur/LsgZPGjGpN/J5N2t29///f2PtCBLJhbmDxu6ZulCuebKtRv6frgaYyJIn+2JmyNKdJBEaaJEBzE/dRo5k7kzvx36+5Xo3qXef1jZZo0AAAAAAMBB+mxderN425r3fnPj5tyHpv3mV/fM/sPv55cW1b3wTG9f/xdfXWnc+TeZxdvT1jH7D7/PGTyo7JGSdz/svCNnsOw6+np97RutB54vmzMkL7d0yoSmg++Z7KzPmcQkQE6e+XzYkDtjAtu593DZIyVjCu69dPlqWU29EMJ4LiOZtjOSXWLbIw3y0to++TQmUbh7/5FfDr2z7JGS8WNGjR8zqvtiT+s/juo728reu0/NLhVCyI7AiW5potxOUpNOJJrXwjxxpGZaKRCNRoUQgUDA+P3u2NE44Jc+pnldot30ibmYG2FsXmdsc2dsx2flyFZYuUbruwEAAAAAgHRRpy2el97Z8nLzoTZtegpkko4djc60udOnexOl2wY8QrIniqFmZhQAAAAAAHhDnbZ4bnu9vnZK4djuiz0LVq3r7fuWtF0Gc3Kcu0Qs9i5OscMsvWUBALCiatbkzYc6Le4Zs8ZiQdvkGQnPnowJzxibxYKpSOW5EO6HBwdRB9pGeKmgDkyLzM7iTSkcK4QYU3BvqLry7+9/mO5w4CLnM3da9s1eGs48f0duDgCAVMT9hRtQyuZDnTFfVG/eCS2+uKYrPDiCOhDqow50SaIsnvBtIk8OhyeXaXCX2X7h+BH13WYdP3iKs1gAAABh+d015ndxb9ojCMKzJcPC85iaUcE9mfGYEJ5ehoXnMTWjclXRohX6Px07GvV/0h2dVXUbtpcuXlm6eGXcGVqRSZzP3OmZz+4hEqT57KX8aI4HAIC5LPzVHD6lf4v2sjWHjXd+vzQ2gaAOhH9QB3osMxJ5yGCpzi3rd8wtCwDIHva6tyQ1cpBttoccIjyRoeFppTwOL9mRnjLjrTVLUAfaRnipoA70O2PyjuQAvJTq3LIKpp95hAAAiIvGJvAXOZSS9++ESY30lA2vrBmDOhD+Qh2ojriNnAbcB3BQSm3uMiBzR5s7AACAbJZKa50seWsFkMGoAx2RKDdCGgGpS7XNHQAAAOBrtt88eWUFkAGoAx2RKEM3YGsnUnuwgswdAAAAAACAwwZMzCnYkRHusZ2oJXMHAAAAAADgNdrcZY9UsrS/cDAOAAAAAAAAAE4hcwcAAAAAAACoyMXMXTQalRPXKng0AAAAAAAAQHGMcwcAgI+tWbpw7dad4ZXLal/d0h5pSHc4AH5SHKxJdwjZhToQUAp1IOAUessCAOBjFy9f2bdpbe4dObyyAqqJeSrDK5fpF9YsXahfCXPyRi2pmLe57kUR7+5RBwKq0T+V8uFdUjHP5CkGkAht7gAA8LFtzXufL5tz5Xqv9SKBQMDeuTwYtoLY7LEdm3A/vIyMzUZga5YuLJowTr8g0+6nz1+0F0NW0W5awYj8K9d7Q9WVp89ftH33MvJZJjbbZZWtZ4TCsdkIbNzogs+6z5dMLDzf83XqT3FGao/Yn3jUM8VBV2bCzeZrt8iVNncxT3IqNU7M8HaMdgcAgF7T+tVvtB4omViY7kAAmFm7dWdv37f6hW3Ne3MGD0oq7Z619Hcv/64hgrsH+E3dhu2PTp9cFdrIUwzY4FabOy2/RqINAAD3LFi1TgixrXkvPcUAf5Fp94XzHkt3IH7yen3tHTmDz/d8zd0D/KVp/eqhebmh6spfj8jnKQaSRW9ZAAAAwHVlNfX6BS3tnr6I/ETetMX1Yf1K7h7gF7LGM+IpBqxwOHMXjUYT9ZaXje+s96U3aayX7KEAAMg8NLID1BfznDLTooOoAwH1UQfaoFqew8telNl87eaczNzRMRYAADU58s9dMQdx6u99YnPksI4ch9hsHIRfgH0h459lYnPkOMRm4yDUgW6wfVe1j8bBzyUQCHj5IWfztZtwZoaKpCaOGHBPBw8FAAAASG702KAXCAC/oA4EfMrrce4s5tqSSt5RWQAAAAAAgEwyYK7DeuYkqbSJCm2ksvnajVJtc5dUa7uYghZXuhcDAAAAAAAAoKz0zC2rJdrIuAEAAAAAAABxpSdzBwAAXOLZIBLGEw34D3JpjE0MFB6xJToRsQ3IxrMA96j8ufO8JDoRsQ3IX7FRBzrFwTvpuw8lm6/dKKXMXdGiFcZ5nbWVcgZouWy+pyMrixatsHkZAAAAAAAAakgx8epI3taRhFfVrMlCiM2HOq0XyZhrd5CLbe6MuTYAAAAAAABkNpmzgyPoLQsAAAAAAAAHkLNzXKpzywIAAAAAAABwA5k7AAAAAAAAOGDzoc6kBrbDgMjcAQAAAAAAwDHk7xzEOHcAAAAAAABwGMk7R9DmDgCAbKHNcG9cMN8adzdFYku00tXYzENSObYBt2ZJbMlSJAykiDrQqdjMQ1I5tgG3ZklsyVIkDCBrkbkDAABAdrGdo/EggwMAbqMOBPyFzB0AAAAAAACgIjJ3AAAAAAAAgIrI3AEAAAAAAPiSSc9luSmDuzZnybWTuQMAAAAAAPAZ48iDJtObeJPDqpo1uWrWZA9OpOC1u4fMHQAAAAAAAJzhWf4uS5C5AwAAAAAAgJPI3zmFzB0AAAAAAACgokGuHr1jR2PMmqJFK4y7haorZ059cEhebm9ff/OhtidmTP/7+x+GIy21wfInZkw/duqMfutzT87Rly0O1rh4AQAAAAAAAEjS5kOd6Q4hQ7jV5q5jR6MxbZdo/fzSojdaDxQHa5oPtT0z97HX/rqvYlapEKJiVulrf90Xs7U4WCOzddoCAACwIhAIJFow3xp3N0ViS7TS1djMQ1I5tgG3ZltsSW0SCaKFX1AHOhWbeUgqxzbg1myLLalNIkG0gNHmQ52k7Rzkbpu7RDp2NOob3x093rVg9sMlEwuPnjhVunilEGLuQ9Pe2fLyyTOf795/ZO5D02K2AgAAAKkzfz12++UZANKLOhCOI2HnBiXGuasKbSyrqf+s+3zJxMKm9avlmiF5uVWhjXG3AgAAAAAAZDOZVDX+13xTZsiqa3crcxd3PLtEW9tef7U2WB6OtBw9capgRH7MzuZbAQAAAAAAgIzkYm9ZmZ7Tj2qXKJ23a9/hilmlzz05p7ev/+AHHye1FQAAAAAAAMhIro9zZ974TgpHWsKRlpiV2uwT5lsBAAAAAACAjKTEOHcAAAAAAAAAYpC5AwAAAAAAAFTkem9ZAADgpWg0mu4QEiI2e4jNHpVjg3tU/tyJzR5is0fl2AAkRZXMXXukQS50dV94tu4Vbc0np84urg+HqitnTn1wSF5ub19/86E247B3AAAAAAAAQIZxPXNnZW5ZSU46oaXw5Br54/zSok1vtW5r3lsbLH9m7mNk7gAAAAAAQDZLtmVlIBBwKRLvZdW1u5i50+fsYtbETeHJJF1X9wXjpqPHuxbMfrhkYuHRE6dKF690OlIAAAAAAAA/8XU2KkVZde1uzVBhTNsNuLU4WHP0eNeZL77U1rRHGj45dVYIURXaWFZT/1n3+ZKJhU3rVzsdLAAAAAAAgBKiFrh35FSOn7psvvZEXGlzZ562M1EV2vjOlpe1H2X/WSFE2+uv7tp3OBxpWVIxb2nFfAdCBAAAAAAA8K1NmzYltf/y5ctdisR7WXXtrrS5Mx/PznyHL766EqqujFm5a9/hilml7ZGG58vmHPzgYwdCBAAAAAAAUEzAGlcPnuJZbMvmazfh1jh3MjcXt/Fd3LSd1rxOTiyrXyOECEdamJUCAAAAAABktgHbQkkdOxpttCOzeHD9WZI9RSqy+dpNuDu3bLL3BQAAAAAAAOayOd+Sbdfu1gwVAAAAAAAAAFLhbps7i5ZUzCt7pGTBqnVyecHsh8tq6uWmpvWrI/91aPf+I0KIN0MvfXfr9l1D8lr/cfTRaZPuGT5M7vPV1WvvfnR8weyH5Y+ff/lVVWhjGi4DAAAAAAAAcI7rmbuYjsFx2zTedWfu0LzcJRXztjXvfXTapPxhQ+X6NUsXXu/tm/vQtN37j4RXLjvzxZd1G7YLIZrWr5ZpvtaGepnjqw2Wawm7pvWr5aFcvjIAAAAAAADARS5m7uIO5idXGvN3nae7H502aVvz3nuGD7ty7YZcOem39z1b90prQ70Q4tylnidmTA+vXNZ5ulum7WIMG3JnbbBcLn9z46Zz1wEAAAAAAACkgVvj3JnPwWHceu5Sz11D8pZUzPvq6jVt5Yhf3lUbLL9+sy9UXRmOtJTV1Pd/d+uJGdNer681HvOuO/N+N2b0EzOmd3x6WvauBQAAAAAAAPxLiXHupOu9fY9Om6SNWBdeuez0+YtCiOP/e650ygTZ2k72lpWt8GJovWX3bVq71tPAAQBQSyAQSOPZo9GoyVZiS8S/sYm0hufr+waXqPy5E1si/o1NUAcmQB2YLuGVy2pf3ZLuKNJjScW8komFR0+cyrDx09Izt2zc0e7e/ej4/aN+pd3f8feNqgptDEda1m7d+d3t2//46MTCeY+9Xl/b2lB/7NQZk4Nf6Pla6zYLAAAAAACQDdYsXVg0YVy6o0ibcaMLPus+XzKxMN2BOMytNncyN2fsFRs3ZxeOtMgFmbaTk05o08sKIeTAdsY+sNo+2hGEEIvrwykEDgAAAAAA4D9rt+4snTIh3VGkTd2G7dqMppnE3d6ycfN0AAAAAAAAgIOa1q8empcbqq6UI61lDIXGuQMAAAAAAIBt+v6L2SbzWttJ6RnnDgAApJc2brS9BQVDIjZ1QvJFbMhyCn45M7ieITZ1QgLgRy62uTMOcicZu9CGqitnTn1wSF5ub19/86G2556co99aHKwJVVfOLy3a09ZRt2F7e6QhZquzYQMAkMGi0Wh6Z5qDalT+SrgXm/7I2rK9BfgLHxx8hDoQgORW5i5R2k7bpM/fzS8t2vRW67bmvbXB8mfmPiaTce2RBi0rN2Hs6EuXr04YO1r8mKrTbwUAAAAAAAAyjyu9ZU3SdnEdPd61YPbDm+tevH6zv3TxSuMOBSPyX/vrvoIR+Q4FCAAAAAAAAKjOlcxdslPKVoU2ltXUf9Z9vmRiYdP61TFba4PlOYMH1b3wTM7gQbXBcufCBAAAAAAAANTl1gwVJsm7okUrYra2vf5qbbA8HGk5euKUsWHd1MLfHu7oLA7WHO7onFr4W1fCBQAAAAAAABTj4gwV1lve7dp3uGJW6XNPzunt6z/4wccxW+8f9au/7XxfCPGPj06sWPgnh6MEAAAAAAAAlORi5s66cKQlHGmJWalNQPHHZf8uF3bvP7J7/5GYrQAAAAAAAEBGcqu3LAAAAAAAAIBUkLkDAAAAAAAAVOR6b9mOHY3assnId+2RBrmwp62jbsN2uUZ2idUvCCE+OXV2cX1Yv75p/eqOT0+v3bpzzdKFRRPGLVi1zsXrAQDAzwKBgCMLxEZsvo5Nf2TVYoOrlP1OEhuxUQdCo8+ipF00GhXCu487m6/dhItt7jp2NMbcdLkm0SdRHKzZ09Yxv7TI5JjFwZophWNjVi5YtW7uQ9Oefnzm3IemkbYDAAAAAAB+FNVRIYy0nDQLr92cW5k780Rpoq2ytZ0N+/75Ud0Lz+z750f2igMAAAAAACgimxs2ZvO1x+VK5s699o3tkYZPTp116eAAAAAAAABwRNWsyVWzJqc7Ct9zZZy7okUrzJN3iQa8C1VXasu3bn+/pGKeXNBWyoHtjOY+NC302q4VC/+0dutOOxEDAAAAAADACSTsHOTWDBUyN2fM3w04ScWetg7548EPPl5aMV8umBfpvtiz758f7d5/5MH7f9O0fjVD3QEAAAAAAHiPnJ3j3J1b1iRPF8PYmM445l3MPsYiNLgDAAAAAABAxnBxblkAAAAAAABkj82HOtMdQqYhcwcAAAAAAABnbD7USf7OQe72lgUAAAAAAEC2IXnnFCUyd6HqyplTHxySl9vb1998qC0caZFTT3xy6uzi+rD4cSYKqThYk+jHPW0dxtHxAADINtFoNBAIpOvUA+5AbDaoHBugGuqZRKcecAdl6xmVYwO8pz0RVhYyTHZeu7uZO+PcsiLetBXzS4s2vdW6rXlvbbD8mbmPhSMtIl6GTl/E+GOounJ+aRGZOwAARLw3NDd+gxnwPdBiKWKzV4rY7BVRJDa4StnvZNxSxGavFLHZK6JIbPBMNiS2EsmYa3crcxc3Z6dtikneHT3etWD2wyUTC4+eOFW6eGXcUloWT+bsYn4UQtRt2D6/tCj1yAEAAAAAAAAVuJK5M0nbaTvok3dVoY1CiNpgecnEwrJHShasWieEaI80fHLqrLaPeZs7AAAAAAAAIMO4MressT+subbXX60NlocjLUdPnCoYkS9XFgdr5CB3FoWqK5M6KQAAAAAAAKAyt3rLFi1aYdLyLia1t2vf4YpZpc89Oae3r//gBx/HLWLeW1b+uKetw4nYAQDwgZjm5/rBYQEogm4i7qEOBNRHHZiFqmZNFswq6zQXZ6jQ0nMyhWfSEC8caZGzUmgGnI/C5EcAAGCkHz3a9tC8Lg1B7Uhswp3wYo6p1K0jttSPqVRgcJXKnzt1oCPHJDYbx1QqMGQS8nfOcqW3bIyiRSuS7T8LAAAAZIzwymVCiCUV8zbXvbikYt6apQu1lQCQ8bTaTwixZunCpx+fSTWYDapmTZYpPKTIi8wdAABwFu//gI+sWbqwaMI4IcS40QWfdZ8vmVh48fKVfZvW5t6Rk+7QfEOr5XjnB/xIq/2efnzm3Iem3TdyBNVg9iB5lzoydwAA+A/v/4CPrN26s7fvWyFE3Ybtj06fXBXauK15b87gQVeu96Y7NH/QUp+88wM+pdV+wX+b9cVXV+4Z/kuqwSyx+VAnfWZTR+YOAAD/SfH9X+XhaWzHlpEXhQzTtH710LzcUHVl0/rVb7QeKJlYmO6I/EFLfTr1zq/yI0kdiIyk1X7vftipraEatE0boDDFBVe5lLPzxbU7zsUZKgAAgEu034AnjB39RuuBhfMeS/YIKr9HEZs9xGaDZ4GV1dQLIRasWqdfua15rzdnzxjvftg5Y9LvxI/v/DaqPo2y30lBbHYRmw2eBRZT+2moBjMPLezcQOYOAAD/4f0fQFaRqc9wpEW/Ul/1FQdrPA4JAABv0FsWAAAAAAAAUBGZOwAAAAAAAEBFZO4AAAAAAAAAFZG5AwAAAAAAAFTEDBUAAAAAAAAKiTvzbyAQ8OZE6ZXN1x4Xbe4AAAAAAAAAFZG5AwAgM7VHGm2vTKVsisGkUpYLcSOYVMqmK5hUTuH4zbcYIRzHE5di2RSDSaUsF5JiMKmcgjoQUJA/MnejbpxJ5U+6wwcAwHXq/GacYiRciOOUupBUjma9rDo3H55R50NX6olLBRfiSHEHUQcCWcsHmbvUU28k7wAAAAAAAOA7qmfunEq6kbwDAAAAAACAvzC3LAAAAAAAgOr0c6GmMteqX+ZU1cvma1e6zR0N5QAAAAAAAJC1fNbm7sLQ+63vHJP4G3XjTFLFAQAAAAAAgDRSus0dAAAAAAAAkLUca3PXHmkQQhQHa7QFIUTT+tVjCu4VQnR1X3i27hVtNyFEb1//G60HtjXv1dZopQAAAAAAAJCIH8drc0q2XbvDbe6efnymtty0fvV3t24XB2tkPu7N0EtyvVxz8sznZY+U6NeQtgMAAAAAAFksoN4frj3NnMzcXbp8de5D0y5dvip/HFNwr2xnJ4R4tu6V8WNG6XeuCm2UzfGEEO2RBvnHwWAAAAAAAAAAX3Nyhorvbt9+8P7ffH3tRrIFaW0HAAAAAAAAxHCyzV3PlW+G5OX2XPlG/th9sUfrIftm6KXuiz36ncMrl2mt8wAAAAAAAADECMiB/QKBQNGiFTHbOnY0Glcm0h5p+M+DbU/NLpX/HXCGiivXbuzce9h8hopRN87EnOXC0PutX5uV4havMalbAQAAAAAAYFF7pDHdIQysOOhKViRLrt12WqljR6NjvWVl0m3t1p3af4UQC1ati7ub+RoAAAAAAAAowqW0nS+k/dqdHOfOA8ZmdAAAAAAAAP6V9txQGmXztVvk5Dh3ikuqpy0AAAAAAACQXkpn7si1AQAAAAAAIGspnbkDAAAAAAAAspbqmTunmt3RfA8AAAAAAAD+onrmTjiRdEt0BNuT8gIAAAAAAABuM5tbtmjRCkVyW7SYAwAAAAAAQLbxQZs7AAAAAAAAIAuZtbkTPza7kwuexOMFeUUiyYvSSgEAAAAAAAAeGCBzJ35Mb2VS3spGFjKTEpcAAAAAAADwhYEzdxKpKwAAAAAAAMBLjHMHAAAAAAAAqIjMHQAAAAAAAKAiMncAAAAAAACAisjcAQAAAAAAACoicwcAAAAAAAAoKRqNRqPRdEcBAAAAAAAA4CfRaPT/A7mDkVkNlqG2AAAAAElFTkSuQmCC;strokeColor=none;labelBackgroundColor=none;rounded=0;html=1;whiteSpace=wrap;" vertex="1" parent="zqYOxgQ22PQ1kl50evgv-77">
          <mxGeometry x="33" y="610" width="1568" height="190" as="geometry" />
        </mxCell>
        <mxCell id="zqYOxgQ22PQ1kl50evgv-83" value="" style="strokeColor=#9673a6;html=1;labelPosition=right;align=left;spacingLeft=15;shadow=0;dashed=0;outlineConnect=0;shape=mxgraph.rackGeneral.horRoutingBank;fillColor=#e1d5e7;" vertex="1" parent="zqYOxgQ22PQ1kl50evgv-77">
          <mxGeometry x="33" y="800" width="1568" height="135" as="geometry" />
        </mxCell>
        <mxCell id="zqYOxgQ22PQ1kl50evgv-84" value="" style="strokeColor=#9673a6;html=1;labelPosition=right;align=left;spacingLeft=15;shadow=0;dashed=0;outlineConnect=0;shape=mxgraph.rackGeneral.horRoutingBank;fillColor=#e1d5e7;" vertex="1" parent="zqYOxgQ22PQ1kl50evgv-77">
          <mxGeometry x="33" y="935" width="1568" height="135" as="geometry" />
        </mxCell>
        <mxCell id="zqYOxgQ22PQ1kl50evgv-85" style="vsdxID=5;fillColor=none;gradientColor=none;image;aspect=fixed;image=data:image/png,iVBORw0KGgoAAAANSUhEUgAABpMAAACpCAIAAABI01LKAAAjUklEQVR4nO3df2wVZb748edsoN5WkKWiSxdWcLEs8mOBdou3oi6gQK7Nflsxa5Dj1xKBpMGGpoGYm8If/QNOjMGctAFCAhjx7kGCX3rb3dQbYPkhLvau2CpaQMvlQhEEK4JAaRVMzvePR8fxzDnTOXNm5jxzzvsVotOZeWY+M+fMQ+fD8yMQjUYFAAAAAAAAAMX8It0BAAAAAAAAAIhjkPxfIBBIbxwAAAAAAAAA9AZpS0WLVqQxDgAAAAAAAACajh2N9JYFAAAAAAAAVETmDgAAAAAAAFARmTsAAAAAAABARWTuAAAAAAAAABWRuQMAAAAAAABUROYOAAAAAAAAUBGZOwAAAAAAAEBFZO4AAAAAAAAAFQ2yuF/HjkZX4/BY0aIVSe2fYZcPAACKFq3g73cAAFyS7Es3gEQGztzJX2oz7KmzcVEZdgcAAAB/uQMA4BLtn8f42xZI0QCZu44djRn5mMmLytSrAwAAAAAgjbR37YxsDGRUGyx/dPrkghH5OYMH3br9/dkvvnz/+GfXb/Yv/3NZcbBmwOJN61cvWLXOfJ/2SIO2bOWYqZzrzdBLY3/9q5zBg3r7+o8cO1m3Ybu2aUnFvLJHSsYU3Csv89m6V4zFa4PlMyb97tf35A/Jy9WH+mbopfFjRgkhurovxC2IuKz2lgUAAGpqjyjX5bM4+NNv54SXLC08BWMThJcC/RcPDlL8s1Y5PAVjE4SXGkXDiwghRCCQyU3wZEKqt6//4AcfyyTXmqULn5gxfeSI4VaKh6orxxTcO+BuxcEaffLOHivn2rdpbf6woXJ5SF7u/NKi3Dtyal/dIoRYUjFvacX8nMGD/vL2gamFv51SOHbfprVzl6/RF29av3pMwb2XLl89cuxk+8n/iTnsfx5sE0I8NbvUWFATc5la7i/u5cutxk36jGF7pMHKQUxOnV5mmTuapAEAoDi1fjU3IDxA0x5pJHnnOMWfYsXDA7wUjf6QWMy8XrQyUdXb1//HZf+urVy7dacQorWhfsDkXai6cn5pkbshJnOu8MplQojQa7t27z+iNZH71ykT5NayR0pyBg8SQoQjLbXB8imFY/OHDd1c92JVaKPcQabn9rR16JvpyVPLbKC8M0/NLs0fNjRUXRmzm/h5ls24xiSVZlLKfE+Lp06jrG5zJ4emzpj6AgAAAAAAlcX0ohU+T+GtWbpQNmE7cuykcetrf91X98Iz2p5FE8bpu9M+W/eKzPrJHWRrL5knirtzzMGNrcO0NX95+8D1m/0LZj88csTwS5evNh18b/mfy7ov9sQ9V4xzl3o6T3fv3n9ECPFs3StyT5mtE0IUjMjX9gxHWp57co4Q4sH7fyPXvBl6KX/Y0KPHu4z5uAljRxvPFXcljH6R7gAAAIB3/vu/ky7S0yMOHBA9PS5EE+9ENnR1iWvXnI7GQIZ37lzSRTy4dUKIY8eSDu/cOZs33IaurqTPJb+rtr8VNs4lknlA9OF58xEjdTa+VNpXwoN6Rh+exWfZy++hPFdSVY0s4k1VI89lvarRbpoHlYz+A7JYycSE5+qHa+NW6KNK5dEoWrRC/unY0ejf2d6LJoyTC/puoZrd+4/I7Njmuhefml3a8enp0sUr//L2gZzBg8aPGdXaUK8fb644WGO+c8zBQ6/t6u3rl8uyC6os/pe3D4QjLTJtt+mt1qaD7z1fNkcIEfdcRuFIy7bmvTEruy/+8C3UUnh6Q/JyhRBLKubJBnrjRhe0Rxre2fKybL4n3f1j91s9fR7QRBpbvanQ4E6QuQMAIHt0dYntsf8COrCLF8UDD4jOThcC+rlvvhF33y2OHUuu1LVrIhz2InPX2Sny8sR99yVRpKVF5OW5FtDPTZ0qhBD/8i9JFNmzR+Tl2Unm2vDZZ2L06CTOpX1X/+M/xAMPuBukdi7rD4i2p2dPB1KnfWrWqxqtiAf1jHYu61WNVsSDqkY7l/WqRiviQVWjnct6VaM9vB5UMtq5rFcyWhEPKhntFNYfDa2IU4+GPn/nuxSe1opNNlJLpGTSeCHEA6MLhBDhSItcmagjrcWdd+8/0nyoTS6XTpkghAhVV3Z1X5BF5P6PTpu0rXmvtluyllTME0Lcuv195L8OyTVarlBu0ntixjS5MHf5mqPHu4bk5T5WNFlL3snsXoy4eUDZeFD+MW7VNpnsM6BEBzE/dRpldW9ZAACyyvjx4oEHki41darYskUsWzbwnikaP14cOCDuvju5Urt2iT/+UVy9mlxOzYYHHhDffisOHBBz5lgtcv26yM8XnZ1JFEnFzZvi3oGHt/7JyJHiq69cv2/SffeJjo4kwov5rvb1uRFU7LmsPyDanp49HUid/oO2WNVoRTyoZ7RzWa9qtCIeVDX6p8NiVaMV8aCq0c5lvarRHt4PPxTC5UpGX1FYrGT0RdyuZPTnsvhoaEW2bHHy0TD2ohU+70ir19V9YfyYUVdv9AohaoPlTu0cjrTIeTBGjhheGywvmVj49pGjctOly1dHjhguZ5DYufewvbZjMhl38IOPtbxkx6enHyuaLIQomVioNc27dPmqEOLX9/zUgO7oiVMy/6i1SUxKzHwR+uBNLsT65BJWNpl0KPaeA23uUkxGKpjOBAAAmi1bxLlzSTeFs+FvfxM9PSI3zr/Impk/351oDI4d+6E1h3XTp4uOjuSK2HbunLjnnqRL3byZ9A235+uvxY0bdhLH48eL996zU9Abnj0dcJCNqsazekZQ1aTGelWjPbweVDI2KgqtiAeVjHYK64+GVsSlR0PrReuLhngmbdD0nq17pThY0//drXe2vPzEjOnmx0xq57+//6FceGLG9CF5uVobvbKa+ivXbggh8ocNXVox3zy8uELVlePHjIqZa6L21S2HOzp7+/pLJo3XOvB2nbsgft6qTkvqaStv3f7eeIq4K/Vkr16LKSO5s8y1pZ5xS+rUbku1zZ28DNvTbShyFwAAyBIrVyZdxLP2RH/6k51S993nUasxG+F509ROsnEf7N1we+bMSfpuyO+qN0Fqz4X1B0TuSWs7f7HxpZJFvKlnbIfnTVVj41Z4/xRbr2q0h1f2/3WVvqKwWMmkJTzr59JfkduPhvrTWZw887lsXDZ53BiT3Z5+fGbV0/+WP2xoV/cFbdoHR3YOR1oqZpUOycsdOWJ4V/cF/aa5y9fIyWFzBg96vmyOcfQ6E6Hqytl/+P2mt1qNpWpf3SIXNte9OHLE8N6+frnm1u3vjb1ftdzcxctXtJ7FmouXrxhPnfp0rjLjZuMgiswka6TKOHek8AAAAAAAgJGyrfCqQhtlcupfp0yIu8OboZeEEC/8n7n5w4YKIYxTxBoltbPQTWt7/H9/mj6mPdJQGyx/tu6VT06dFQmGmUskVF1ZMrFwa/MeLW339OMzm9avjt1n0vhbt79/o/WHmU3OfvGlXND38NVWfnr2vPFEcVfCyMlx7rRuwPr+wFrOcsBOwjGDAoqfz2qsiVkZczoAAAAAAJCRFBwOb2vznqUV83MGD3pny8tHjp1sP/k/clS4UHXlzKkPyrSaNr/Ekop52kwOUm9fv0yrrVm6sGjCuAWr1pnsHFfdhu0zpz6YM3jw2q079eufnFly/Wb/ux8dn1I4Vg5FZzyX8Wib616UrQiX/7ls+Z/LtPWHO36YKiVUXTm18P6RI4ZfuXZj597DWnbv/+0/sur/LsgZPGjGpN/J5N2t29///f2PtCBLJhbmDxu6ZulCuebKtRv6frgaYyJIn+2JmyNKdJBEaaJEBzE/dRo5k7kzvx36+5Xo3qXef1jZZo0AAAAAAMBB+mxderN425r3fnPj5tyHpv3mV/fM/sPv55cW1b3wTG9f/xdfXWnc+TeZxdvT1jH7D7/PGTyo7JGSdz/svCNnsOw6+np97RutB54vmzMkL7d0yoSmg++Z7KzPmcQkQE6e+XzYkDtjAtu593DZIyVjCu69dPlqWU29EMJ4LiOZtjOSXWLbIw3y0to++TQmUbh7/5FfDr2z7JGS8WNGjR8zqvtiT+s/juo728reu0/NLhVCyI7AiW5potxOUpNOJJrXwjxxpGZaKRCNRoUQgUDA+P3u2NE44Jc+pnldot30ibmYG2FsXmdsc2dsx2flyFZYuUbruwEAAAAAgHRRpy2el97Z8nLzoTZtegpkko4djc60udOnexOl2wY8QrIniqFmZhQAAAAAAHhDnbZ4bnu9vnZK4djuiz0LVq3r7fuWtF0Gc3Kcu0Qs9i5OscMsvWUBALCiatbkzYc6Le4Zs8ZiQdvkGQnPnowJzxibxYKpSOW5EO6HBwdRB9pGeKmgDkyLzM7iTSkcK4QYU3BvqLry7+9/mO5w4CLnM3da9s1eGs48f0duDgCAVMT9hRtQyuZDnTFfVG/eCS2+uKYrPDiCOhDqow50SaIsnvBtIk8OhyeXaXCX2X7h+BH13WYdP3iKs1gAAABh+d015ndxb9ojCMKzJcPC85iaUcE9mfGYEJ5ehoXnMTWjclXRohX6Px07GvV/0h2dVXUbtpcuXlm6eGXcGVqRSZzP3OmZz+4hEqT57KX8aI4HAIC5LPzVHD6lf4v2sjWHjXd+vzQ2gaAOhH9QB3osMxJ5yGCpzi3rd8wtCwDIHva6tyQ1cpBttoccIjyRoeFppTwOL9mRnjLjrTVLUAfaRnipoA70O2PyjuQAvJTq3LIKpp95hAAAiIvGJvAXOZSS9++ESY30lA2vrBmDOhD+Qh2ojriNnAbcB3BQSm3uMiBzR5s7AACAbJZKa50seWsFkMGoAx2RKDdCGgGpS7XNHQAAAOBrtt88eWUFkAGoAx2RKEM3YGsnUnuwgswdAAAAAACAwwZMzCnYkRHusZ2oJXMHAAAAAADgNdrcZY9UsrS/cDAOAAAAAAAAAE4hcwcAAAAAAACoyMXMXTQalRPXKng0AAAAAAAAQHGMcwcAgI+tWbpw7dad4ZXLal/d0h5pSHc4AH5SHKxJdwjZhToQUAp1IOAUessCAOBjFy9f2bdpbe4dObyyAqqJeSrDK5fpF9YsXahfCXPyRi2pmLe57kUR7+5RBwKq0T+V8uFdUjHP5CkGkAht7gAA8LFtzXufL5tz5Xqv9SKBQMDeuTwYtoLY7LEdm3A/vIyMzUZga5YuLJowTr8g0+6nz1+0F0NW0W5awYj8K9d7Q9WVp89ftH33MvJZJjbbZZWtZ4TCsdkIbNzogs+6z5dMLDzf83XqT3FGao/Yn3jUM8VBV2bCzeZrt8iVNncxT3IqNU7M8HaMdgcAgF7T+tVvtB4omViY7kAAmFm7dWdv37f6hW3Ne3MGD0oq7Z619Hcv/64hgrsH+E3dhu2PTp9cFdrIUwzY4FabOy2/RqINAAD3LFi1TgixrXkvPcUAf5Fp94XzHkt3IH7yen3tHTmDz/d8zd0D/KVp/eqhebmh6spfj8jnKQaSRW9ZAAAAwHVlNfX6BS3tnr6I/ETetMX1Yf1K7h7gF7LGM+IpBqxwOHMXjUYT9ZaXje+s96U3aayX7KEAAMg8NLID1BfznDLTooOoAwH1UQfaoFqew8telNl87eaczNzRMRYAADU58s9dMQdx6u99YnPksI4ch9hsHIRfgH0h459lYnPkOMRm4yDUgW6wfVe1j8bBzyUQCHj5IWfztZtwZoaKpCaOGHBPBw8FAAAASG702KAXCAC/oA4EfMrrce4s5tqSSt5RWQAAAAAAgEwyYK7DeuYkqbSJCm2ksvnajVJtc5dUa7uYghZXuhcDAAAAAAAAoKz0zC2rJdrIuAEAAAAAAABxpSdzBwAAXOLZIBLGEw34D3JpjE0MFB6xJToRsQ3IxrMA96j8ufO8JDoRsQ3IX7FRBzrFwTvpuw8lm6/dKKXMXdGiFcZ5nbWVcgZouWy+pyMrixatsHkZAAAAAAAAakgx8epI3taRhFfVrMlCiM2HOq0XyZhrd5CLbe6MuTYAAAAAAABkNpmzgyPoLQsAAAAAAAAHkLNzXKpzywIAAAAAAABwA5k7AAAAAAAAOGDzoc6kBrbDgMjcAQAAAAAAwDHk7xzEOHcAAAAAAABwGMk7R9DmDgCAbKHNcG9cMN8adzdFYku00tXYzENSObYBt2ZJbMlSJAykiDrQqdjMQ1I5tgG3ZklsyVIkDCBrkbkDAABAdrGdo/EggwMAbqMOBPyFzB0AAAAAAACgIjJ3AAAAAAAAgIrI3AEAAAAAAPiSSc9luSmDuzZnybWTuQMAAAAAAPAZ48iDJtObeJPDqpo1uWrWZA9OpOC1u4fMHQAAAAAAAJzhWf4uS5C5AwAAAAAAgJPI3zmFzB0AAAAAAACgokGuHr1jR2PMmqJFK4y7haorZ059cEhebm9ff/OhtidmTP/7+x+GIy21wfInZkw/duqMfutzT87Rly0O1rh4AQAAAAAAAEjS5kOd6Q4hQ7jV5q5jR6MxbZdo/fzSojdaDxQHa5oPtT0z97HX/rqvYlapEKJiVulrf90Xs7U4WCOzddoCAACwIhAIJFow3xp3N0ViS7TS1djMQ1I5tgG3ZltsSW0SCaKFX1AHOhWbeUgqxzbg1myLLalNIkG0gNHmQ52k7Rzkbpu7RDp2NOob3x093rVg9sMlEwuPnjhVunilEGLuQ9Pe2fLyyTOf795/ZO5D02K2AgAAAKkzfz12++UZANKLOhCOI2HnBiXGuasKbSyrqf+s+3zJxMKm9avlmiF5uVWhjXG3AgAAAAAAZDOZVDX+13xTZsiqa3crcxd3PLtEW9tef7U2WB6OtBw9capgRH7MzuZbAQAAAAAAgIzkYm9ZmZ7Tj2qXKJ23a9/hilmlzz05p7ev/+AHHye1FQAAAAAAAMhIro9zZ974TgpHWsKRlpiV2uwT5lsBAAAAAACAjKTEOHcAAAAAAAAAYpC5AwAAAAAAAFTkem9ZAADgpWg0mu4QEiI2e4jNHpVjg3tU/tyJzR5is0fl2AAkRZXMXXukQS50dV94tu4Vbc0np84urg+HqitnTn1wSF5ub19/86E247B3AAAAAAAAQIZxPXNnZW5ZSU46oaXw5Br54/zSok1vtW5r3lsbLH9m7mNk7gAAAAAAQDZLtmVlIBBwKRLvZdW1u5i50+fsYtbETeHJJF1X9wXjpqPHuxbMfrhkYuHRE6dKF690OlIAAAAAAAA/8XU2KkVZde1uzVBhTNsNuLU4WHP0eNeZL77U1rRHGj45dVYIURXaWFZT/1n3+ZKJhU3rVzsdLAAAAAAAgBKiFrh35FSOn7psvvZEXGlzZ562M1EV2vjOlpe1H2X/WSFE2+uv7tp3OBxpWVIxb2nFfAdCBAAAAAAA8K1NmzYltf/y5ctdisR7WXXtrrS5Mx/PznyHL766EqqujFm5a9/hilml7ZGG58vmHPzgYwdCBAAAAAAAUEzAGlcPnuJZbMvmazfh1jh3MjcXt/Fd3LSd1rxOTiyrXyOECEdamJUCAAAAAABktgHbQkkdOxpttCOzeHD9WZI9RSqy+dpNuDu3bLL3BQAAAAAAAOayOd+Sbdfu1gwVAAAAAAAAAFLhbps7i5ZUzCt7pGTBqnVyecHsh8tq6uWmpvWrI/91aPf+I0KIN0MvfXfr9l1D8lr/cfTRaZPuGT5M7vPV1WvvfnR8weyH5Y+ff/lVVWhjGi4DAAAAAAAAcI7rmbuYjsFx2zTedWfu0LzcJRXztjXvfXTapPxhQ+X6NUsXXu/tm/vQtN37j4RXLjvzxZd1G7YLIZrWr5ZpvtaGepnjqw2Wawm7pvWr5aFcvjIAAAAAAADARS5m7uIO5idXGvN3nae7H502aVvz3nuGD7ty7YZcOem39z1b90prQ70Q4tylnidmTA+vXNZ5ulum7WIMG3JnbbBcLn9z46Zz1wEAAAAAAACkgVvj3JnPwWHceu5Sz11D8pZUzPvq6jVt5Yhf3lUbLL9+sy9UXRmOtJTV1Pd/d+uJGdNer681HvOuO/N+N2b0EzOmd3x6WvauBQAAAAAAAPxLiXHupOu9fY9Om6SNWBdeuez0+YtCiOP/e650ygTZ2k72lpWt8GJovWX3bVq71tPAAQBQSyAQSOPZo9GoyVZiS8S/sYm0hufr+waXqPy5E1si/o1NUAcmQB2YLuGVy2pf3ZLuKNJjScW8komFR0+cyrDx09Izt2zc0e7e/ej4/aN+pd3f8feNqgptDEda1m7d+d3t2//46MTCeY+9Xl/b2lB/7NQZk4Nf6Pla6zYLAAAAAACQDdYsXVg0YVy6o0ibcaMLPus+XzKxMN2BOMytNncyN2fsFRs3ZxeOtMgFmbaTk05o08sKIeTAdsY+sNo+2hGEEIvrwykEDgAAAAAA4D9rt+4snTIh3VGkTd2G7dqMppnE3d6ycfN0AAAAAAAAgIOa1q8empcbqq6UI61lDIXGuQMAAAAAAIBt+v6L2SbzWttJ6RnnDgAApJc2brS9BQVDIjZ1QvJFbMhyCn45M7ieITZ1QgLgRy62uTMOcicZu9CGqitnTn1wSF5ub19/86G2556co99aHKwJVVfOLy3a09ZRt2F7e6QhZquzYQMAkMGi0Wh6Z5qDalT+SrgXm/7I2rK9BfgLHxx8hDoQgORW5i5R2k7bpM/fzS8t2vRW67bmvbXB8mfmPiaTce2RBi0rN2Hs6EuXr04YO1r8mKrTbwUAAAAAAAAyjyu9ZU3SdnEdPd61YPbDm+tevH6zv3TxSuMOBSPyX/vrvoIR+Q4FCAAAAAAAAKjOlcxdslPKVoU2ltXUf9Z9vmRiYdP61TFba4PlOYMH1b3wTM7gQbXBcufCBAAAAAAAANTl1gwVJsm7okUrYra2vf5qbbA8HGk5euKUsWHd1MLfHu7oLA7WHO7onFr4W1fCBQAAAAAAABTj4gwV1lve7dp3uGJW6XNPzunt6z/4wccxW+8f9au/7XxfCPGPj06sWPgnh6MEAAAAAAAAlORi5s66cKQlHGmJWalNQPHHZf8uF3bvP7J7/5GYrQAAAAAAAEBGcqu3LAAAAAAAAIBUkLkDAAAAAAAAVOR6b9mOHY3assnId+2RBrmwp62jbsN2uUZ2idUvCCE+OXV2cX1Yv75p/eqOT0+v3bpzzdKFRRPGLVi1zsXrAQDAzwKBgCMLxEZsvo5Nf2TVYoOrlP1OEhuxUQdCo8+ipF00GhXCu487m6/dhItt7jp2NMbcdLkm0SdRHKzZ09Yxv7TI5JjFwZophWNjVi5YtW7uQ9Oefnzm3IemkbYDAAAAAAB+FNVRIYy0nDQLr92cW5k780Rpoq2ytZ0N+/75Ud0Lz+z750f2igMAAAAAACgimxs2ZvO1x+VK5s699o3tkYZPTp116eAAAAAAAABwRNWsyVWzJqc7Ct9zZZy7okUrzJN3iQa8C1VXasu3bn+/pGKeXNBWyoHtjOY+NC302q4VC/+0dutOOxEDAAAAAADACSTsHOTWDBUyN2fM3w04ScWetg7548EPPl5aMV8umBfpvtiz758f7d5/5MH7f9O0fjVD3QEAAAAAAHiPnJ3j3J1b1iRPF8PYmM445l3MPsYiNLgDAAAAAABAxnBxblkAAAAAAABkj82HOtMdQqYhcwcAAAAAAABnbD7USf7OQe72lgUAAAAAAEC2IXnnFCUyd6HqyplTHxySl9vb1998qC0caZFTT3xy6uzi+rD4cSYKqThYk+jHPW0dxtHxAADINtFoNBAIpOvUA+5AbDaoHBugGuqZRKcecAdl6xmVYwO8pz0RVhYyTHZeu7uZO+PcsiLetBXzS4s2vdW6rXlvbbD8mbmPhSMtIl6GTl/E+GOounJ+aRGZOwAARLw3NDd+gxnwPdBiKWKzV4rY7BVRJDa4StnvZNxSxGavFLHZK6JIbPBMNiS2EsmYa3crcxc3Z6dtikneHT3etWD2wyUTC4+eOFW6eGXcUloWT+bsYn4UQtRt2D6/tCj1yAEAAAAAAAAVuJK5M0nbaTvok3dVoY1CiNpgecnEwrJHShasWieEaI80fHLqrLaPeZs7AAAAAAAAIMO4MressT+subbXX60NlocjLUdPnCoYkS9XFgdr5CB3FoWqK5M6KQAAAAAAAKAyt3rLFi1aYdLyLia1t2vf4YpZpc89Oae3r//gBx/HLWLeW1b+uKetw4nYAQDwgZjm5/rBYQEogm4i7qEOBNRHHZiFqmZNFswq6zQXZ6jQ0nMyhWfSEC8caZGzUmgGnI/C5EcAAGCkHz3a9tC8Lg1B7Uhswp3wYo6p1K0jttSPqVRgcJXKnzt1oCPHJDYbx1QqMGQS8nfOcqW3bIyiRSuS7T8LAAAAZIzwymVCiCUV8zbXvbikYt6apQu1lQCQ8bTaTwixZunCpx+fSTWYDapmTZYpPKTIi8wdAABwFu//gI+sWbqwaMI4IcS40QWfdZ8vmVh48fKVfZvW5t6Rk+7QfEOr5XjnB/xIq/2efnzm3Iem3TdyBNVg9iB5lzoydwAA+A/v/4CPrN26s7fvWyFE3Ybtj06fXBXauK15b87gQVeu96Y7NH/QUp+88wM+pdV+wX+b9cVXV+4Z/kuqwSyx+VAnfWZTR+YOAAD/SfH9X+XhaWzHlpEXhQzTtH710LzcUHVl0/rVb7QeKJlYmO6I/EFLfTr1zq/yI0kdiIyk1X7vftipraEatE0boDDFBVe5lLPzxbU7zsUZKgAAgEu034AnjB39RuuBhfMeS/YIKr9HEZs9xGaDZ4GV1dQLIRasWqdfua15rzdnzxjvftg5Y9LvxI/v/DaqPo2y30lBbHYRmw2eBRZT+2moBjMPLezcQOYOAAD/4f0fQFaRqc9wpEW/Ul/1FQdrPA4JAABv0FsWAAAAAAAAUBGZOwAAAAAAAEBFZO4AAAAAAAAAFZG5AwAAAAAAAFTEDBUAAAAAAAAKiTvzbyAQ8OZE6ZXN1x4Xbe4AAAAAAAAAFZG5AwAgM7VHGm2vTKVsisGkUpYLcSOYVMqmK5hUTuH4zbcYIRzHE5di2RSDSaUsF5JiMKmcgjoQUJA/MnejbpxJ5U+6wwcAwHXq/GacYiRciOOUupBUjma9rDo3H55R50NX6olLBRfiSHEHUQcCWcsHmbvUU28k7wAAAAAAAOA7qmfunEq6kbwDAAAAAACAvzC3LAAAAAAAgOr0c6GmMteqX+ZU1cvma1e6zR0N5QAAAAAAAJC1fNbm7sLQ+63vHJP4G3XjTFLFAQAAAAAAgDRSus0dAAAAAAAAkLUca3PXHmkQQhQHa7QFIUTT+tVjCu4VQnR1X3i27hVtNyFEb1//G60HtjXv1dZopQAAAAAAAJCIH8drc0q2XbvDbe6efnymtty0fvV3t24XB2tkPu7N0EtyvVxz8sznZY+U6NeQtgMAAAAAAFksoN4frj3NnMzcXbp8de5D0y5dvip/HFNwr2xnJ4R4tu6V8WNG6XeuCm2UzfGEEO2RBvnHwWAAAAAAAAAAX3Nyhorvbt9+8P7ffH3tRrIFaW0HAAAAAAAAxHCyzV3PlW+G5OX2XPlG/th9sUfrIftm6KXuiz36ncMrl2mt8wAAAAAAAADECMiB/QKBQNGiFTHbOnY0Glcm0h5p+M+DbU/NLpX/HXCGiivXbuzce9h8hopRN87EnOXC0PutX5uV4havMalbAQAAAAAAYFF7pDHdIQysOOhKViRLrt12WqljR6NjvWVl0m3t1p3af4UQC1ati7ub+RoAAAAAAAAowqW0nS+k/dqdHOfOA8ZmdAAAAAAAAP6V9txQGmXztVvk5Dh3ikuqpy0AAAAAAACQXkpn7si1AQAAAAAAIGspnbkDAAAAAAAAspbqmTunmt3RfA8AAAAAAAD+onrmTjiRdEt0BNuT8gIAAAAAAABuM5tbtmjRCkVyW7SYAwAAAAAAQLbxQZs7AAAAAAAAIAuZtbkTPza7kwuexOMFeUUiyYvSSgEAAAAAAAAeGCBzJ35Mb2VS3spGFjKTEpcAAAAAAADwhYEzdxKpKwAAAAAAAMBLjHMHAAAAAAAAqIjMHQAAAAAAAKAiMncAAAAAAACAisjcAQAAAAAAACoicwcAAAAAAAAoKRqNRqPRdEcBAAAAAAAA4CfRaPT/A7mDkVkNlqG2AAAAAElFTkSuQmCC;strokeColor=none;labelBackgroundColor=none;rounded=0;html=1;whiteSpace=wrap;" vertex="1" parent="zqYOxgQ22PQ1kl50evgv-77">
          <mxGeometry x="33" y="1070" width="1568" height="190" as="geometry" />
        </mxCell>
        <mxCell id="zqYOxgQ22PQ1kl50evgv-86" value="" style="strokeColor=#9673a6;html=1;labelPosition=right;align=left;spacingLeft=15;shadow=0;dashed=0;outlineConnect=0;shape=mxgraph.rackGeneral.horRoutingBank;fillColor=#e1d5e7;" vertex="1" parent="zqYOxgQ22PQ1kl50evgv-77">
          <mxGeometry x="33" y="1275" width="1568" height="135" as="geometry" />
        </mxCell>
        <mxCell id="zqYOxgQ22PQ1kl50evgv-87" value="" style="strokeColor=#9673a6;html=1;labelPosition=right;align=left;spacingLeft=15;shadow=0;dashed=0;outlineConnect=0;shape=mxgraph.rackGeneral.horRoutingBank;fillColor=#e1d5e7;" vertex="1" parent="zqYOxgQ22PQ1kl50evgv-77">
          <mxGeometry x="33" y="1410" width="1568" height="135" as="geometry" />
        </mxCell>
        <mxCell id="zqYOxgQ22PQ1kl50evgv-88" style="vsdxID=5;fillColor=none;gradientColor=none;image;aspect=fixed;image=data:image/png,iVBORw0KGgoAAAANSUhEUgAABpMAAACpCAIAAABI01LKAAAjUklEQVR4nO3df2wVZb748edsoN5WkKWiSxdWcLEs8mOBdou3oi6gQK7Nflsxa5Dj1xKBpMGGpoGYm8If/QNOjMGctAFCAhjx7kGCX3rb3dQbYPkhLvau2CpaQMvlQhEEK4JAaRVMzvePR8fxzDnTOXNm5jxzzvsVotOZeWY+M+fMQ+fD8yMQjUYFAAAAAAAAAMX8It0BAAAAAAAAAIhjkPxfIBBIbxwAAAAAAAAA9AZpS0WLVqQxDgAAAAAAAACajh2N9JYFAAAAAAAAVETmDgAAAAAAAFARmTsAAAAAAABARWTuAAAAAAAAABWRuQMAAAAAAABUROYOAAAAAAAAUBGZOwAAAAAAAEBFZO4AAAAAAAAAFQ2yuF/HjkZX4/BY0aIVSe2fYZcPAACKFq3g73cAAFyS7Es3gEQGztzJX2oz7KmzcVEZdgcAAAB/uQMA4BLtn8f42xZI0QCZu44djRn5mMmLytSrAwAAAAAgjbR37YxsDGRUGyx/dPrkghH5OYMH3br9/dkvvnz/+GfXb/Yv/3NZcbBmwOJN61cvWLXOfJ/2SIO2bOWYqZzrzdBLY3/9q5zBg3r7+o8cO1m3Ybu2aUnFvLJHSsYU3Csv89m6V4zFa4PlMyb97tf35A/Jy9WH+mbopfFjRgkhurovxC2IuKz2lgUAAGpqjyjX5bM4+NNv54SXLC08BWMThJcC/RcPDlL8s1Y5PAVjE4SXGkXDiwghRCCQyU3wZEKqt6//4AcfyyTXmqULn5gxfeSI4VaKh6orxxTcO+BuxcEaffLOHivn2rdpbf6woXJ5SF7u/NKi3Dtyal/dIoRYUjFvacX8nMGD/vL2gamFv51SOHbfprVzl6/RF29av3pMwb2XLl89cuxk+8n/iTnsfx5sE0I8NbvUWFATc5la7i/u5cutxk36jGF7pMHKQUxOnV5mmTuapAEAoDi1fjU3IDxA0x5pJHnnOMWfYsXDA7wUjf6QWMy8XrQyUdXb1//HZf+urVy7dacQorWhfsDkXai6cn5pkbshJnOu8MplQojQa7t27z+iNZH71ykT5NayR0pyBg8SQoQjLbXB8imFY/OHDd1c92JVaKPcQabn9rR16JvpyVPLbKC8M0/NLs0fNjRUXRmzm/h5ls24xiSVZlLKfE+Lp06jrG5zJ4emzpj6AgAAAAAAlcX0ohU+T+GtWbpQNmE7cuykcetrf91X98Iz2p5FE8bpu9M+W/eKzPrJHWRrL5knirtzzMGNrcO0NX95+8D1m/0LZj88csTwS5evNh18b/mfy7ov9sQ9V4xzl3o6T3fv3n9ECPFs3StyT5mtE0IUjMjX9gxHWp57co4Q4sH7fyPXvBl6KX/Y0KPHu4z5uAljRxvPFXcljH6R7gAAAIB3/vu/ky7S0yMOHBA9PS5EE+9ENnR1iWvXnI7GQIZ37lzSRTy4dUKIY8eSDu/cOZs33IaurqTPJb+rtr8VNs4lknlA9OF58xEjdTa+VNpXwoN6Rh+exWfZy++hPFdSVY0s4k1VI89lvarRbpoHlYz+A7JYycSE5+qHa+NW6KNK5dEoWrRC/unY0ejf2d6LJoyTC/puoZrd+4/I7Njmuhefml3a8enp0sUr//L2gZzBg8aPGdXaUK8fb644WGO+c8zBQ6/t6u3rl8uyC6os/pe3D4QjLTJtt+mt1qaD7z1fNkcIEfdcRuFIy7bmvTEruy/+8C3UUnh6Q/JyhRBLKubJBnrjRhe0Rxre2fKybL4n3f1j91s9fR7QRBpbvanQ4E6QuQMAIHt0dYntsf8COrCLF8UDD4jOThcC+rlvvhF33y2OHUuu1LVrIhz2InPX2Sny8sR99yVRpKVF5OW5FtDPTZ0qhBD/8i9JFNmzR+Tl2Unm2vDZZ2L06CTOpX1X/+M/xAMPuBukdi7rD4i2p2dPB1KnfWrWqxqtiAf1jHYu61WNVsSDqkY7l/WqRiviQVWjnct6VaM9vB5UMtq5rFcyWhEPKhntFNYfDa2IU4+GPn/nuxSe1opNNlJLpGTSeCHEA6MLhBDhSItcmagjrcWdd+8/0nyoTS6XTpkghAhVV3Z1X5BF5P6PTpu0rXmvtluyllTME0Lcuv195L8OyTVarlBu0ntixjS5MHf5mqPHu4bk5T5WNFlL3snsXoy4eUDZeFD+MW7VNpnsM6BEBzE/dRpldW9ZAACyyvjx4oEHki41darYskUsWzbwnikaP14cOCDuvju5Urt2iT/+UVy9mlxOzYYHHhDffisOHBBz5lgtcv26yM8XnZ1JFEnFzZvi3oGHt/7JyJHiq69cv2/SffeJjo4kwov5rvb1uRFU7LmsPyDanp49HUid/oO2WNVoRTyoZ7RzWa9qtCIeVDX6p8NiVaMV8aCq0c5lvarRHt4PPxTC5UpGX1FYrGT0RdyuZPTnsvhoaEW2bHHy0TD2ohU+70ir19V9YfyYUVdv9AohaoPlTu0cjrTIeTBGjhheGywvmVj49pGjctOly1dHjhguZ5DYufewvbZjMhl38IOPtbxkx6enHyuaLIQomVioNc27dPmqEOLX9/zUgO7oiVMy/6i1SUxKzHwR+uBNLsT65BJWNpl0KPaeA23uUkxGKpjOBAAAmi1bxLlzSTeFs+FvfxM9PSI3zr/Impk/351oDI4d+6E1h3XTp4uOjuSK2HbunLjnnqRL3byZ9A235+uvxY0bdhLH48eL996zU9Abnj0dcJCNqsazekZQ1aTGelWjPbweVDI2KgqtiAeVjHYK64+GVsSlR0PrReuLhngmbdD0nq17pThY0//drXe2vPzEjOnmx0xq57+//6FceGLG9CF5uVobvbKa+ivXbggh8ocNXVox3zy8uELVlePHjIqZa6L21S2HOzp7+/pLJo3XOvB2nbsgft6qTkvqaStv3f7eeIq4K/Vkr16LKSO5s8y1pZ5xS+rUbku1zZ28DNvTbShyFwAAyBIrVyZdxLP2RH/6k51S993nUasxG+F509ROsnEf7N1we+bMSfpuyO+qN0Fqz4X1B0TuSWs7f7HxpZJFvKlnbIfnTVVj41Z4/xRbr2q0h1f2/3WVvqKwWMmkJTzr59JfkduPhvrTWZw887lsXDZ53BiT3Z5+fGbV0/+WP2xoV/cFbdoHR3YOR1oqZpUOycsdOWJ4V/cF/aa5y9fIyWFzBg96vmyOcfQ6E6Hqytl/+P2mt1qNpWpf3SIXNte9OHLE8N6+frnm1u3vjb1ftdzcxctXtJ7FmouXrxhPnfp0rjLjZuMgiswka6TKOHek8AAAAAAAgJGyrfCqQhtlcupfp0yIu8OboZeEEC/8n7n5w4YKIYxTxBoltbPQTWt7/H9/mj6mPdJQGyx/tu6VT06dFQmGmUskVF1ZMrFwa/MeLW339OMzm9avjt1n0vhbt79/o/WHmU3OfvGlXND38NVWfnr2vPFEcVfCyMlx7rRuwPr+wFrOcsBOwjGDAoqfz2qsiVkZczoAAAAAAJCRFBwOb2vznqUV83MGD3pny8tHjp1sP/k/clS4UHXlzKkPyrSaNr/Ekop52kwOUm9fv0yrrVm6sGjCuAWr1pnsHFfdhu0zpz6YM3jw2q079eufnFly/Wb/ux8dn1I4Vg5FZzyX8Wib616UrQiX/7ls+Z/LtPWHO36YKiVUXTm18P6RI4ZfuXZj597DWnbv/+0/sur/LsgZPGjGpN/J5N2t29///f2PtCBLJhbmDxu6ZulCuebKtRv6frgaYyJIn+2JmyNKdJBEaaJEBzE/dRo5k7kzvx36+5Xo3qXef1jZZo0AAAAAAMBB+mxderN425r3fnPj5tyHpv3mV/fM/sPv55cW1b3wTG9f/xdfXWnc+TeZxdvT1jH7D7/PGTyo7JGSdz/svCNnsOw6+np97RutB54vmzMkL7d0yoSmg++Z7KzPmcQkQE6e+XzYkDtjAtu593DZIyVjCu69dPlqWU29EMJ4LiOZtjOSXWLbIw3y0to++TQmUbh7/5FfDr2z7JGS8WNGjR8zqvtiT+s/juo728reu0/NLhVCyI7AiW5potxOUpNOJJrXwjxxpGZaKRCNRoUQgUDA+P3u2NE44Jc+pnldot30ibmYG2FsXmdsc2dsx2flyFZYuUbruwEAAAAAgHRRpy2el97Z8nLzoTZtegpkko4djc60udOnexOl2wY8QrIniqFmZhQAAAAAAHhDnbZ4bnu9vnZK4djuiz0LVq3r7fuWtF0Gc3Kcu0Qs9i5OscMsvWUBALCiatbkzYc6Le4Zs8ZiQdvkGQnPnowJzxibxYKpSOW5EO6HBwdRB9pGeKmgDkyLzM7iTSkcK4QYU3BvqLry7+9/mO5w4CLnM3da9s1eGs48f0duDgCAVMT9hRtQyuZDnTFfVG/eCS2+uKYrPDiCOhDqow50SaIsnvBtIk8OhyeXaXCX2X7h+BH13WYdP3iKs1gAAABh+d015ndxb9ojCMKzJcPC85iaUcE9mfGYEJ5ehoXnMTWjclXRohX6Px07GvV/0h2dVXUbtpcuXlm6eGXcGVqRSZzP3OmZz+4hEqT57KX8aI4HAIC5LPzVHD6lf4v2sjWHjXd+vzQ2gaAOhH9QB3osMxJ5yGCpzi3rd8wtCwDIHva6tyQ1cpBttoccIjyRoeFppTwOL9mRnjLjrTVLUAfaRnipoA70O2PyjuQAvJTq3LIKpp95hAAAiIvGJvAXOZSS9++ESY30lA2vrBmDOhD+Qh2ojriNnAbcB3BQSm3uMiBzR5s7AACAbJZKa50seWsFkMGoAx2RKDdCGgGpS7XNHQAAAOBrtt88eWUFkAGoAx2RKEM3YGsnUnuwgswdAAAAAACAwwZMzCnYkRHusZ2oJXMHAAAAAADgNdrcZY9UsrS/cDAOAAAAAAAAAE4hcwcAAAAAAACoyMXMXTQalRPXKng0AAAAAAAAQHGMcwcAgI+tWbpw7dad4ZXLal/d0h5pSHc4AH5SHKxJdwjZhToQUAp1IOAUessCAOBjFy9f2bdpbe4dObyyAqqJeSrDK5fpF9YsXahfCXPyRi2pmLe57kUR7+5RBwKq0T+V8uFdUjHP5CkGkAht7gAA8LFtzXufL5tz5Xqv9SKBQMDeuTwYtoLY7LEdm3A/vIyMzUZga5YuLJowTr8g0+6nz1+0F0NW0W5awYj8K9d7Q9WVp89ftH33MvJZJjbbZZWtZ4TCsdkIbNzogs+6z5dMLDzf83XqT3FGao/Yn3jUM8VBV2bCzeZrt8iVNncxT3IqNU7M8HaMdgcAgF7T+tVvtB4omViY7kAAmFm7dWdv37f6hW3Ne3MGD0oq7Z619Hcv/64hgrsH+E3dhu2PTp9cFdrIUwzY4FabOy2/RqINAAD3LFi1TgixrXkvPcUAf5Fp94XzHkt3IH7yen3tHTmDz/d8zd0D/KVp/eqhebmh6spfj8jnKQaSRW9ZAAAAwHVlNfX6BS3tnr6I/ETetMX1Yf1K7h7gF7LGM+IpBqxwOHMXjUYT9ZaXje+s96U3aayX7KEAAMg8NLID1BfznDLTooOoAwH1UQfaoFqew8telNl87eaczNzRMRYAADU58s9dMQdx6u99YnPksI4ch9hsHIRfgH0h459lYnPkOMRm4yDUgW6wfVe1j8bBzyUQCHj5IWfztZtwZoaKpCaOGHBPBw8FAAAASG702KAXCAC/oA4EfMrrce4s5tqSSt5RWQAAAAAAgEwyYK7DeuYkqbSJCm2ksvnajVJtc5dUa7uYghZXuhcDAAAAAAAAoKz0zC2rJdrIuAEAAAAAAABxpSdzBwAAXOLZIBLGEw34D3JpjE0MFB6xJToRsQ3IxrMA96j8ufO8JDoRsQ3IX7FRBzrFwTvpuw8lm6/dKKXMXdGiFcZ5nbWVcgZouWy+pyMrixatsHkZAAAAAAAAakgx8epI3taRhFfVrMlCiM2HOq0XyZhrd5CLbe6MuTYAAAAAAABkNpmzgyPoLQsAAAAAAAAHkLNzXKpzywIAAAAAAABwA5k7AAAAAAAAOGDzoc6kBrbDgMjcAQAAAAAAwDHk7xzEOHcAAAAAAABwGMk7R9DmDgCAbKHNcG9cMN8adzdFYku00tXYzENSObYBt2ZJbMlSJAykiDrQqdjMQ1I5tgG3ZklsyVIkDCBrkbkDAABAdrGdo/EggwMAbqMOBPyFzB0AAAAAAACgIjJ3AAAAAAAAgIrI3AEAAAAAAPiSSc9luSmDuzZnybWTuQMAAAAAAPAZ48iDJtObeJPDqpo1uWrWZA9OpOC1u4fMHQAAAAAAAJzhWf4uS5C5AwAAAAAAgJPI3zmFzB0AAAAAAACgokGuHr1jR2PMmqJFK4y7haorZ059cEhebm9ff/OhtidmTP/7+x+GIy21wfInZkw/duqMfutzT87Rly0O1rh4AQAAAAAAAEjS5kOd6Q4hQ7jV5q5jR6MxbZdo/fzSojdaDxQHa5oPtT0z97HX/rqvYlapEKJiVulrf90Xs7U4WCOzddoCAACwIhAIJFow3xp3N0ViS7TS1djMQ1I5tgG3ZltsSW0SCaKFX1AHOhWbeUgqxzbg1myLLalNIkG0gNHmQ52k7Rzkbpu7RDp2NOob3x093rVg9sMlEwuPnjhVunilEGLuQ9Pe2fLyyTOf795/ZO5D02K2AgAAAKkzfz12++UZANKLOhCOI2HnBiXGuasKbSyrqf+s+3zJxMKm9avlmiF5uVWhjXG3AgAAAAAAZDOZVDX+13xTZsiqa3crcxd3PLtEW9tef7U2WB6OtBw9capgRH7MzuZbAQAAAAAAgIzkYm9ZmZ7Tj2qXKJ23a9/hilmlzz05p7ev/+AHHye1FQAAAAAAAMhIro9zZ974TgpHWsKRlpiV2uwT5lsBAAAAAACAjKTEOHcAAAAAAAAAYpC5AwAAAAAAAFTkem9ZAADgpWg0mu4QEiI2e4jNHpVjg3tU/tyJzR5is0fl2AAkRZXMXXukQS50dV94tu4Vbc0np84urg+HqitnTn1wSF5ub19/86E247B3AAAAAAAAQIZxPXNnZW5ZSU46oaXw5Br54/zSok1vtW5r3lsbLH9m7mNk7gAAAAAAQDZLtmVlIBBwKRLvZdW1u5i50+fsYtbETeHJJF1X9wXjpqPHuxbMfrhkYuHRE6dKF690OlIAAAAAAAA/8XU2KkVZde1uzVBhTNsNuLU4WHP0eNeZL77U1rRHGj45dVYIURXaWFZT/1n3+ZKJhU3rVzsdLAAAAAAAgBKiFrh35FSOn7psvvZEXGlzZ562M1EV2vjOlpe1H2X/WSFE2+uv7tp3OBxpWVIxb2nFfAdCBAAAAAAA8K1NmzYltf/y5ctdisR7WXXtrrS5Mx/PznyHL766EqqujFm5a9/hilml7ZGG58vmHPzgYwdCBAAAAAAAUEzAGlcPnuJZbMvmazfh1jh3MjcXt/Fd3LSd1rxOTiyrXyOECEdamJUCAAAAAABktgHbQkkdOxpttCOzeHD9WZI9RSqy+dpNuDu3bLL3BQAAAAAAAOayOd+Sbdfu1gwVAAAAAAAAAFLhbps7i5ZUzCt7pGTBqnVyecHsh8tq6uWmpvWrI/91aPf+I0KIN0MvfXfr9l1D8lr/cfTRaZPuGT5M7vPV1WvvfnR8weyH5Y+ff/lVVWhjGi4DAAAAAAAAcI7rmbuYjsFx2zTedWfu0LzcJRXztjXvfXTapPxhQ+X6NUsXXu/tm/vQtN37j4RXLjvzxZd1G7YLIZrWr5ZpvtaGepnjqw2Wawm7pvWr5aFcvjIAAAAAAADARS5m7uIO5idXGvN3nae7H502aVvz3nuGD7ty7YZcOem39z1b90prQ70Q4tylnidmTA+vXNZ5ulum7WIMG3JnbbBcLn9z46Zz1wEAAAAAAACkgVvj3JnPwWHceu5Sz11D8pZUzPvq6jVt5Yhf3lUbLL9+sy9UXRmOtJTV1Pd/d+uJGdNer681HvOuO/N+N2b0EzOmd3x6WvauBQAAAAAAAPxLiXHupOu9fY9Om6SNWBdeuez0+YtCiOP/e650ygTZ2k72lpWt8GJovWX3bVq71tPAAQBQSyAQSOPZo9GoyVZiS8S/sYm0hufr+waXqPy5E1si/o1NUAcmQB2YLuGVy2pf3ZLuKNJjScW8komFR0+cyrDx09Izt2zc0e7e/ej4/aN+pd3f8feNqgptDEda1m7d+d3t2//46MTCeY+9Xl/b2lB/7NQZk4Nf6Pla6zYLAAAAAACQDdYsXVg0YVy6o0ibcaMLPus+XzKxMN2BOMytNncyN2fsFRs3ZxeOtMgFmbaTk05o08sKIeTAdsY+sNo+2hGEEIvrwykEDgAAAAAA4D9rt+4snTIh3VGkTd2G7dqMppnE3d6ycfN0AAAAAAAAgIOa1q8empcbqq6UI61lDIXGuQMAAAAAAIBt+v6L2SbzWttJ6RnnDgAApJc2brS9BQVDIjZ1QvJFbMhyCn45M7ieITZ1QgLgRy62uTMOcicZu9CGqitnTn1wSF5ub19/86G2556co99aHKwJVVfOLy3a09ZRt2F7e6QhZquzYQMAkMGi0Wh6Z5qDalT+SrgXm/7I2rK9BfgLHxx8hDoQgORW5i5R2k7bpM/fzS8t2vRW67bmvbXB8mfmPiaTce2RBi0rN2Hs6EuXr04YO1r8mKrTbwUAAAAAAAAyjyu9ZU3SdnEdPd61YPbDm+tevH6zv3TxSuMOBSPyX/vrvoIR+Q4FCAAAAAAAAKjOlcxdslPKVoU2ltXUf9Z9vmRiYdP61TFba4PlOYMH1b3wTM7gQbXBcufCBAAAAAAAANTl1gwVJsm7okUrYra2vf5qbbA8HGk5euKUsWHd1MLfHu7oLA7WHO7onFr4W1fCBQAAAAAAABTj4gwV1lve7dp3uGJW6XNPzunt6z/4wccxW+8f9au/7XxfCPGPj06sWPgnh6MEAAAAAAAAlORi5s66cKQlHGmJWalNQPHHZf8uF3bvP7J7/5GYrQAAAAAAAEBGcqu3LAAAAAAAAIBUkLkDAAAAAAAAVOR6b9mOHY3assnId+2RBrmwp62jbsN2uUZ2idUvCCE+OXV2cX1Yv75p/eqOT0+v3bpzzdKFRRPGLVi1zsXrAQDAzwKBgCMLxEZsvo5Nf2TVYoOrlP1OEhuxUQdCo8+ipF00GhXCu487m6/dhItt7jp2NMbcdLkm0SdRHKzZ09Yxv7TI5JjFwZophWNjVi5YtW7uQ9Oefnzm3IemkbYDAAAAAAB+FNVRIYy0nDQLr92cW5k780Rpoq2ytZ0N+/75Ud0Lz+z750f2igMAAAAAACgimxs2ZvO1x+VK5s699o3tkYZPTp116eAAAAAAAABwRNWsyVWzJqc7Ct9zZZy7okUrzJN3iQa8C1VXasu3bn+/pGKeXNBWyoHtjOY+NC302q4VC/+0dutOOxEDAAAAAADACSTsHOTWDBUyN2fM3w04ScWetg7548EPPl5aMV8umBfpvtiz758f7d5/5MH7f9O0fjVD3QEAAAAAAHiPnJ3j3J1b1iRPF8PYmM445l3MPsYiNLgDAAAAAABAxnBxblkAAAAAAABkj82HOtMdQqYhcwcAAAAAAABnbD7USf7OQe72lgUAAAAAAEC2IXnnFCUyd6HqyplTHxySl9vb1998qC0caZFTT3xy6uzi+rD4cSYKqThYk+jHPW0dxtHxAADINtFoNBAIpOvUA+5AbDaoHBugGuqZRKcecAdl6xmVYwO8pz0RVhYyTHZeu7uZO+PcsiLetBXzS4s2vdW6rXlvbbD8mbmPhSMtIl6GTl/E+GOounJ+aRGZOwAARLw3NDd+gxnwPdBiKWKzV4rY7BVRJDa4StnvZNxSxGavFLHZK6JIbPBMNiS2EsmYa3crcxc3Z6dtikneHT3etWD2wyUTC4+eOFW6eGXcUloWT+bsYn4UQtRt2D6/tCj1yAEAAAAAAAAVuJK5M0nbaTvok3dVoY1CiNpgecnEwrJHShasWieEaI80fHLqrLaPeZs7AAAAAAAAIMO4MressT+subbXX60NlocjLUdPnCoYkS9XFgdr5CB3FoWqK5M6KQAAAAAAAKAyt3rLFi1aYdLyLia1t2vf4YpZpc89Oae3r//gBx/HLWLeW1b+uKetw4nYAQDwgZjm5/rBYQEogm4i7qEOBNRHHZiFqmZNFswq6zQXZ6jQ0nMyhWfSEC8caZGzUmgGnI/C5EcAAGCkHz3a9tC8Lg1B7Uhswp3wYo6p1K0jttSPqVRgcJXKnzt1oCPHJDYbx1QqMGQS8nfOcqW3bIyiRSuS7T8LAAAAZIzwymVCiCUV8zbXvbikYt6apQu1lQCQ8bTaTwixZunCpx+fSTWYDapmTZYpPKTIi8wdAABwFu//gI+sWbqwaMI4IcS40QWfdZ8vmVh48fKVfZvW5t6Rk+7QfEOr5XjnB/xIq/2efnzm3Iem3TdyBNVg9iB5lzoydwAA+A/v/4CPrN26s7fvWyFE3Ybtj06fXBXauK15b87gQVeu96Y7NH/QUp+88wM+pdV+wX+b9cVXV+4Z/kuqwSyx+VAnfWZTR+YOAAD/SfH9X+XhaWzHlpEXhQzTtH710LzcUHVl0/rVb7QeKJlYmO6I/EFLfTr1zq/yI0kdiIyk1X7vftipraEatE0boDDFBVe5lLPzxbU7zsUZKgAAgEu034AnjB39RuuBhfMeS/YIKr9HEZs9xGaDZ4GV1dQLIRasWqdfua15rzdnzxjvftg5Y9LvxI/v/DaqPo2y30lBbHYRmw2eBRZT+2moBjMPLezcQOYOAAD/4f0fQFaRqc9wpEW/Ul/1FQdrPA4JAABv0FsWAAAAAAAAUBGZOwAAAAAAAEBFZO4AAAAAAAAAFZG5AwAAAAAAAFTEDBUAAAAAAAAKiTvzbyAQ8OZE6ZXN1x4Xbe4AAAAAAAAAFZG5AwAgM7VHGm2vTKVsisGkUpYLcSOYVMqmK5hUTuH4zbcYIRzHE5di2RSDSaUsF5JiMKmcgjoQUJA/MnejbpxJ5U+6wwcAwHXq/GacYiRciOOUupBUjma9rDo3H55R50NX6olLBRfiSHEHUQcCWcsHmbvUU28k7wAAAAAAAOA7qmfunEq6kbwDAAAAAACAvzC3LAAAAAAAgOr0c6GmMteqX+ZU1cvma1e6zR0N5QAAAAAAAJC1fNbm7sLQ+63vHJP4G3XjTFLFAQAAAAAAgDRSus0dAAAAAAAAkLUca3PXHmkQQhQHa7QFIUTT+tVjCu4VQnR1X3i27hVtNyFEb1//G60HtjXv1dZopQAAAAAAAJCIH8drc0q2XbvDbe6efnymtty0fvV3t24XB2tkPu7N0EtyvVxz8sznZY+U6NeQtgMAAAAAAFksoN4frj3NnMzcXbp8de5D0y5dvip/HFNwr2xnJ4R4tu6V8WNG6XeuCm2UzfGEEO2RBvnHwWAAAAAAAAAAX3Nyhorvbt9+8P7ffH3tRrIFaW0HAAAAAAAAxHCyzV3PlW+G5OX2XPlG/th9sUfrIftm6KXuiz36ncMrl2mt8wAAAAAAAADECMiB/QKBQNGiFTHbOnY0Glcm0h5p+M+DbU/NLpX/HXCGiivXbuzce9h8hopRN87EnOXC0PutX5uV4havMalbAQAAAAAAYFF7pDHdIQysOOhKViRLrt12WqljR6NjvWVl0m3t1p3af4UQC1ati7ub+RoAAAAAAAAowqW0nS+k/dqdHOfOA8ZmdAAAAAAAAP6V9txQGmXztVvk5Dh3ikuqpy0AAAAAAACQXkpn7si1AQAAAAAAIGspnbkDAAAAAAAAspbqmTunmt3RfA8AAAAAAAD+onrmTjiRdEt0BNuT8gIAAAAAAABuM5tbtmjRCkVyW7SYAwAAAAAAQLbxQZs7AAAAAAAAIAuZtbkTPza7kwuexOMFeUUiyYvSSgEAAAAAAAAeGCBzJ35Mb2VS3spGFjKTEpcAAAAAAADwhYEzdxKpKwAAAAAAAMBLjHMHAAAAAAAAqIjMHQAAAAAAAKAiMncAAAAAAACAisjcAQAAAAAAACoicwcAAAAAAAAoKRqNRqPRdEcBAAAAAAAA4CfRaPT/A7mDkVkNlqG2AAAAAElFTkSuQmCC;strokeColor=none;labelBackgroundColor=none;rounded=0;html=1;whiteSpace=wrap;" vertex="1" parent="zqYOxgQ22PQ1kl50evgv-77">
          <mxGeometry x="33" y="1545" width="1568" height="190" as="geometry" />
        </mxCell>
        <mxCell id="zqYOxgQ22PQ1kl50evgv-89" value="" style="strokeColor=#9673a6;html=1;labelPosition=right;align=left;spacingLeft=15;shadow=0;dashed=0;outlineConnect=0;shape=mxgraph.rackGeneral.horRoutingBank;fillColor=#e1d5e7;" vertex="1" parent="zqYOxgQ22PQ1kl50evgv-77">
          <mxGeometry x="33" y="1750" width="1568" height="135" as="geometry" />
        </mxCell>
        <mxCell id="zqYOxgQ22PQ1kl50evgv-90" value="" style="strokeColor=#9673a6;html=1;labelPosition=right;align=left;spacingLeft=15;shadow=0;dashed=0;outlineConnect=0;shape=mxgraph.rackGeneral.horRoutingBank;fillColor=#e1d5e7;" vertex="1" parent="zqYOxgQ22PQ1kl50evgv-77">
          <mxGeometry x="33" y="1885" width="1568" height="135" as="geometry" />
        </mxCell>
        <mxCell id="zqYOxgQ22PQ1kl50evgv-98" value="" style="strokeColor=#666666;html=1;labelPosition=right;align=left;spacingLeft=15;shadow=0;dashed=0;outlineConnect=0;shape=mxgraph.rack.general.cat5e_enhanced_patch_panel_48_ports;fontSize=67;" vertex="1" parent="zqYOxgQ22PQ1kl50evgv-77">
          <mxGeometry x="33" y="2438" width="1568" height="262" as="geometry" />
        </mxCell>
        <mxCell id="zqYOxgQ22PQ1kl50evgv-97" value="" style="strokeColor=#666666;html=1;labelPosition=right;align=left;spacingLeft=15;shadow=0;dashed=0;outlineConnect=0;shape=mxgraph.rack.general.cat5e_enhanced_patch_panel_48_ports;fontSize=67;" vertex="1" parent="zqYOxgQ22PQ1kl50evgv-77">
          <mxGeometry x="33" y="2700" width="1568" height="262" as="geometry" />
        </mxCell>
        <mxCell id="zqYOxgQ22PQ1kl50evgv-96" value="&lt;font style=&quot;font-size: 94px&quot; color=&quot;#FF3333&quot;&gt;Armoire 03 (Local Courier) &lt;/font&gt;" style="text;html=1;strokeColor=none;fillColor=none;align=center;verticalAlign=middle;whiteSpace=wrap;rounded=0;fontSize=54;" vertex="1" parent="1">
          <mxGeometry x="4650" y="-4610" width="1155" height="330" as="geometry" />
        </mxCell>
      </root>
    </mxGraphModel>
  </diagram>
</mxfile>
